<?xml version="1.0" standalone="no"?>
<!DOCTYPE svg PUBLIC "-//W3C//DTD SVG 20010904//EN"
 "http://www.w3.org/TR/2001/REC-SVG-20010904/DTD/svg10.dtd">
<svg version="1.0" xmlns="http://www.w3.org/2000/svg"
 width="200.000000pt" height="200.000000pt" viewBox="0 0 200.000000 200.000000"
 preserveAspectRatio="xMidYMid meet">
<metadata>
Created by potrace 1.11, written by Peter Selinger 2001-2013
</metadata>
<g transform="translate(0.000000,200.000000) scale(0.100000,-0.100000)"
fill="#000000" stroke="none">
<path d="M1075 1201 c-86 -22 -118 -54 -184 -186 -41 -82 -58 -105 -93 -128
-37 -25 -51 -28 -101 -25 -49 4 -63 9 -90 36 -30 31 -32 36 -32 107 0 68 2 77
28 102 25 26 35 28 117 31 l90 4 0 29 0 29 -87 0 c-75 0 -92 -3 -131 -26 -51
-30 -92 -105 -92 -169 0 -42 29 -117 58 -148 75 -84 240 -74 321 19 l31 34 37
-41 c49 -54 103 -79 175 -79 71 0 96 10 147 55 161 146 17 411 -194 356z m95
-83 c59 -31 85 -69 84 -122 -2 -101 -102 -156 -200 -110 -99 47 -99 197 0 240
44 19 66 17 116 -8z"/>
<path d="M124 1186 c-39 -17 -79 -69 -93 -121 -6 -22 -11 -91 -11 -152 l0
-113 34 0 34 0 4 141 3 141 33 29 c27 24 41 29 86 29 47 0 58 -4 85 -31 l31
-31 0 -139 0 -139 35 0 35 0 0 133 c0 121 -2 138 -23 178 -32 61 -84 89 -162
88 -33 0 -74 -6 -91 -13z"/>
<path d="M1503 1175 c-68 -41 -83 -85 -83 -243 l0 -132 35 0 35 0 0 139 0 139
29 31 c26 28 35 31 85 31 47 0 61 -4 88 -29 l33 -29 3 -141 4 -141 34 0 34 0
0 113 c0 126 -11 177 -47 226 -33 43 -78 61 -150 61 -44 0 -68 -6 -100 -25z"/>
<path d="M1896 868 c-21 -29 -20 -41 2 -61 37 -34 82 -15 82 35 0 47 -57 65
-84 26z"/>
</g>
</svg>
