<?xml version="1.0" standalone="no"?>
<!DOCTYPE svg PUBLIC "-//W3C//DTD SVG 1.1//EN" "http://www.w3.org/Graphics/SVG/1.1/DTD/svg11.dtd" >
<svg>
<metadata>
Created by FontForge 20090622 at Sat Dec 29 00:17:16 2018
 By deploy user
Copyright (c) 2017 by Emre Guven. All rights reserved.
</metadata>
<defs>
<font id="Crossten-ExtraBold" horiz-adv-x="601" >
  <font-face 
    font-family="Crossten ExtraBold"
    font-weight="800"
    font-stretch="normal"
    units-per-em="1000"
    panose-1="2 0 5 3 3 0 0 2 0 4"
    ascent="750"
    descent="-250"
    x-height="500"
    cap-height="700"
    bbox="-89.3333 -283 1104 993"
    underline-thickness="50"
    underline-position="-50"
    unicode-range="U+000D-U+25CA"
  />
<missing-glyph horiz-adv-x="310" 
 />
    <glyph glyph-name=".notdef" horiz-adv-x="310" 
 />
    <glyph glyph-name=".null" horiz-adv-x="0" 
 />
    <glyph glyph-name="nonmarkingreturn" horiz-adv-x="333" 
 />
    <glyph glyph-name="NULL" horiz-adv-x="0" 
 />
    <glyph glyph-name="NULL" horiz-adv-x="0" 
 />
    <glyph glyph-name="CR" unicode="&#xd;" horiz-adv-x="310" 
 />
    <glyph glyph-name="space" unicode=" " horiz-adv-x="290" 
 />
    <glyph glyph-name="exclam" unicode="!" horiz-adv-x="272" 
d="M191 229h-110q-18 0 -18 19l-10 433q0 19 19 19h129q19 0 19 -19l-10 -433q0 -19 -19 -19zM44 81q0 39 26.5 66t64.5 27q39 0 66 -27t27 -66q0 -38 -27 -64.5t-66 -26.5q-38 0 -64.5 26.5t-26.5 64.5z" />
    <glyph glyph-name="quotedbl" unicode="&#x22;" horiz-adv-x="401" 
d="M152 459h-79q-19 0 -19 19l-10 199q0 19 19 19h99q19 0 19 -19l-11 -199q0 -19 -18 -19zM328 459h-79q-18 0 -18 19l-11 199q0 19 19 19h100q18 0 18 -19l-10 -199q0 -19 -19 -19z" />
    <glyph glyph-name="numbersign" unicode="#" horiz-adv-x="634" 
d="M191 0h-88q-8 0 -13 5.5t-3 13.5l23 163h-67q-19 0 -19 19v86q0 19 19 19h85l12 87h-70q-19 0 -19 19v86q0 19 19 19h87l23 159q5 19 19 19h84q8 0 13 -5.5t3 -13.5l-21 -159h121l23 159q1 19 19 19h84q7 0 12.5 -5.5t3.5 -13.5l-23 -159h73q19 0 19 -19v-86
q0 -19 -19 -19h-91l-11 -87h75q19 0 19 -19v-86q0 -19 -19 -19h-91l-23 -163q-3 -19 -19 -19h-86q-19 0 -16 19l23 163h-120l-22 -163q-1 -19 -19 -19zM368 306l13 87h-120l-12 -87h119z" />
    <glyph glyph-name="dollar" unicode="$" horiz-adv-x="536" 
d="M207 506q0 -24 30.5 -42.5t74.5 -35t88 -40t74.5 -70t30.5 -112.5q0 -77 -49 -135t-123 -72v-86q0 -19 -19 -19h-85q-18 0 -18 19v81q-86 13 -175 78q-14 13 -6 26l65 99q6 8 17 8q7 0 12 -4q28 -21 67 -36.5t72 -15.5q38 0 56.5 15t18.5 39t-22 42.5t-55 30t-71.5 30
t-71.5 40.5t-55 63t-22 96q0 70 44.5 123t125.5 73v86q0 19 18 19h85q19 0 19 -19v-81q43 -8 69 -18t65 -34q15 -10 7 -27l-70 -105q-6 -9 -15 -9q-7 0 -14 4q-51 35 -104 35q-27 0 -45.5 -12.5t-18.5 -33.5z" />
    <glyph glyph-name="percent" unicode="%" horiz-adv-x="1072" 
d="M612 209q0 92 63.5 156.5t155.5 64.5t156 -64.5t64 -156.5t-64 -155.5t-156 -63.5t-155.5 63.5t-63.5 155.5zM741 209q0 -37 26.5 -63t63.5 -26q38 0 64.5 26t26.5 63q0 38 -26.5 64.5t-64.5 26.5q-37 0 -63.5 -26.5t-26.5 -64.5zM281 18l384 664q11 18 24 18h92
q10 0 14 -5t-1 -13l-384 -664q-11 -18 -24 -18h-92q-10 0 -14 5t1 13zM21 492q0 92 63.5 156t155.5 64t156.5 -64t64.5 -156t-64.5 -156t-156.5 -64t-155.5 64t-63.5 156zM151 492q0 -37 26 -63.5t63 -26.5q38 0 64.5 26.5t26.5 63.5q0 38 -26.5 64.5t-64.5 26.5
q-37 0 -63 -26.5t-26 -64.5z" />
    <glyph glyph-name="ampersand" unicode="&#x26;" horiz-adv-x="711" 
d="M328 456l154 -168l70 58q7 7 15 7q9 0 18 -9l67 -75q17 -19 1 -35q-19 -16 -33 -30l-33 -30l89 -96q17 -17 -3 -37l-61 -59q-10 -9 -20 -9q-11 0 -21 10l-93 102q-73 -51 -126 -73t-121 -22q-87 0 -145 55t-58 138q0 68 38.5 118t121.5 97q-66 88 -48 172
q14 65 66.5 102.5t113.5 37.5q101 0 166 -83q11 -16 -5 -26l-76 -63q-7 -5 -13 -5q-5 0 -12 5q-26 26 -47 26q-16 0 -27.5 -10t-13.5 -27q-5 -27 36 -71zM250 147q56 0 119 55l-83 92q-6 -4 -19 -11.5t-17.5 -10.5l-14.5 -9.5t-13.5 -9.5l-10 -8.5t-9 -9.5t-5.5 -10t-4 -12
t-1 -13q0 -23 16.5 -38t41.5 -15z" />
    <glyph glyph-name="quotesingle" unicode="'" horiz-adv-x="225" 
d="M151 459h-78q-19 0 -19 20l-10 197q0 20 19 20h99q19 0 19 -20l-11 -197q0 -20 -19 -20z" />
    <glyph glyph-name="parenleft" unicode="(" horiz-adv-x="393" 
d="M247 782q11 11 19 11q6 0 11 -4l75 -53q16 -12 4 -27q-179 -215 -181.5 -387.5t166.5 -375.5q11 -14 -2 -26l-75 -56q-8 -6 -12 -6q-6 0 -15 9q-205 213 -203 450t213 465z" />
    <glyph glyph-name="parenright" unicode=")" horiz-adv-x="393" 
d="M145 782q211 -227 213 -465t-202 -450q-9 -9 -15 -9q-5 0 -12 6l-75 56q-15 12 -3 26q170 204 167.5 375.5t-181.5 387.5q-13 15 4 27l75 53q5 4 12 4q8 0 17 -11z" />
    <glyph glyph-name="asterisk" unicode="*" horiz-adv-x="382" 
d="M59 452l56 62l-76 13q-19 1 -14 22l19 74q3 11 13 11q6 0 10 -2l74 -26l-4 73q-1 11 2.5 15t14.5 4h78q20 0 17 -19l-6 -73l74 22q6 2 9 2q10 0 14 -12l16 -69q6 -18 -14 -23l-78 -16l56 -64q14 -17 -3 -25l-60 -43q-5 -4 -11 -4q-9 0 -13 10l-42 75l-42 -73
q-6 -10 -14 -10q-5 0 -12 5l-63 47q-14 11 -1 24z" />
    <glyph glyph-name="plus" unicode="+" horiz-adv-x="510" 
d="M457 216h-131v-133q0 -18 -18 -18h-104q-18 0 -18 18v133h-134q-18 0 -18 19v104q0 18 18 18h134v130q0 18 18 18h104q18 0 18 -18v-130h131q19 0 19 -18v-104q0 -19 -19 -19z" />
    <glyph glyph-name="comma" unicode="," horiz-adv-x="265" 
d="M33 -140l46 299q2 14 16 14h125q13 0 10 -13l-62 -300q-3 -14 -20 -14h-102q-15 0 -13 14z" />
    <glyph glyph-name="hyphen" unicode="-" horiz-adv-x="405" 
d="M68 353h269q18 0 18 -19v-126q0 -18 -18 -18h-269q-18 0 -18 18v126q0 19 18 19z" />
    <glyph glyph-name="period" unicode="." horiz-adv-x="227" 
d="M21 81q0 39 26.5 66.5t64.5 27.5q39 0 66.5 -27.5t27.5 -66.5q0 -38 -27.5 -64.5t-66.5 -26.5q-38 0 -64.5 26.5t-26.5 64.5z" />
    <glyph glyph-name="slash" unicode="/" horiz-adv-x="572" 
d="M30 18l383 664q11 18 24 18h93q9 0 13 -5t-1 -13l-383 -664q-11 -18 -24 -18h-93q-9 0 -13 5t1 13z" />
    <glyph glyph-name="zero" unicode="0" horiz-adv-x="572" 
d="M34 350q0 74 15 138t44.5 114t79 79t113.5 29t113.5 -29t79 -79t44.5 -114t15 -138q0 -156 -64 -258t-188 -102q-64 0 -113.5 29t-79 79t-44.5 114t-15 138zM200 350q0 -198 86 -198t86 198t-86 198t-86 -198z" />
    <glyph glyph-name="one" unicode="1" horiz-adv-x="338" 
d="M12 665l230 35h19q18 0 18 -19v-662q0 -19 -18 -19h-129q-19 0 -19 19v497l-82 -16q-2 -1 -6 -1q-9 0 -12 14l-16 131q-3 18 15 21z" />
    <glyph glyph-name="two" unicode="2" horiz-adv-x="500" 
d="M87 518l-64 97q-9 15 7 27q91 68 198 68q103 0 164 -59t61 -155q0 -73 -31.5 -137.5t-130.5 -195.5h157q18 0 18 -18v-126q0 -19 -18 -19h-413q-18 0 -18 19v19q0 12 7 22l95 128l76.5 100.5t50 70t33.5 61.5t9 50q0 31 -20 54.5t-57 23.5q-46 0 -94 -36q-7 -6 -14 -6
q-9 0 -16 12z" />
    <glyph glyph-name="three" unicode="3" horiz-adv-x="468" 
d="M169 290q-14 0 -14 13v119q0 15 14 15q96 0 96 58q0 24 -16.5 38.5t-42.5 14.5q-52 0 -94 -32q-9 -6 -15 -6q-9 0 -16 12l-62 93q-9 16 8 27q92 68 198 68q88 0 146.5 -52.5t58.5 -130.5q0 -109 -100 -163q51 -20 82.5 -65t31.5 -97q0 -96 -63 -154t-165 -58
q-61 0 -106.5 17t-92.5 51q-17 12 -7 27l62 95q8 12 17 12q7 0 14 -6q41 -34 95 -34q38 0 59.5 18t21.5 49q0 71 -110 71z" />
    <glyph glyph-name="four" unicode="4" horiz-adv-x="531" 
d="M291 19v110h-259q-19 0 -19 19v90l191 441q8 21 29 21h112q23 0 15 -21l-170 -392h104v81q0 19 18 19h114q19 0 19 -19v-92h46q19 0 19 -19v-109q0 -19 -19 -19h-46v-110q0 -19 -19 -19h-116q-19 0 -19 19z" />
    <glyph glyph-name="five" unicode="5" horiz-adv-x="502" 
d="M75 271l-25 17v392q0 20 19 20h349q20 0 20 -19v-118q0 -20 -20 -20h-207v-110q40 14 89 14q83 0 129.5 -58.5t46.5 -154.5q0 -105 -65 -174.5t-181 -69.5q-114 0 -209 60q-17 12 -7 27l64 98q7 11 15 11q5 0 15 -5q45 -29 108 -29q48 0 71.5 21.5t23.5 53.5q0 70 -90 70
q-87 0 -146 -26z" />
    <glyph glyph-name="six" unicode="6" horiz-adv-x="519" 
d="M188 415q58 34 127 34q74 0 125 -56t51 -160q0 -101 -64 -172t-164 -71q-109 0 -171.5 81.5t-62.5 245.5v29q0 185 69 274.5t178 89.5t196 -65q16 -13 8 -27l-60 -91q-8 -11 -15 -11q-5 0 -15 5q-51 31 -100 31q-94 0 -102 -137zM188 275v-10q-1 -62 19 -93.5t53 -31.5
q31 0 50 24t19 60q0 37 -17.5 58.5t-49.5 21.5q-39 0 -74 -29z" />
    <glyph glyph-name="seven" unicode="7" horiz-adv-x="485" 
d="M461 681v-121l-232 -541q-8 -19 -27 -19h-128q-23 0 -16 19l222 519h-228q-19 0 -19 18v125q0 19 19 19h391q18 0 18 -19z" />
    <glyph glyph-name="eight" unicode="8" horiz-adv-x="510" 
d="M41 527q0 76 59 129.5t155 53.5t155 -53.5t59 -129.5q0 -47 -26.5 -86t-69.5 -61q113 -52 113 -178q0 -93 -64.5 -152.5t-166.5 -59.5t-166.5 59.5t-64.5 152.5q0 126 113 178q-43 22 -69.5 61t-26.5 86zM188 500q0 -32 19.5 -51t47.5 -19t47.5 19t19.5 51t-18.5 50.5
t-48.5 18.5t-48.5 -18.5t-18.5 -50.5zM181 216q0 -34 21 -55t53 -21t53 21t21 55q0 35 -20.5 55.5t-53.5 20.5t-53.5 -20.5t-20.5 -55.5z" />
    <glyph glyph-name="nine" unicode="9" horiz-adv-x="519" 
d="M46 55q-16 13 -7 27l59 91q8 11 15 11q6 0 16 -5q51 -31 100 -31q94 0 101 137q-53 -34 -128 -34q-72 0 -123 61t-51 165q0 102 62 167.5t164 65.5q108 0 172 -80t64 -235v-41q0 -185 -69 -274.5t-179 -89.5q-108 0 -196 65zM330 424v11q0 125 -72 125q-32 0 -50 -22.5
t-18 -59.5t17.5 -59.5t48.5 -22.5q40 0 74 28z" />
    <glyph glyph-name="colon" unicode=":" horiz-adv-x="227" 
d="M21 81q0 40 26.5 67t64.5 27q40 0 67 -27t27 -67q0 -38 -27 -64.5t-67 -26.5q-38 0 -64.5 26.5t-26.5 64.5zM21 416q0 39 26.5 66.5t64.5 27.5q39 0 66.5 -27.5t27.5 -66.5q0 -38 -27.5 -64.5t-66.5 -26.5q-38 0 -64.5 26.5t-26.5 64.5z" />
    <glyph glyph-name="semicolon" unicode=";" horiz-adv-x="260" 
d="M20 -140l46 299q2 14 16 14h125q13 0 10 -13l-62 -300q-3 -14 -20 -14h-102q-15 0 -13 14zM54 416q0 39 26.5 66.5t64.5 27.5q39 0 66.5 -27.5t27.5 -66.5q0 -38 -27.5 -64.5t-66.5 -26.5q-38 0 -64.5 26.5t-26.5 64.5z" />
    <glyph glyph-name="less" unicode="&#x3c;" horiz-adv-x="513" 
d="M453 406l-293 -111l293 -111q18 -7 18 -20v-98q0 -18 -13 -18q-3 0 -5 1l-405 151q-18 7 -18 22v147q0 15 18 22l405 151q2 1 5 1q13 0 13 -17v-99q0 -14 -18 -21z" />
    <glyph glyph-name="equal" unicode="=" horiz-adv-x="570" 
d="M72 467h426q18 0 18 -18v-92q0 -19 -18 -19h-426q-18 0 -18 19v92q0 18 18 18zM72 263h426q18 0 18 -19v-91q0 -19 -18 -19h-426q-18 0 -18 19v91q0 19 18 19z" />
    <glyph glyph-name="greater" unicode="&#x3e;" horiz-adv-x="513" 
d="M60 184l293 111l-293 111q-18 7 -18 21v99q0 17 13 17q3 0 5 -1l405 -151q18 -7 18 -22v-147q0 -15 -18 -22l-405 -151q-2 -1 -5 -1q-13 0 -13 18v98q0 13 18 20z" />
    <glyph glyph-name="question" unicode="?" horiz-adv-x="454" 
d="M95 518l-66 104q-9 13 4 25q90 63 187 63q89 0 144.5 -47.5t55.5 -127.5q0 -35 -13.5 -64.5t-33 -51l-39 -42.5t-33 -48.5t-13.5 -59.5v-16q0 -13 -3.5 -18.5t-15.5 -5.5h-125q-17 0 -17 24v16q0 59 20 102t43.5 61.5t43.5 38t20 37.5q0 40 -47 40q-37 0 -87 -34
q-7 -5 -11 -5q-8 0 -14 9zM115 81q0 39 26.5 66t64.5 27q39 0 66 -27t27 -66q0 -38 -27 -64.5t-66 -26.5q-38 0 -64.5 26.5t-26.5 64.5z" />
    <glyph glyph-name="at" unicode="@" horiz-adv-x="996" 
d="M412 253q0 -35 22 -58t55 -23q34 0 56 23.5t22 57.5t-22 58t-56 24q-35 0 -56 -24t-21 -58zM585 93v4q-19 -19 -57 -37.5t-78 -18.5q-80 0 -128.5 63t-48.5 149q0 88 49.5 150.5t127.5 62.5q68 0 116 -57v33q0 16 15 16h107q15 0 15 -15l1 -299q0 -33 18.5 -53.5
t44.5 -20.5q40 0 71.5 46.5t31.5 135.5q0 153 -106.5 263.5t-269.5 110.5q-85 0 -156.5 -33.5t-117 -87.5t-70.5 -119t-25 -131q0 -75 27 -142.5t77.5 -119t129 -82t173.5 -30.5h368q20 0 20 -16v-64q0 -19 -20 -19h-368q-229 0 -367.5 135t-138.5 336q0 196 136.5 334
t331.5 138q196 0 335.5 -137t139.5 -333q0 -146 -61.5 -217.5t-147.5 -71.5q-63 0 -114 36t-61 91z" />
    <glyph glyph-name="A" unicode="A" horiz-adv-x="638" 
d="M156 0h-136q-19 0 -12 19l203 662q4 19 22 19h172q18 0 22 -19l203 -662q4 -8 0.5 -13.5t-12.5 -5.5h-136q-22 0 -26 19l-32 112h-211l-31 -112q-4 -19 -26 -19zM250 285h138l-69 224z" />
    <glyph glyph-name="B" unicode="B" horiz-adv-x="599" 
d="M350 0h-272q-19 0 -19 19v662q0 19 19 19h251q94 0 150.5 -51t56.5 -128q0 -103 -87 -152q58 -17 90 -62.5t32 -111.5q0 -84 -60 -139.5t-161 -55.5zM225 289v-137h85q43 0 66.5 18t23.5 50q0 33 -25 51t-68 18h-82zM225 548v-113h70q34 0 52.5 15t18.5 41q0 57 -75 57
h-66z" />
    <glyph glyph-name="C" unicode="C" horiz-adv-x="627" 
d="M584 630l-68 -104q-8 -10 -18 -10q-6 0 -13 4q-41 28 -100 28q-82 0 -137.5 -58.5t-55.5 -139.5q0 -83 55.5 -140.5t137.5 -57.5q60 0 104 30q5 4 12 4q9 0 15 -10l68 -103q11 -18 -5 -28q-90 -55 -194 -55q-155 0 -257 103t-102 257q0 153 102 256.5t257 103.5
q105 0 191 -53q16 -9 8 -27z" />
    <glyph glyph-name="D" unicode="D" horiz-adv-x="710" 
d="M332 0h-254q-19 0 -19 19v662q0 19 19 19h254q150 0 251 -101t101 -249q0 -145 -101.5 -247.5t-250.5 -102.5zM225 538v-376h101q80 0 136 53t56 134q0 84 -56 136.5t-136 52.5h-101z" />
    <glyph glyph-name="E" unicode="E" horiz-adv-x="538" 
d="M78 700h403q18 0 18 -19v-125q0 -18 -18 -18h-256v-109h221q18 0 18 -19v-120q0 -19 -18 -19h-221v-109h257q19 0 19 -18v-125q0 -19 -19 -19h-404q-19 0 -19 19v662q0 19 19 19z" />
    <glyph glyph-name="F" unicode="F" horiz-adv-x="540" 
d="M207 0h-129q-19 0 -19 19v662q0 19 19 19h432q19 0 19 -19v-125q0 -18 -19 -18h-285v-132h245q19 0 19 -19v-120q0 -19 -19 -19h-245v-229q0 -19 -18 -19z" />
    <glyph glyph-name="G" unicode="G" horiz-adv-x="684" 
d="M467 168v86h-84q-19 0 -19 18v101q0 18 19 18h227q19 0 19 -18v-307q0 -15 -14 -23q-101 -53 -230 -53q-155 0 -257 103.5t-102 256.5q0 156 102 258t258 102q106 0 202 -60q19 -9 8 -27l-68 -103q-7 -12 -17 -12q-5 0 -14 6q-49 34 -112 34q-84 0 -138.5 -58.5
t-54.5 -139.5q0 -82 56 -140t137 -58q49 0 82 16z" />
    <glyph glyph-name="H" unicode="H" horiz-adv-x="684" 
d="M207 0h-129q-19 0 -19 19v662q0 19 19 19h129q18 0 18 -19v-244h233v244q0 19 19 19h129q19 0 19 -19v-662q0 -19 -19 -19h-129q-19 0 -19 19v251h-233v-251q0 -19 -18 -19z" />
    <glyph glyph-name="I" unicode="I" horiz-adv-x="284" 
d="M207 0h-129q-19 0 -19 19v662q0 19 19 19h129q18 0 18 -19v-662q0 -19 -18 -19z" />
    <glyph glyph-name="J" unicode="J" horiz-adv-x="490" 
d="M431 681v-452q0 -100 -62.5 -169.5t-167.5 -69.5q-102 0 -175 56q-14 12 -6 27l62 100q6 7 13 7q6 0 14 -5q37 -23 78 -23q37 0 57 26.5t20 67.5v435q0 19 19 19h129q19 0 19 -19z" />
    <glyph glyph-name="K" unicode="K" horiz-adv-x="678" 
d="M656 0h-156q-21 0 -34 19l-175 265l-66 -73v-192q0 -19 -18 -19h-129q-19 0 -19 19v662q0 19 19 19h129q18 0 18 -19v-245l214 246q15 18 37 18h168q19 0 5 -19l-237 -278l254 -384q5 -8 2.5 -13.5t-12.5 -5.5z" />
    <glyph glyph-name="L" unicode="L" horiz-adv-x="481" 
d="M441 0h-363q-19 0 -19 19v662q0 19 19 19h129q18 0 18 -19v-519h216q18 0 18 -18v-125q0 -19 -18 -19z" />
    <glyph glyph-name="M" unicode="M" horiz-adv-x="885" 
d="M480 94h-74q-18 0 -25 18l-156 327v-420q0 -19 -18 -19h-129q-19 0 -19 19v662q0 19 19 19h172q21 0 29 -18l164 -345l164 345q8 18 28 18h173q18 0 18 -19v-662q0 -19 -18 -19h-130q-18 0 -18 19v420l-155 -327q-11 -18 -25 -18z" />
    <glyph glyph-name="N" unicode="N" horiz-adv-x="748" 
d="M670 0h-130q-19 0 -32 19l-283 393v-393q0 -19 -18 -19h-129q-19 0 -19 19v662q0 19 19 19h130q19 0 32 -19l283 -393v393q0 19 18 19h129q19 0 19 -19v-662q0 -19 -19 -19z" />
    <glyph glyph-name="O" unicode="O" horiz-adv-x="772" 
d="M385 710q152 0 256.5 -104.5t104.5 -255.5t-104.5 -255.5t-256.5 -104.5t-255.5 103.5t-103.5 256.5q0 152 103.5 256t255.5 104zM385 152q83 0 139 58t56 140q0 81 -56.5 139.5t-138.5 58.5t-137.5 -58.5t-55.5 -139.5q0 -83 55.5 -140.5t137.5 -57.5z" />
    <glyph glyph-name="P" unicode="P" horiz-adv-x="589" 
d="M207 0h-129q-19 0 -19 19v662q0 19 19 19h260q105 0 167 -68t62 -168q0 -94 -65.5 -166t-163.5 -72h-113v-207q0 -19 -18 -19zM225 550v-173h73q49 0 75.5 22.5t26.5 64.5t-26.5 64t-75.5 22h-73z" />
    <glyph glyph-name="Q" unicode="Q" horiz-adv-x="772" 
d="M569 -152l-88 156q-56 -14 -96 -14q-152 0 -255.5 103.5t-103.5 256.5q0 152 103.5 256t255.5 104t256.5 -104.5t104.5 -255.5q0 -162 -121 -269l87 -154q7 -16 -5 -25l-110 -58q-10 -5 -15 -5q-8 0 -13 9zM385 152q81 0 138 58t57 140q0 81 -56.5 139.5t-138.5 58.5
t-137.5 -58.5t-55.5 -139.5q0 -83 55.5 -140.5t137.5 -57.5z" />
    <glyph glyph-name="R" unicode="R" horiz-adv-x="598" 
d="M299 550h-74v-172h74q50 0 76 23t26 63t-26 63t-76 23zM437 254l145 -235q12 -19 -10 -19h-143q-22 0 -32 19l-130 209h-42v-209q0 -19 -18 -19h-129q-19 0 -19 19v662q0 19 19 19h261q103 0 166.5 -68t63.5 -168q0 -78 -42 -133.5t-90 -76.5z" />
    <glyph glyph-name="S" unicode="S" horiz-adv-x="536" 
d="M474 627l-66 -99q-4 -9 -16 -9q-6 0 -13 4q-49 28 -108 28q-28 0 -46 -12t-18 -33q0 -17 16.5 -31t42.5 -24.5l58 -22.5t64 -30t58 -42t42.5 -62.5t16.5 -87.5q0 -37 -14 -73.5t-42 -69t-77 -53t-111 -20.5q-116 0 -225 82q-14 13 -6 26l65 99q7 9 16 9q6 0 13 -5
q70 -52 139 -52q38 0 56.5 15t18.5 39q0 27 -30.5 46t-74 35.5t-87.5 39.5t-74.5 69t-30.5 112q0 91 68 148t170 57q96 0 188 -56q16 -10 7 -27z" />
    <glyph glyph-name="T" unicode="T" horiz-adv-x="574" 
d="M351 0h-129q-18 0 -18 19v519h-169q-19 0 -19 18v125q0 19 19 19h504q19 0 19 -19v-125q0 -18 -19 -18h-169v-519q0 -19 -19 -19z" />
    <glyph glyph-name="U" unicode="U" horiz-adv-x="694" 
d="M75 700h129q18 0 18 -19v-374q0 -155 125 -155t125 155v374q0 19 19 19h129q18 0 18 -19v-405q0 -127 -80 -206.5t-211 -79.5q-132 0 -211.5 79.5t-79.5 206.5v405q0 19 19 19z" />
    <glyph glyph-name="V" unicode="V" horiz-adv-x="636" 
d="M400 0h-164q-21 0 -26 20l-203 661q-5 19 12 19h136q22 0 26 -19l137 -453l137 453q4 19 26 19h136q9 0 12.5 -5.5t-0.5 -13.5l-203 -661q-5 -20 -26 -20z" />
    <glyph glyph-name="W" unicode="W" horiz-adv-x="960" 
d="M772 0h-159q-22 0 -26 19l-107 424l-107 -424q-3 -19 -25 -19h-159q-19 0 -23 19l-158 662q-5 19 12 19h144q19 0 24 -19l90 -416l108 422q4 13 19 13h151q15 0 18 -13l109 -422l89 416q5 19 24 19h144q17 0 12 -19l-157 -662q-4 -19 -23 -19z" />
    <glyph glyph-name="X" unicode="X" horiz-adv-x="662" 
d="M219 684l111 -188l111 188q10 16 31 16h167q19 0 6 -19l-219 -329l227 -333q6 -8 3 -13.5t-12 -5.5h-173q-22 0 -33 18l-108 191l-116 -191q-11 -18 -33 -18h-164q-9 0 -11.5 5.5t2.5 13.5l227 333l-219 329q-6 7 -4.5 13t10.5 6h166q21 0 31 -16z" />
    <glyph glyph-name="Y" unicode="Y" horiz-adv-x="619" 
d="M183 689l127 -208l126 208q6 11 20 11h149q7 0 9 -6.5t-3 -12.5l-218 -343v-319q0 -19 -18 -19h-130q-18 0 -18 19v319l-219 343q-5 6 -3 12.5t9 6.5h149q14 0 20 -11z" />
    <glyph glyph-name="Z" unicode="Z" horiz-adv-x="594" 
d="M38 19v97q0 20 18 45l272 377h-256q-19 0 -19 18v125q0 19 19 19h456q19 0 19 -19v-109q0 -15 -6 -23l-280 -387h276q19 0 19 -18v-125q0 -19 -19 -19h-480q-19 0 -19 19z" />
    <glyph glyph-name="bracketleft" unicode="[" horiz-adv-x="319" 
d="M271 -130h-196q-21 0 -21 21v838q0 21 21 21h196q18 0 18 -19v-94q0 -19 -18 -19h-81v-616h81q18 0 18 -19v-94q0 -19 -18 -19z" />
    <glyph glyph-name="backslash" unicode="\" horiz-adv-x="572" 
d="M159 682l383 -664q5 -8 1 -13t-13 -5h-93q-13 0 -24 18l-383 664q-5 8 -1 13t13 5h93q13 0 24 -18z" />
    <glyph glyph-name="bracketright" unicode="]" horiz-adv-x="319" 
d="M244 -130h-196q-18 0 -18 19v94q0 19 18 19h81v616h-81q-18 0 -18 19v94q0 19 18 19h196q21 0 21 -21v-838q0 -21 -21 -21z" />
    <glyph glyph-name="asciicircum" unicode="^" horiz-adv-x="585" 
d="M414 320l-122 249l-122 -249q-8 -18 -20 -18h-105q-11 0 -16.5 5t-0.5 13l180 362q1 1 2 3.5t2 4t2 3.5t2.5 3l3 2t3.5 1.5t4 0.5h132q11 0 22 -18l176 -362q4 -8 -1.5 -13t-15.5 -5h-105q-11 0 -21 18z" />
    <glyph glyph-name="underscore" unicode="_" horiz-adv-x="605" 
d="M68 -45h469q18 0 18 -19v-126q0 -18 -18 -18h-469q-18 0 -18 18v126q0 19 18 19z" />
    <glyph glyph-name="grave" unicode="`" horiz-adv-x="263" 
d="M221 577l-68 -30q-6 -2 -9 -2q-8 0 -14 8l-94 149q-13 15 8 22l101 35q2 1 7 1q12 0 16 -13l61 -147q6 -17 -8 -23z" />
    <glyph glyph-name="a" unicode="a" horiz-adv-x="597" 
d="M186 250q0 -45 28 -74.5t70 -29.5t70.5 30t28.5 74t-28.5 74t-70.5 30t-70 -29.5t-28 -74.5zM525 0h-127q-19 0 -19 19v40q-63 -69 -141 -69q-96 0 -156.5 75.5t-60.5 184.5t60.5 184.5t156.5 75.5q76 0 141 -69v40q0 19 19 19h127q18 0 18 -19v-462q0 -19 -18 -19z" />
    <glyph glyph-name="b" unicode="b" horiz-adv-x="597" 
d="M412 250q0 45 -28.5 74.5t-70.5 29.5t-70 -29.5t-28 -74.5t28 -74.5t70 -29.5t70.5 29.5t28.5 74.5zM199 0h-126q-19 0 -19 19v712q0 19 19 19h126q19 0 19 -19v-290q52 69 142 69q95 0 155.5 -75.5t60.5 -184.5q0 -110 -60 -185t-156 -75q-86 0 -142 69v-40
q0 -19 -19 -19z" />
    <glyph glyph-name="c" unicode="c" horiz-adv-x="470" 
d="M368 159l70 -99q10 -15 -6 -25q-70 -45 -153 -45q-108 0 -183 76t-75 184t75 184t183 76q81 0 153 -47q16 -13 5 -27l-70 -96q-5 -8 -14 -8q-5 0 -11 3q-30 19 -63 19q-42 0 -70 -29.5t-28 -74.5t28 -74.5t70 -29.5q34 0 66 17q6 3 11 3q8 0 12 -7z" />
    <glyph glyph-name="d" unicode="d" horiz-adv-x="597" 
d="M186 250q0 -45 28 -74.5t70 -29.5t70.5 30t28.5 74t-28.5 74t-70.5 30t-70 -30t-28 -74zM525 0h-127q-19 0 -19 19v40q-56 -69 -141 -69q-96 0 -156.5 75t-60.5 185q0 109 60.5 184.5t156.5 75.5q89 0 141 -69v290q0 19 19 19h127q18 0 18 -19v-712q0 -19 -18 -19z" />
    <glyph glyph-name="e" unicode="e" horiz-adv-x="538" 
d="M285 127q55 0 107 24q6 3 11 3q6 0 15 -9l57 -80q12 -14 -5 -24q-86 -51 -190 -51q-106 0 -182.5 77t-76.5 183q0 104 70 182t176 78q117 0 183.5 -83.5t66.5 -209.5q0 -20 -20 -20h-319q10 -30 39 -50t68 -20zM178 312h180q-20 73 -91 73q-34 0 -57 -20.5t-32 -52.5z
" />
    <glyph glyph-name="f" unicode="f" horiz-adv-x="415" 
d="M424 685l-53 -92q-3 -5 -9 -5q-1 0 -7 2q-30 14 -51 14q-46 0 -46 -55v-49h87q18 0 18 -19v-112q0 -19 -18 -19h-87v-331q0 -19 -19 -19h-127q-18 0 -18 19v331h-51q-18 0 -18 19v112q0 19 18 19h51v89q0 78 46.5 124.5t127.5 46.5t152 -52q11 -8 4 -23z" />
    <glyph glyph-name="g" unicode="g" horiz-adv-x="597" 
d="M186 252q0 -44 27.5 -71t70.5 -27t71 27t28 71q0 45 -28.5 73.5t-70.5 28.5t-70 -28.5t-28 -73.5zM543 481v-448q0 -126 -80 -207t-206 -81q-58 0 -112 22t-88 57q-12 10 -1 24l64 87q8 8 15 8q5 0 9 -4q41 -38 108 -38q64 0 95.5 34t31.5 81v51q-63 -69 -142 -69
q-96 0 -156 72.5t-60 181.5q0 110 60 184t156 74q77 0 142 -69v40q0 19 19 19h127q18 0 18 -19z" />
    <glyph glyph-name="h" unicode="h" 
d="M199 0h-126q-19 0 -19 19v712q0 19 19 19h126q19 0 19 -19v-290q58 69 148 69t139 -57.5t49 -165.5v-268q0 -19 -19 -19h-127q-18 0 -18 19v235q0 44 -21.5 72t-62.5 28q-35 0 -61.5 -28.5t-26.5 -61.5v-245q0 -19 -19 -19z" />
    <glyph glyph-name="i" unicode="i" horiz-adv-x="282" 
d="M204 0h-126q-19 0 -19 19v462q0 19 19 19h126q19 0 19 -19v-462q0 -19 -19 -19zM49 671q0 40 26 67t64 27q40 0 67 -27t27 -67q0 -38 -27 -64t-67 -26q-38 0 -64 26t-26 64z" />
    <glyph glyph-name="j" unicode="j" horiz-adv-x="294" 
d="M-87 -196l48 102q5 9 12 9q2 0 8 -2q19 -11 42 -11q44 0 44 56v523q0 19 19 19h126q19 0 19 -19v-556q0 -77 -51 -128.5t-134 -51.5q-65 0 -126 36q-14 8 -7 23zM57 671q0 39 26 66.5t64 27.5q39 0 66.5 -27.5t27.5 -66.5q0 -38 -27.5 -64t-66.5 -26q-38 0 -64 26t-26 64
z" />
    <glyph glyph-name="k" unicode="k" horiz-adv-x="555" 
d="M358 18l-102 162l-38 -44v-117q0 -19 -19 -19h-126q-19 0 -19 19v712q0 19 19 19h126q19 0 19 -19v-391l124 145q12 15 33 15h152q8 0 9.5 -6.5t-4.5 -12.5l-152 -193l162 -269q12 -19 -4 -19h-144q-23 0 -36 18z" />
    <glyph glyph-name="l" unicode="l" horiz-adv-x="272" 
d="M199 0h-126q-19 0 -19 19v712q0 19 19 19h126q19 0 19 -19v-712q0 -19 -19 -19z" />
    <glyph glyph-name="m" unicode="m" horiz-adv-x="920" 
d="M73 500h126q19 0 19 -19v-42q58 71 145 71q91 0 143 -77q88 77 185 77q86 0 134 -57.5t48 -165.5v-268q0 -19 -18 -19h-127q-19 0 -19 19v235q0 45 -19.5 72.5t-58.5 27.5q-33 0 -59 -27t-26 -60v-248q0 -19 -19 -19h-127q-18 0 -18 19v235q0 45 -20 72.5t-59 27.5
q-33 0 -59 -27t-26 -60v-248q0 -19 -19 -19h-126q-19 0 -19 19v462q0 19 19 19z" />
    <glyph glyph-name="n" unicode="n" 
d="M535 0h-127q-18 0 -18 19v235q0 44 -21.5 72t-62.5 28q-35 0 -61.5 -27t-26.5 -60v-248q0 -19 -19 -19h-126q-19 0 -19 19v462q0 19 19 19h126q19 0 19 -19v-46q60 75 148 75q90 0 139 -57.5t49 -165.5v-268q0 -19 -19 -19z" />
    <glyph glyph-name="o" unicode="o" horiz-adv-x="559" 
d="M21 250q0 108 75 184t183 76t183.5 -76t75.5 -184t-75.5 -184t-183.5 -76t-183 76t-75 184zM181 250q0 -45 28 -74.5t70 -29.5t70.5 30t28.5 74t-28.5 74t-70.5 30t-70 -29.5t-28 -74.5z" />
    <glyph glyph-name="p" unicode="p" horiz-adv-x="597" 
d="M412 250q0 45 -28.5 74.5t-70.5 29.5t-70 -29.5t-28 -74.5t28 -74.5t70 -29.5t70.5 29.5t28.5 74.5zM73 500h126q19 0 19 -19v-40q65 69 142 69q95 0 155.5 -75.5t60.5 -184.5t-60.5 -184.5t-155.5 -75.5q-79 0 -142 69v-290q0 -19 -19 -19h-126q-19 0 -19 19v712
q0 19 19 19z" />
    <glyph glyph-name="q" unicode="q" horiz-adv-x="597" 
d="M186 250q0 -45 28 -74.5t70 -29.5t70.5 30t28.5 74t-28.5 74t-70.5 30t-70 -29.5t-28 -74.5zM398 500h127q18 0 18 -19v-712q0 -19 -18 -19h-127q-19 0 -19 19v296q-58 -75 -141 -75q-96 0 -156.5 75.5t-60.5 184.5t60.5 184.5t156.5 75.5q76 0 141 -69v40q0 19 19 19z
" />
    <glyph glyph-name="r" unicode="r" horiz-adv-x="427" 
d="M73 500h126q19 0 19 -19v-54h1q15 33 48.5 58t73.5 25q50 0 78 -17q11 -7 6 -28l-34 -117q-5 -9 -14 -9q-6 0 -10 2q-21 8 -44 8q-46 0 -75.5 -32.5t-29.5 -90.5v-207q0 -19 -19 -19h-126q-19 0 -19 19v462q0 19 19 19z" />
    <glyph glyph-name="s" unicode="s" horiz-adv-x="438" 
d="M121 167q53 -41 99 -41q43 0 43 24q0 14 -23.5 25t-56.5 23t-66.5 28.5t-57 50.5t-23.5 81q0 66 53.5 109t132.5 43q103 0 166 -61q11 -13 -2 -26l-64 -69q-7 -7 -14 -7q-6 0 -14 5q-40 23 -71 23q-37 0 -37 -17q0 -11 23.5 -21t57 -22t66.5 -29.5t56.5 -52.5t23.5 -83
q0 -67 -53.5 -113.5t-142.5 -46.5q-115 0 -190 81q-13 15 3 31l60 65q7 7 15 7q9 0 16 -7z" />
    <glyph glyph-name="t" unicode="t" horiz-adv-x="434" 
d="M361 153l49 -103q5 -15 -8 -23q-65 -37 -138 -37q-85 0 -130.5 46t-45.5 131v183h-42q-19 0 -19 19v112q0 19 19 19h42v129q0 19 18 19h127q19 0 19 -19v-129h111q19 0 19 -19v-112q0 -19 -19 -19h-111v-161q0 -43 42 -43q22 0 48 13q3 1 7 1q8 0 12 -7z" />
    <glyph glyph-name="u" unicode="u" 
d="M66 500h126q19 0 19 -19v-235q0 -45 21 -72.5t63 -27.5q35 0 61.5 27t26.5 60v248q0 19 18 19h127q19 0 19 -19v-462q0 -19 -19 -19h-127q-18 0 -18 19v46q-60 -75 -148 -75q-90 0 -139 57.5t-49 165.5v268q0 19 19 19z" />
    <glyph glyph-name="v" unicode="v" horiz-adv-x="525" 
d="M168 481l94 -260l95 260q6 19 20 19h131q19 0 12 -19l-167 -461q-7 -20 -21 -20h-139q-14 0 -21 20l-167 461q-4 8 -0.5 13.5t11.5 5.5h131q14 0 21 -19z" />
    <glyph glyph-name="w" unicode="w" horiz-adv-x="747" 
d="M164 481l56 -274l31 136l32 138q3 19 21 19h138q18 0 22 -19l62 -274l57 274q3 19 20 19h127q18 0 12 -19l-101 -461q-7 -20 -22 -20h-163q-19 0 -24 20l-59 286l-59 -286q-5 -20 -23 -20h-164q-16 0 -21 20q-27 116 -51 231l-51 230q-3 19 12 19h127q17 0 21 -19z" />
    <glyph glyph-name="x" unicode="x" horiz-adv-x="507" 
d="M323 15l-69 126l-70 -126q-8 -15 -28 -15h-137q-8 0 -10 6t3 13l143 232l-143 230q-4 6 -1.5 12.5t10.5 6.5h136q19 0 28 -15l68 -126l69 126q10 15 28 15h136q8 0 10.5 -6.5t-1.5 -12.5l-143 -231l143 -231q5 -7 3 -13t-10 -6h-137q-21 0 -28 15z" />
    <glyph glyph-name="y" unicode="y" 
d="M547 481v-447q0 -127 -78 -208t-203 -81q-59 0 -112.5 23t-85.5 59q-11 11 -1 24l65 87q6 9 13 9q5 0 10 -5q39 -41 107 -41q63 0 92 34t29 82v49q-16 -27 -59.5 -46.5t-88.5 -19.5q-90 0 -138.5 57.5t-48.5 165.5v258q0 19 18 19h127q19 0 19 -19v-225q0 -44 21 -72
t62 -28t64.5 25t23.5 62v238q0 19 19 19h127q18 0 18 -19z" />
    <glyph glyph-name="z" unicode="z" horiz-adv-x="460" 
d="M26 19v62q0 25 18 47l167 226h-154q-18 0 -18 18v109q0 19 18 19h347q19 0 19 -19v-60q0 -31 -18 -54l-163 -221h173q19 0 19 -18v-109q0 -19 -19 -19h-370q-19 0 -19 19z" />
    <glyph glyph-name="braceleft" unicode="{" horiz-adv-x="348" 
d="M38 241q-18 0 -18 18v85q0 18 18 18q59 0 59 91v141q0 54 33 80t90 26h80q18 0 18 -19v-54q0 -19 -18 -19h-24q-39 0 -39 -44v-111q0 -58 -21.5 -105t-63.5 -47q30 0 50.5 -27.5t27.5 -61t7 -69.5v-104q0 -19 10.5 -30.5t28.5 -11.5h24q18 0 18 -19v-54q0 -19 -18 -19
h-80q-60 0 -91.5 32t-31.5 90v116q0 98 -59 98z" />
    <glyph glyph-name="bar" unicode="|" horiz-adv-x="271" 
d="M217 702v-868q0 -18 -18 -18h-126q-19 0 -19 18v868q0 18 19 18h126q18 0 18 -18z" />
    <glyph glyph-name="braceright" unicode="}" horiz-adv-x="348" 
d="M310 241q-59 0 -59 -98v-116q0 -58 -31.5 -90t-91.5 -32h-80q-18 0 -18 19v54q0 19 18 19h24q18 0 28.5 11.5t10.5 30.5v104q0 36 7 69.5t27.5 61t50.5 27.5q-42 0 -63.5 47t-21.5 105v111q0 44 -39 44h-24q-18 0 -18 19v54q0 19 18 19h80q57 0 90 -26t33 -80v-141
q0 -91 59 -91q18 0 18 -18v-85q0 -18 -18 -18z" />
    <glyph glyph-name="asciitilde" unicode="~" horiz-adv-x="607" 
d="M131 193q-5 -8 -14 -8q-6 0 -11 5l-56 42q-14 11 -3 26q65 112 149 112q2 0 6.5 -0.5t7.5 -0.5q30 -2 99.5 -34t100.5 -32q5 0 10 1t9.5 3t7.5 3.5t7 5t6.5 5.5t6.5 7t5.5 7.5t6 8t5.5 7.5q5 8 14 8q7 0 12 -5l55 -41q15 -10 5 -26q-1 -1 -12.5 -15.5t-14 -18
t-13.5 -16.5t-16.5 -17t-16 -14t-18.5 -13.5t-19 -9t-22.5 -7.5t-23.5 -2q-38 0 -100 32t-96 32q-48 0 -77 -45z" />
    <glyph glyph-name="exclamdown" unicode="&#xa1;" horiz-adv-x="272" 
d="M81 268h110q19 0 19 -19l10 -434q0 -18 -19 -18h-129q-19 0 -19 18l10 434q0 19 18 19zM44 415q0 39 26.5 65.5t64.5 26.5q39 0 66 -26.5t27 -65.5t-27 -65.5t-66 -26.5q-38 0 -64.5 26.5t-26.5 65.5z" />
    <glyph glyph-name="cent" unicode="&#xa2;" horiz-adv-x="502" 
d="M344 -5v-178q0 -18 -19 -18h-55q-18 0 -18 18v177q-92 18 -151.5 89.5t-59.5 166.5t59.5 166.5t151.5 89.5v179q0 18 18 18h55q19 0 19 -18v-180q62 -10 108 -42q16 -13 5 -27l-70 -96q-5 -8 -14 -8q-5 0 -11 3q-30 19 -63 19q-42 0 -70 -29.5t-28 -74.5t28 -74.5
t70 -29.5q34 0 66 17q6 3 11 3q8 0 12 -7l70 -99q10 -15 -6 -25q-46 -30 -108 -40z" />
    <glyph glyph-name="sterling" unicode="&#xa3;" horiz-adv-x="517" 
d="M490 126v-92q0 -19 -15 -28q-41 -21 -94 -21q-39 0 -118 13.5t-114 13.5q-36 0 -65 -10q-6 -2 -8 -2q-9 0 -9 14v265h-42q-17 0 -17 19v63q0 19 17 19h42q0 103 20 164.5t82 110.5q59 45 143 45q77 0 165 -37q12 -5 12 -22l-29 -84l-2 -2q-1 -2 -2.5 -4t-4.5 -4t-7 -2
t-7 1q-68 27 -118 27q-34 0 -58 -12t-36.5 -28t-19 -45t-8 -51t-1.5 -57h154q17 0 17 -19v-63q0 -19 -17 -19h-154v-149h15q34 0 94 -10t86 -10q45 0 81 21q7 4 12 4q6 0 6 -9z" />
    <glyph glyph-name="currency" unicode="&#xa4;" horiz-adv-x="552" 
d="M198 320q0 -32 22.5 -54.5t54.5 -22.5t55 22.5t23 54.5t-23 55t-55 23t-54.5 -23t-22.5 -55zM435 81l-59 57q-42 -27 -100 -27q-60 0 -102 27l-58 -59q-7 -5 -12 -5q-6 0 -14 6l-56 55q-14 12 0 26l60 59q-27 45 -27 100q0 53 27 102l-61 60q-13 13 0 26l56 55q7 7 13 7
q7 0 13 -7l61 -60q46 26 100 26q55 0 101 -28l60 59q6 7 13 7t13 -7l56 -55q13 -12 0 -25l-61 -61q27 -42 27 -99q0 -50 -27 -99l57 -60q13 -13 0 -27l-54 -52q-7 -7 -13 -7q-7 0 -13 6z" />
    <glyph glyph-name="yen" unicode="&#xa5;" horiz-adv-x="631" 
d="M233 19v117h-154q-19 0 -19 19v92q0 18 19 18h154v73h-154q-19 0 -19 19v91q0 19 19 19h73l-138 214q-5 6 -3 12.5t9 6.5h149q14 0 20 -11l127 -208l126 208q6 11 20 11h149q7 0 9 -6.5t-3 -12.5l-137 -214h72q18 0 18 -19v-91q0 -19 -18 -19h-153v-73h153q18 0 18 -18
v-92q0 -19 -18 -19h-153v-117q0 -19 -18 -19h-130q-18 0 -18 19z" />
    <glyph glyph-name="brokenbar" unicode="&#xa6;" horiz-adv-x="271" 
d="M217 703v-388q0 -18 -18 -18h-126q-19 0 -19 18v388q0 18 19 18h126q18 0 18 -18zM217 219v-388q0 -18 -18 -18h-126q-19 0 -19 18v388q0 18 19 18h126q18 0 18 -18z" />
    <glyph glyph-name="section" unicode="&#xa7;" horiz-adv-x="536" 
d="M461 78q44 -52 44 -136q0 -37 -14 -73.5t-42 -69t-77 -53t-111 -20.5q-116 0 -225 82q-14 12 -6 26l65 99q7 9 16 9q6 0 13 -5q63 -49 139 -49q75 0 75 51q0 27 -30.5 47t-74 37t-87.5 40t-74.5 68.5t-30.5 109.5q0 73 50 130q-50 53 -50 134q0 91 68 148t170 57
q97 0 188 -56q16 -10 7 -27l-70 -105q-4 -9 -15 -9q-7 0 -14 4q-52 31 -107 31q-27 0 -44 -11t-17 -31q0 -21 22 -37.5t55 -28t72 -30.5t72 -41.5t55 -65t22 -97.5q0 -70 -44 -128zM319 166q19 13 19 37q0 16 -9.5 28.5t-19.5 18t-32 15.5t-30 15q-40 -16 -40 -38
q1 -21 17.5 -33.5t49.5 -24t45 -18.5z" />
    <glyph glyph-name="dieresis" unicode="&#xa8;" horiz-adv-x="448" 
d="M21 571q0 37 25 62.5t61 25.5q37 0 62.5 -25.5t25.5 -62.5q0 -36 -25.5 -61t-62.5 -25q-36 0 -61 25t-25 61zM252 571q0 37 24.5 62.5t61.5 25.5q38 0 63.5 -25.5t25.5 -62.5q0 -36 -25.5 -61t-63.5 -25q-37 0 -61.5 25t-24.5 61z" />
    <glyph glyph-name="copyright" unicode="&#xa9;" horiz-adv-x="823" 
d="M414 765q159 0 271 -115.5t112 -277.5q0 -160 -110 -274.5t-273 -114.5q-160 0 -274 115t-114 274q0 162 113.5 277.5t274.5 115.5zM414 34q84 0 159 39t124 117.5t49 181.5q0 138 -94 240t-238 102q-134 0 -235.5 -98.5t-101.5 -243.5q0 -135 98 -236.5t239 -101.5z
M522 206q-45 -27 -100 -27q-80 0 -136 56.5t-56 136.5t56 136.5t136 56.5q60 0 99 -27q14 -9 5 -21l-25 -35q-6 -8 -14 -8q-5 0 -9 3q-25 13 -56 13q-52 0 -85.5 -34.5t-33.5 -84.5q0 -49 34.5 -84t84.5 -35q27 0 57 15q6 3 10 3q6 0 12 -7l26 -36q5 -5 3 -11.5t-8 -9.5z
" />
    <glyph glyph-name="guillemotleft" unicode="&#xab;" horiz-adv-x="578" 
d="M540 407l-121 -178l119 -177q5 -7 2.5 -12.5t-10.5 -5.5h-121q-12 0 -26 18l-114 166l-3 7q-2 8 3 14l114 168q14 18 26 18h122q9 0 11.5 -5.5t-2.5 -12.5zM296 407l-121 -178l120 -177q5 -7 2.5 -12.5t-11.5 -5.5h-121q-12 0 -26 18l-113 166l-3 7q-2 8 3 14l113 168
q14 18 26 18h123q9 0 11 -5.5t-3 -12.5z" />
    <glyph glyph-name="logicalnot" unicode="&#xac;" horiz-adv-x="586" 
d="M513 10h-104q-18 0 -18 19v165h-331q-18 0 -18 19v103q0 19 18 19h472v-306q0 -19 -19 -19z" />
    <glyph glyph-name="uni00AD" unicode="&#xad;" horiz-adv-x="407" 
d="M68 322h271q18 0 18 -19v-126q0 -18 -18 -18h-271q-18 0 -18 18v126q0 19 18 19z" />
    <glyph glyph-name="registered" unicode="&#xae;" horiz-adv-x="823" 
d="M414 765q159 0 271 -115.5t112 -277.5q0 -160 -110 -274.5t-273 -114.5q-160 0 -274 115t-114 274q0 162 113.5 277.5t274.5 115.5zM414 34q84 0 159 39t124 117.5t49 181.5q0 138 -94 240t-238 102q-134 0 -235.5 -98.5t-101.5 -243.5q0 -135 98 -236.5t239 -101.5z
M421 526h-82v-127h82q29 0 47 18.5t18 45.5t-18 45t-47 18zM468 334l103 -154q2 -3 2.5 -5.5t-1 -4.5t-4.5 -2h-59q-10 0 -19 12l-100 146h-51v-145q0 -13 -12 -13h-48q-12 0 -12 13v405q0 12 12 12h142q58 0 98 -39.5t40 -95.5q0 -48 -26.5 -82t-64.5 -47z" />
    <glyph glyph-name="degree" unicode="&#xb0;" horiz-adv-x="394" 
d="M21 526q0 72 52 124t124 52t124 -52t52 -124t-52 -124t-124 -52t-124 52t-52 124zM121 526q0 -33 21.5 -54.5t54.5 -21.5t55.5 21.5t22.5 54.5t-22.5 55.5t-55.5 22.5t-54.5 -22.5t-21.5 -55.5z" />
    <glyph glyph-name="plusminus" unicode="&#xb1;" horiz-adv-x="531" 
d="M52 154h427q18 0 18 -18v-103q0 -19 -18 -19h-427q-18 0 -18 19v103q0 18 18 18zM469 364h-130v-134q0 -18 -19 -18h-104q-18 0 -18 18v134h-133q-19 0 -19 18v104q0 18 19 18h133v130q0 19 18 19h104q19 0 19 -19v-130h130q19 0 19 -18v-104q0 -18 -19 -18z" />
    <glyph glyph-name="twosuperior" unicode="&#xb2;" horiz-adv-x="278" 
d="M166 546h57q9 0 9 -8v-69q0 -9 -9 -9h-186q-8 0 -8 9v9q0 5 3 11q78 104 88 123.5t10 35.5q0 28 -22 28q-16 0 -30 -11q-4 -2 -6 -2q-3 0 -8 5l-33 52q-6 8 3 12q37 28 85 28q47 0 73.5 -25.5t26.5 -68.5q0 -58 -53 -120z" />
    <glyph glyph-name="threesuperior" unicode="&#xb3;" horiz-adv-x="255" 
d="M94 582q-6 0 -6 6v43q0 7 6 7q40 0 40 21q0 18 -21 18q-12 0 -32 -9q-3 -2 -7 -2q-2 0 -7 5l-33 49q-5 8 4 13q43 27 85 27q41 0 66 -22t25 -55q0 -43 -45 -71q50 -18 50 -67q0 -41 -28 -66.5t-75 -25.5q-42 0 -83 27q-9 6 -3 13l34 52q2 5 7 5t7 -2q19 -12 35 -12
q26 0 26 21q0 25 -45 25z" />
    <glyph glyph-name="acute" unicode="&#xb4;" horiz-adv-x="263" 
d="M110 547l-68 30q-14 6 -8 23l61 147q3 13 15 13q5 0 7 -1l102 -35q18 -6 8 -22l-94 -149q-6 -8 -14 -8q-3 0 -9 2z" />
    <glyph glyph-name="mu" unicode="&#xb5;" 
d="M211 10v-241q0 -19 -19 -19h-126q-19 0 -19 19v712q0 19 19 19h126q19 0 19 -19v-235q0 -44 21.5 -72t62.5 -28q35 0 61.5 28.5t26.5 61.5v245q0 19 18 19h127q19 0 19 -19v-462q0 -19 -19 -19h-127q-18 0 -18 19v40q-38 -48 -84 -56q-15 -4 -34 -4q-30 0 -54 11z" />
    <glyph glyph-name="paragraph" unicode="&#xb6;" horiz-adv-x="679" 
d="M445 -214v767h-84v-767q0 -18 -19 -18h-91q-19 0 -19 18v492q-83 0 -142.5 59.5t-59.5 142.5t59.5 142.5t142.5 59.5h397q18 0 18 -19v-91q0 -19 -18 -19h-55v-767q0 -18 -19 -18h-91q-19 0 -19 18z" />
    <glyph glyph-name="periodcentered" unicode="&#xb7;" horiz-adv-x="227" 
d="M21 325q0 39 26.5 66.5t64.5 27.5q39 0 66.5 -27.5t27.5 -66.5q0 -38 -27.5 -64.5t-66.5 -26.5q-38 0 -64.5 26.5t-26.5 64.5z" />
    <glyph glyph-name="cedilla" unicode="&#xb8;" horiz-adv-x="218" 
d="M11 -160l56 160q6 14 16 14h89q12 0 11 -13l-26 -161q-5 -14 -20 -14h-113q-7 0 -11 4t-2 10z" />
    <glyph glyph-name="onesuperior" unicode="&#xb9;" horiz-adv-x="226" 
d="M35 739l119 16h9q9 0 9 -9v-277q0 -9 -9 -9h-71q-9 0 -9 9v189l-38 -5h-2q-5 0 -7 6l-9 70q-2 8 8 10z" />
    <glyph glyph-name="ordmasculine" unicode="&#xba;" horiz-adv-x="559" 
d="M21 250q0 108 75 184t183 76t183.5 -76t75.5 -184t-75.5 -184t-183.5 -76t-183 76t-75 184zM181 250q0 -45 28 -74.5t70 -29.5t70.5 30t28.5 74t-28.5 74t-70.5 30t-70 -29.5t-28 -74.5z" />
    <glyph glyph-name="guillemotright" unicode="&#xbb;" horiz-adv-x="578" 
d="M40 52l120 177l-122 178q-5 7 -2.5 12.5t11.5 5.5h123q12 0 26 -18l113 -168q5 -8 3 -14l-3 -7l-113 -166q-14 -18 -26 -18h-121q-9 0 -11.5 5.5t2.5 12.5zM283 52l120 177l-121 178q-5 7 -2.5 12.5t10.5 5.5h123q12 0 26 -18l113 -168q5 -8 3 -14l-3 -7l-113 -166
q-14 -18 -26 -18h-121q-9 0 -11.5 5.5t2.5 12.5z" />
    <glyph glyph-name="onequarter" unicode="&#xbc;" horiz-adv-x="733" 
d="M113 18l384 664q11 18 24 18h92q10 0 14 -5t-1 -13l-384 -664q-11 -18 -24 -18h-92q-10 0 -14 5t1 13zM597 9v46h-109q-9 0 -9 9v39l67 182q3 10 14 10h57q11 0 7 -10l-58 -160h32v29q0 9 9 9h55q9 0 9 -9v-29h18q8 0 8 -9v-52q0 -9 -8 -9h-18v-46q0 -9 -9 -9h-56
q-9 0 -9 9zM94 522q-6 0 -6 6v43q0 7 6 7q40 0 40 21q0 18 -21 18q-12 0 -32 -9q-3 -2 -7 -2q-2 0 -7 5l-33 49q-5 8 4 13q43 27 85 27q41 0 66 -22t25 -55q0 -43 -45 -71q50 -18 50 -67q0 -41 -28 -66.5t-75 -25.5q-42 0 -83 27q-9 6 -3 13l34 52q2 5 7 5t7 -2
q19 -12 35 -12q26 0 26 21q0 25 -45 25z" />
    <glyph glyph-name="onehalf" unicode="&#xbd;" horiz-adv-x="701" 
d="M35 685l119 16h9q9 0 9 -9v-277q0 -9 -9 -9h-71q-9 0 -9 9v189l-38 -5h-2q-5 0 -7 6l-9 70q-2 8 8 10zM589 86h57q9 0 9 -8v-69q0 -9 -9 -9h-186q-8 0 -8 9v9q0 5 3 11l25 33l21.5 28.5l17 22.5t13.5 19.5l9.5 15.5t7.5 15t3.5 12.5t1.5 12.5q0 28 -23 28q-15 0 -29 -11
q-4 -2 -6 -2q-5 0 -8 5l-34 52q-4 8 3 12q37 28 86 28q45 0 72.5 -26t27.5 -68q0 -60 -54 -120zM74 18l383 664q11 18 24 18h93q9 0 13 -5t-1 -13l-383 -664q-11 -18 -24 -18h-93q-9 0 -13 5t1 13z" />
    <glyph glyph-name="threequarters" unicode="&#xbe;" horiz-adv-x="692" 
d="M35 685l119 16h9q9 0 9 -9v-277q0 -9 -9 -9h-71q-9 0 -9 9v189l-38 -5h-2q-5 0 -7 6l-9 70q-2 8 8 10zM74 18l383 664q11 18 24 18h93q9 0 13 -5t-1 -13l-383 -664q-11 -18 -24 -18h-93q-9 0 -13 5t1 13zM555 9v46h-109q-9 0 -9 9v39l67 182q3 10 14 10h58q10 0 6 -10
l-58 -160h33v29q0 9 9 9h54q9 0 9 -9v-29h18q9 0 9 -9v-52q0 -9 -9 -9h-18v-46q0 -9 -9 -9h-56q-9 0 -9 9z" />
    <glyph glyph-name="questiondown" unicode="&#xbf;" horiz-adv-x="454" 
d="M359 182l66 -104q9 -13 -4 -25q-90 -63 -187 -63q-89 0 -144.5 47.5t-55.5 127.5q0 35 13.5 64.5t33 51l39 42.5t33 48.5t13.5 59.5v16q0 13 3.5 18.5t15.5 5.5h125q17 0 17 -24v-16q0 -59 -20 -102t-43.5 -61.5t-43.5 -38t-20 -37.5q0 -40 47 -40q37 0 87 34q7 5 11 5
q8 0 14 -9zM339 619q0 -39 -26.5 -66t-64.5 -27q-39 0 -66 27t-27 66q0 38 27 64.5t66 26.5q38 0 64.5 -26.5t26.5 -64.5z" />
    <glyph glyph-name="Agrave" unicode="&#xc0;" horiz-adv-x="638" 
d="M156 0h-136q-19 0 -12 19l203 662q4 19 22 19h172q18 0 22 -19l203 -662q4 -8 0.5 -13.5t-12.5 -5.5h-136q-22 0 -26 19l-32 112h-211l-31 -112q-4 -19 -26 -19zM250 285h138l-69 224zM369 774l-68 -30q-6 -2 -9 -2q-8 0 -14 8l-94 149q-13 15 8 22l101 35q2 1 7 1
q12 0 16 -13l61 -147q6 -17 -8 -23z" />
    <glyph glyph-name="Aacute" unicode="&#xc1;" horiz-adv-x="638" 
d="M156 0h-136q-19 0 -12 19l203 662q4 19 22 19h172q18 0 22 -19l203 -662q4 -8 0.5 -13.5t-12.5 -5.5h-136q-22 0 -26 19l-32 112h-211l-31 -112q-4 -19 -26 -19zM250 285h138l-69 224zM332 744l-68 30q-14 6 -8 23l61 147q3 13 15 13q5 0 7 -1l102 -35q18 -6 8 -22
l-94 -149q-6 -8 -14 -8q-3 0 -9 2z" />
    <glyph glyph-name="Acircumflex" unicode="&#xc2;" horiz-adv-x="638" 
d="M156 0h-136q-19 0 -12 19l203 662q4 19 22 19h172q18 0 22 -19l203 -662q4 -8 0.5 -13.5t-12.5 -5.5h-136q-22 0 -26 19l-32 112h-211l-31 -112q-4 -19 -26 -19zM250 285h138l-69 224zM280 945h77q19 0 35 -19l101 -115q11 -13 -2 -26l-37 -46q-4 -6 -11 -6q-9 0 -16 7
l-108 91l-109 -91q-7 -7 -15 -7q-6 0 -12 6l-37 46q-14 14 -2 26l101 115q16 19 35 19z" />
    <glyph glyph-name="Atilde" unicode="&#xc3;" horiz-adv-x="638" 
d="M156 0h-136q-19 0 -12 19l203 662q4 19 22 19h172q18 0 22 -19l203 -662q4 -8 0.5 -13.5t-12.5 -5.5h-136q-22 0 -26 19l-32 112h-211l-31 -112q-4 -19 -26 -19zM250 285h138l-69 224zM387 885q14 0 29 7.5t24 15l28 24.5q5 4 9 4q5 0 8 -10l20 -78q4 -17 -7 -27
q-54 -50 -103 -50q-37 0 -80 26t-64 26q-13 0 -29.5 -8.5t-23 -14l-28.5 -24.5q-5 -5 -9 -5t-8 11l-19 77q-6 18 6 27q55 51 103 51q38 0 80.5 -26t63.5 -26z" />
    <glyph glyph-name="Adieresis" unicode="&#xc4;" horiz-adv-x="638" 
d="M156 0h-136q-19 0 -12 19l203 662q4 19 22 19h172q18 0 22 -19l203 -662q4 -8 0.5 -13.5t-12.5 -5.5h-136q-22 0 -26 19l-32 112h-211l-31 -112q-4 -19 -26 -19zM250 285h138l-69 224zM116 843q0 37 25 62.5t61 25.5q37 0 62.5 -25.5t25.5 -62.5q0 -36 -25.5 -61
t-62.5 -25q-36 0 -61 25t-25 61zM347 843q0 37 24.5 62.5t61.5 25.5q38 0 63.5 -25.5t25.5 -62.5q0 -36 -25.5 -61t-63.5 -25q-37 0 -61.5 25t-24.5 61z" />
    <glyph glyph-name="Aring" unicode="&#xc5;" horiz-adv-x="638" 
d="M156 0h-136q-19 0 -12 19l203 662q4 19 22 19h172q18 0 22 -19l203 -662q4 -8 0.5 -13.5t-12.5 -5.5h-136q-22 0 -26 19l-32 112h-211l-31 -112q-4 -19 -26 -19zM250 285h138l-69 224zM187 861q0 54 39 93t94 39q54 0 93 -39t39 -93q0 -55 -39 -94t-93 -39q-55 0 -94 39
t-39 94zM284 861q0 -15 10.5 -25.5t25.5 -10.5t25.5 10.5t10.5 25.5t-10.5 25.5t-25.5 10.5t-25.5 -10.5t-10.5 -25.5z" />
    <glyph glyph-name="AE" unicode="&#xc6;" horiz-adv-x="867" 
d="M302 284h107v238h-1zM161 0h-139q-22 0 -13 19l301 668q6 13 19 13h494q19 0 19 -19v-125q0 -18 -19 -18h-237v-109h203q18 0 18 -19v-120q0 -19 -18 -19h-203v-109h238q18 0 18 -18v-125q0 -19 -18 -19h-396q-19 0 -19 19v112h-174l-52 -112q-9 -19 -22 -19z" />
    <glyph glyph-name="Ccedilla" unicode="&#xc7;" horiz-adv-x="627" 
d="M250 -160l56 160q-130 27 -205 125t-75 225q0 153 102 256.5t257 103.5q104 0 192 -53q16 -11 7 -27l-69 -104q-8 -10 -17 -10q-7 0 -12 4q-41 28 -101 28q-82 0 -137.5 -58.5t-55.5 -139.5q0 -83 55.5 -140.5t137.5 -57.5q60 0 104 30q5 4 12 4q9 0 15 -10l68 -104
q11 -17 -5 -27q-75 -44 -158 -53l-25 -152q-5 -14 -20 -14h-113q-7 0 -11 4.5t-2 9.5z" />
    <glyph glyph-name="Egrave" unicode="&#xc8;" horiz-adv-x="526" 
d="M78 700h403q18 0 18 -19v-125q0 -18 -18 -18h-256v-109h221q18 0 18 -19v-120q0 -19 -18 -19h-221v-109h257q19 0 19 -18v-125q0 -19 -19 -19h-404q-19 0 -19 19v662q0 19 19 19zM337 774l-68 -30q-6 -2 -9 -2q-8 0 -14 8l-94 149q-13 15 8 22l101 35q2 1 7 1
q12 0 16 -13l61 -147q6 -17 -8 -23z" />
    <glyph glyph-name="Eacute" unicode="&#xc9;" horiz-adv-x="526" 
d="M78 700h403q18 0 18 -19v-125q0 -18 -18 -18h-256v-109h221q18 0 18 -19v-120q0 -19 -18 -19h-221v-109h257q19 0 19 -18v-125q0 -19 -19 -19h-404q-19 0 -19 19v662q0 19 19 19zM288 744l-68 30q-14 6 -8 23l61 147q3 13 15 13q5 0 7 -1l102 -35q18 -6 8 -22l-94 -149
q-6 -8 -14 -8q-3 0 -9 2z" />
    <glyph glyph-name="Ecircumflex" unicode="&#xca;" horiz-adv-x="526" 
d="M78 700h403q18 0 18 -19v-125q0 -18 -18 -18h-256v-109h221q18 0 18 -19v-120q0 -19 -18 -19h-221v-109h257q19 0 19 -18v-125q0 -19 -19 -19h-404q-19 0 -19 19v662q0 19 19 19zM241 946h77q19 0 35 -19l101 -115q11 -13 -2 -26l-37 -46q-4 -6 -11 -6q-9 0 -16 7
l-108 91l-109 -91q-7 -7 -15 -7q-6 0 -12 6l-37 46q-14 14 -2 26l101 115q16 19 35 19z" />
    <glyph glyph-name="Edieresis" unicode="&#xcb;" horiz-adv-x="528" 
d="M80 700h403q18 0 18 -19v-125q0 -18 -18 -18h-256v-109h221q18 0 18 -19v-120q0 -19 -18 -19h-221v-109h257q19 0 19 -18v-125q0 -19 -19 -19h-404q-19 0 -19 19v662q0 19 19 19zM74 843q0 37 25 62.5t61 25.5q37 0 62.5 -25.5t25.5 -62.5q0 -36 -25.5 -61t-62.5 -25
q-36 0 -61 25t-25 61zM305 843q0 37 24.5 62.5t61.5 25.5q38 0 63.5 -25.5t25.5 -62.5q0 -36 -25.5 -61t-63.5 -25q-37 0 -61.5 25t-24.5 61z" />
    <glyph glyph-name="Igrave" unicode="&#xcc;" horiz-adv-x="284" 
d="M207 0h-129q-19 0 -19 19v662q0 19 19 19h129q18 0 18 -19v-662q0 -19 -18 -19zM190 774l-68 -30q-6 -2 -9 -2q-8 0 -14 8l-94 149q-13 15 8 22l101 35q2 1 7 1q12 0 16 -13l61 -147q6 -17 -8 -23z" />
    <glyph glyph-name="Iacute" unicode="&#xcd;" horiz-adv-x="300" 
d="M215 0h-129q-19 0 -19 19v662q0 19 19 19h129q18 0 18 -19v-662q0 -19 -18 -19zM175 745l-68 30q-14 6 -8 23l61 147q3 13 15 13q5 0 7 -1l102 -35q18 -6 8 -22l-94 -149q-6 -8 -14 -8q-3 0 -9 2z" />
    <glyph glyph-name="Icircumflex" unicode="&#xce;" horiz-adv-x="284" 
d="M207 0h-129q-19 0 -19 19v662q0 19 19 19h129q18 0 18 -19v-662q0 -19 -18 -19zM103 946h77q19 0 35 -19l101 -115q11 -13 -2 -26l-37 -46q-5 -6 -11 -6q-9 0 -16 7l-108 91l-109 -91q-7 -7 -15 -7q-6 0 -12 6l-37 46q-14 14 -2 26l101 115q16 19 35 19z" />
    <glyph glyph-name="Idieresis" unicode="&#xcf;" horiz-adv-x="284" 
d="M207 0h-129q-19 0 -19 19v662q0 19 19 19h129q18 0 18 -19v-662q0 -19 -18 -19zM-61 843q0 37 25 62.5t61 25.5q37 0 62.5 -25.5t25.5 -62.5q0 -36 -25.5 -61t-62.5 -25q-36 0 -61 25t-25 61zM170 843q0 37 24.5 62.5t61.5 25.5q38 0 63.5 -25.5t25.5 -62.5
q0 -36 -25.5 -61t-63.5 -25q-37 0 -61.5 25t-24.5 61z" />
    <glyph glyph-name="Eth" unicode="&#xd0;" horiz-adv-x="710" 
d="M59 19v272h-38q-18 0 -18 18v85q0 18 18 18h38v269q0 19 18 19h255q150 0 251 -101t101 -249q0 -145 -101.5 -247.5t-250.5 -102.5h-255q-18 0 -18 19zM225 538v-126h77q19 0 19 -18v-85q0 -18 -19 -18h-77v-129h101q80 0 136 53t56 134q0 84 -56 136.5t-136 52.5h-101z
" />
    <glyph glyph-name="Ntilde" unicode="&#xd1;" horiz-adv-x="748" 
d="M670 0h-130q-19 0 -32 19l-283 393v-393q0 -19 -18 -19h-129q-19 0 -19 19v662q0 19 19 19h130q19 0 32 -19l283 -393v393q0 19 18 19h129q19 0 19 -19v-662q0 -19 -19 -19zM437 885q14 0 29 7.5t24 15l28 24.5q5 4 9 4q5 0 8 -10l20 -78q4 -17 -7 -27q-54 -50 -103 -50
q-37 0 -80 26t-64 26q-13 0 -29.5 -8.5t-23 -14l-28.5 -24.5q-5 -5 -9 -5t-8 11l-19 77q-6 18 6 27q55 51 103 51q38 0 80.5 -26t63.5 -26z" />
    <glyph glyph-name="Ograve" unicode="&#xd2;" horiz-adv-x="772" 
d="M385 710q152 0 256.5 -104.5t104.5 -255.5t-104.5 -255.5t-256.5 -104.5t-255.5 103.5t-103.5 256.5q0 152 103.5 256t255.5 104zM385 152q83 0 139 58t56 140q0 81 -56.5 139.5t-138.5 58.5t-137.5 -58.5t-55.5 -139.5q0 -83 55.5 -140.5t137.5 -57.5zM426 775l-68 -30
q-6 -2 -9 -2q-8 0 -14 8l-94 149q-13 15 8 22l101 35q2 1 7 1q12 0 16 -13l61 -147q6 -17 -8 -23z" />
    <glyph glyph-name="Oacute" unicode="&#xd3;" horiz-adv-x="772" 
d="M385 710q152 0 256.5 -104.5t104.5 -255.5t-104.5 -255.5t-256.5 -104.5t-255.5 103.5t-103.5 256.5q0 152 103.5 256t255.5 104zM385 152q83 0 139 58t56 140q0 81 -56.5 139.5t-138.5 58.5t-137.5 -58.5t-55.5 -139.5q0 -83 55.5 -140.5t137.5 -57.5zM415 745l-68 30
q-14 6 -8 23l61 147q3 13 15 13q5 0 7 -1l102 -35q18 -6 8 -22l-94 -149q-6 -8 -14 -8q-3 0 -9 2z" />
    <glyph glyph-name="Ocircumflex" unicode="&#xd4;" horiz-adv-x="772" 
d="M385 710q152 0 256.5 -104.5t104.5 -255.5t-104.5 -255.5t-256.5 -104.5t-255.5 103.5t-103.5 256.5q0 152 103.5 256t255.5 104zM385 152q83 0 139 58t56 140q0 81 -56.5 139.5t-138.5 58.5t-137.5 -58.5t-55.5 -139.5q0 -83 55.5 -140.5t137.5 -57.5zM347 946h77
q19 0 35 -19l101 -115q11 -13 -2 -26l-37 -46q-5 -6 -11 -6q-9 0 -16 7l-108 91l-109 -91q-7 -7 -15 -7q-6 0 -12 6l-37 46q-14 14 -2 26l101 115q16 19 35 19z" />
    <glyph glyph-name="Otilde" unicode="&#xd5;" horiz-adv-x="772" 
d="M385 710q152 0 256.5 -104.5t104.5 -255.5t-104.5 -255.5t-256.5 -104.5t-255.5 103.5t-103.5 256.5q0 152 103.5 256t255.5 104zM385 152q83 0 139 58t56 140q0 81 -56.5 139.5t-138.5 58.5t-137.5 -58.5t-55.5 -139.5q0 -83 55.5 -140.5t137.5 -57.5zM454 885
q14 0 29 7.5t24 15l28 24.5q5 4 9 4q5 0 8 -10l20 -78q4 -17 -7 -27q-54 -50 -103 -50q-37 0 -80 26t-64 26q-13 0 -29.5 -8.5t-23 -14l-28.5 -24.5q-5 -5 -9 -5t-8 11l-19 77q-6 18 6 27q55 51 103 51q38 0 80.5 -26t63.5 -26z" />
    <glyph glyph-name="Odieresis" unicode="&#xd6;" horiz-adv-x="772" 
d="M385 710q152 0 256.5 -104.5t104.5 -255.5t-104.5 -255.5t-256.5 -104.5t-255.5 103.5t-103.5 256.5q0 152 103.5 256t255.5 104zM385 152q83 0 139 58t56 140q0 81 -56.5 139.5t-138.5 58.5t-137.5 -58.5t-55.5 -139.5q0 -83 55.5 -140.5t137.5 -57.5zM183 843
q0 37 25 62.5t61 25.5q37 0 62.5 -25.5t25.5 -62.5q0 -36 -25.5 -61t-62.5 -25q-36 0 -61 25t-25 61zM414 843q0 37 24.5 62.5t61.5 25.5q38 0 63.5 -25.5t25.5 -62.5q0 -36 -25.5 -61t-63.5 -25q-37 0 -61.5 25t-24.5 61z" />
    <glyph glyph-name="multiply" unicode="&#xd7;" horiz-adv-x="453" 
d="M419 379l-92 -92l93 -94q14 -14 0 -26l-72 -73q-7 -7 -14 -7t-13 6l-94 94l-94 -94q-6 -6 -13 -6t-13 7l-74 73q-14 12 0 26l94 94l-91 92q-13 13 0 26l73 73q7 7 14 7t13 -7l91 -92l93 93q6 7 12 7q7 0 13 -7l74 -73q13 -14 0 -27z" />
    <glyph glyph-name="Oslash" unicode="&#xd8;" horiz-adv-x="771" 
d="M258 201l211 328q-43 19 -85 19q-80 0 -136 -58.5t-56 -139.5q0 -88 66 -149zM664 724l-57 -89q138 -106 138 -285q0 -150 -105 -255t-256 -105q-88 0 -169 42l-31 -49q-10 -13 -18 -13h-39q-18 0 -11 13l51 78q-141 116 -141 289q0 150 104 255t254 105q92 0 175 -44
l37 58q7 13 19 13h36q21 0 13 -13zM516 495l-211 -325q35 -18 79 -18q82 0 139 58.5t57 139.5q0 90 -64 145z" />
    <glyph glyph-name="Ugrave" unicode="&#xd9;" horiz-adv-x="694" 
d="M75 700h129q18 0 18 -19v-374q0 -155 125 -155t125 155v374q0 19 19 19h129q18 0 18 -19v-405q0 -127 -80 -206.5t-211 -79.5q-132 0 -211.5 79.5t-79.5 206.5v405q0 19 19 19zM382 774l-68 -30q-6 -2 -9 -2q-8 0 -14 8l-94 149q-13 15 8 22l101 35q2 1 7 1q12 0 16 -13
l61 -147q6 -17 -8 -23z" />
    <glyph glyph-name="Uacute" unicode="&#xda;" horiz-adv-x="694" 
d="M75 700h129q18 0 18 -19v-374q0 -155 125 -155t125 155v374q0 19 19 19h129q18 0 18 -19v-405q0 -127 -80 -206.5t-211 -79.5q-132 0 -211.5 79.5t-79.5 206.5v405q0 19 19 19zM360 745l-68 30q-14 6 -8 23l61 147q3 13 15 13q5 0 7 -1l102 -35q18 -6 8 -22l-94 -149
q-6 -8 -14 -8q-3 0 -9 2z" />
    <glyph glyph-name="Ucircumflex" unicode="&#xdb;" horiz-adv-x="694" 
d="M75 700h129q18 0 18 -19v-374q0 -155 125 -155t125 155v374q0 19 19 19h129q18 0 18 -19v-405q0 -127 -80 -206.5t-211 -79.5q-132 0 -211.5 79.5t-79.5 206.5v405q0 19 19 19zM309 946h77q19 0 35 -19l101 -115q11 -13 -2 -26l-37 -46q-5 -6 -11 -6q-9 0 -16 7l-108 91
l-109 -91q-7 -7 -15 -7q-6 0 -12 6l-37 46q-14 14 -2 26l101 115q16 19 35 19z" />
    <glyph glyph-name="Udieresis" unicode="&#xdc;" horiz-adv-x="694" 
d="M75 700h129q18 0 18 -19v-374q0 -155 125 -155t125 155v374q0 19 19 19h129q18 0 18 -19v-405q0 -127 -80 -206.5t-211 -79.5q-132 0 -211.5 79.5t-79.5 206.5v405q0 19 19 19zM144 843q0 37 25 62.5t61 25.5q37 0 62.5 -25.5t25.5 -62.5q0 -36 -25.5 -61t-62.5 -25
q-36 0 -61 25t-25 61zM375 843q0 37 24.5 62.5t61.5 25.5q38 0 63.5 -25.5t25.5 -62.5q0 -36 -25.5 -61t-63.5 -25q-37 0 -61.5 25t-24.5 61z" />
    <glyph glyph-name="Yacute" unicode="&#xdd;" horiz-adv-x="619" 
d="M183 689l127 -208l126 208q6 11 20 11h149q7 0 9 -6.5t-3 -12.5l-218 -343v-319q0 -19 -18 -19h-130q-18 0 -18 19v319l-219 343q-5 6 -3 12.5t9 6.5h149q14 0 20 -11zM330 743l-68 30q-14 6 -8 23l61 147q3 13 15 13q5 0 7 -1l102 -35q18 -6 8 -22l-94 -149
q-6 -8 -14 -8q-3 0 -9 2z" />
    <glyph glyph-name="Thorn" unicode="&#xde;" horiz-adv-x="589" 
d="M225 454v-173h74q50 0 76 23t26 65q0 85 -102 85h-74zM59 19v712q0 19 18 19h130q18 0 18 -19v-127h113q105 0 167 -67.5t62 -167.5q0 -94 -65.5 -166t-163.5 -72h-113v-112q0 -19 -18 -19h-130q-18 0 -18 19z" />
    <glyph glyph-name="germandbls" unicode="&#xdf;" horiz-adv-x="600" 
d="M264 2q-12 2 -12 18v133q0 15 15 15q25 -5 45 -5q40 0 66.5 16.5t26.5 50.5q0 71 -133 88q-12 2 -12 17v136q0 13 14 13q35 0 56.5 14t21.5 43q0 22 -17 36t-44 14q-65 0 -65 -85v-491q0 -14 -14 -14h-140q-13 0 -13 14v491q0 113 64.5 179t179.5 66q88 0 151.5 -53.5
t63.5 -139.5q0 -103 -81 -146q63 -27 99 -77t36 -113q0 -106 -73 -164.5t-183 -58.5q-25 0 -52 3z" />
    <glyph glyph-name="agrave" unicode="&#xe0;" horiz-adv-x="597" 
d="M189 250q0 -45 28 -74.5t70 -29.5t70.5 30t28.5 74t-28.5 74t-70.5 30t-70 -29.5t-28 -74.5zM528 0h-127q-19 0 -19 19v40q-63 -69 -141 -69q-96 0 -156.5 75.5t-60.5 184.5t60.5 184.5t156.5 75.5q76 0 141 -69v40q0 19 19 19h127q18 0 18 -19v-462q0 -19 -18 -19z
M346 577l-68 -30q-6 -2 -9 -2q-8 0 -14 8l-94 149q-13 15 8 22l101 35q2 1 7 1q12 0 16 -13l61 -147q6 -17 -8 -23z" />
    <glyph glyph-name="aacute" unicode="&#xe1;" horiz-adv-x="597" 
d="M189 250q0 -45 28 -74.5t70 -29.5t70.5 30t28.5 74t-28.5 74t-70.5 30t-70 -29.5t-28 -74.5zM528 0h-127q-19 0 -19 19v40q-63 -69 -141 -69q-96 0 -156.5 75.5t-60.5 184.5t60.5 184.5t156.5 75.5q76 0 141 -69v40q0 19 19 19h127q18 0 18 -19v-462q0 -19 -18 -19z
M307 547l-68 30q-14 6 -8 23l61 147q3 13 15 13q5 0 7 -1l102 -35q18 -6 8 -22l-94 -149q-6 -8 -14 -8q-3 0 -9 2z" />
    <glyph glyph-name="acircumflex" unicode="&#xe2;" horiz-adv-x="597" 
d="M189 250q0 -45 28 -74.5t70 -29.5t70.5 30t28.5 74t-28.5 74t-70.5 30t-70 -29.5t-28 -74.5zM528 0h-127q-19 0 -19 19v40q-63 -69 -141 -69q-96 0 -156.5 75.5t-60.5 184.5t60.5 184.5t156.5 75.5q76 0 141 -69v40q0 19 19 19h127q18 0 18 -19v-462q0 -19 -18 -19z
M263 749h77q19 0 35 -19l101 -115q11 -13 -2 -26l-37 -46q-5 -6 -11 -6q-9 0 -16 7l-108 91l-109 -91q-7 -7 -15 -7q-6 0 -12 6l-37 46q-14 14 -2 26l101 115q16 19 35 19z" />
    <glyph glyph-name="atilde" unicode="&#xe3;" horiz-adv-x="597" 
d="M189 250q0 -45 28 -74.5t70 -29.5t70.5 30t28.5 74t-28.5 74t-70.5 30t-70 -29.5t-28 -74.5zM528 0h-127q-19 0 -19 19v40q-63 -69 -141 -69q-96 0 -156.5 75.5t-60.5 184.5t60.5 184.5t156.5 75.5q76 0 141 -69v40q0 19 19 19h127q18 0 18 -19v-462q0 -19 -18 -19z
M363 693q14 0 29 7.5t24 15l28 24.5q5 4 9 4q5 0 8 -10l20 -78q4 -17 -7 -27q-54 -50 -103 -50q-37 0 -80 26t-64 26q-13 0 -29.5 -8.5t-23 -14l-28.5 -24.5q-5 -5 -9 -5t-8 11l-19 77q-6 18 6 27q55 51 103 51q38 0 80.5 -26t63.5 -26z" />
    <glyph glyph-name="adieresis" unicode="&#xe4;" horiz-adv-x="597" 
d="M189 250q0 -45 28 -74.5t70 -29.5t70.5 30t28.5 74t-28.5 74t-70.5 30t-70 -29.5t-28 -74.5zM528 0h-127q-19 0 -19 19v40q-63 -69 -141 -69q-96 0 -156.5 75.5t-60.5 184.5t60.5 184.5t156.5 75.5q76 0 141 -69v40q0 19 19 19h127q18 0 18 -19v-462q0 -19 -18 -19z
M94 645q0 37 25 62.5t61 25.5q37 0 62.5 -25.5t25.5 -62.5q0 -36 -25.5 -61t-62.5 -25q-36 0 -61 25t-25 61zM325 645q0 37 24.5 62.5t61.5 25.5q38 0 63.5 -25.5t25.5 -62.5q0 -36 -25.5 -61t-63.5 -25q-37 0 -61.5 25t-24.5 61z" />
    <glyph glyph-name="aring" unicode="&#xe5;" horiz-adv-x="597" 
d="M189 250q0 -45 28 -74.5t70 -29.5t70.5 30t28.5 74t-28.5 74t-70.5 30t-70 -29.5t-28 -74.5zM528 0h-127q-19 0 -19 19v40q-63 -69 -141 -69q-96 0 -156.5 75.5t-60.5 184.5t60.5 184.5t156.5 75.5q76 0 141 -69v40q0 19 19 19h127q18 0 18 -19v-462q0 -19 -18 -19z
M163 673q0 54 39 93t94 39q54 0 93 -39t39 -93q0 -55 -39 -94t-93 -39q-55 0 -94 39t-39 94zM260 673q0 -15 10.5 -25.5t25.5 -10.5t25.5 10.5t10.5 25.5t-10.5 25.5t-25.5 10.5t-25.5 -10.5t-10.5 -25.5z" />
    <glyph glyph-name="ae" unicode="&#xe6;" horiz-adv-x="907" 
d="M527 312h180q-22 73 -91 73q-33 0 -57 -20t-32 -53zM428 94q-78 -103 -197 -103q-93 0 -142.5 53t-52.5 121q-2 77 51 120.5t145 43.5q58 0 109 -26q-21 82 -107 82q-55 0 -119 -26q-6 -2 -9 -2q-11 0 -14 12l-31 75q-7 19 8 25q90 41 177 41q117 0 182 -99q72 99 188 99
q120 0 185 -85.5t65 -207.5q0 -20 -19 -20h-320q28 -70 107 -70q52 0 108 24q6 3 11 3q9 0 15 -9l57 -80q10 -16 -5 -24q-91 -51 -190 -51q-64 0 -117 30.5t-85 73.5zM341 205q-36 27 -86 27q-33 0 -52.5 -13.5t-19.5 -39.5q0 -24 17.5 -39t47.5 -15q71 0 93 80z" />
    <glyph glyph-name="ccedilla" unicode="&#xe7;" horiz-adv-x="470" 
d="M161 -160l55 159q-90 21 -142.5 93t-52.5 158q0 108 75 184t183 76q81 0 153 -47q16 -13 5 -27l-70 -96q-5 -8 -14 -8q-5 0 -11 3q-30 19 -63 19q-42 0 -70 -29.5t-28 -74.5t28 -74.5t70 -29.5q34 0 66 17q6 3 11 3q8 0 12 -7l70 -99q10 -15 -6 -25q-40 -27 -99 -39
l-26 -156q-5 -14 -20 -14h-113q-7 0 -11 4t-2 10z" />
    <glyph glyph-name="egrave" unicode="&#xe8;" horiz-adv-x="538" 
d="M317 577l-68 -30q-6 -2 -9 -2q-8 0 -14 8l-94 149q-13 15 8 22l101 35q2 1 7 1q12 0 16 -13l61 -147q6 -17 -8 -23zM285 127q55 0 107 24q6 3 11 3q6 0 15 -9l57 -80q12 -14 -5 -24q-86 -51 -190 -51q-106 0 -182.5 77t-76.5 183q0 104 70 182t176 78q117 0 183.5 -83.5
t66.5 -209.5q0 -20 -20 -20h-319q10 -30 39 -50t68 -20zM178 312h180q-20 73 -91 73q-34 0 -57 -20.5t-32 -52.5z" />
    <glyph glyph-name="eacute" unicode="&#xe9;" horiz-adv-x="538" 
d="M285 127q55 0 107 24q6 3 11 3q6 0 15 -9l57 -80q12 -14 -5 -24q-86 -51 -190 -51q-106 0 -182.5 77t-76.5 183q0 104 70 182t176 78q117 0 183.5 -83.5t66.5 -209.5q0 -20 -20 -20h-319q10 -30 39 -50t68 -20zM178 312h180q-20 73 -91 73q-34 0 -57 -20.5t-32 -52.5z
M303 547l-68 30q-14 6 -8 23l61 147q3 13 15 13q5 0 7 -1l102 -35q18 -6 8 -22l-94 -149q-6 -8 -14 -8q-3 0 -9 2z" />
    <glyph glyph-name="ecircumflex" unicode="&#xea;" horiz-adv-x="538" 
d="M236 749h77q19 0 35 -19l101 -115q11 -13 -2 -26l-37 -46q-4 -6 -11 -6q-9 0 -16 7l-108 91l-109 -91q-7 -7 -15 -7q-6 0 -12 6l-37 46q-14 14 -2 26l101 115q16 19 35 19zM285 127q55 0 107 24q6 3 11 3q6 0 15 -9l57 -80q12 -14 -5 -24q-86 -51 -190 -51
q-106 0 -182.5 77t-76.5 183q0 104 70 182t176 78q117 0 183.5 -83.5t66.5 -209.5q0 -20 -20 -20h-319q10 -30 39 -50t68 -20zM178 312h180q-20 73 -91 73q-34 0 -57 -20.5t-32 -52.5z" />
    <glyph glyph-name="edieresis" unicode="&#xeb;" horiz-adv-x="538" 
d="M68 644q0 37 25 62.5t61 25.5q37 0 62.5 -25.5t25.5 -62.5q0 -36 -25.5 -61t-62.5 -25q-36 0 -61 25t-25 61zM299 644q0 37 24.5 62.5t61.5 25.5q38 0 63.5 -25.5t25.5 -62.5q0 -36 -25.5 -61t-63.5 -25q-37 0 -61.5 25t-24.5 61zM285 127q55 0 107 24q6 3 11 3
q6 0 15 -9l57 -80q12 -14 -5 -24q-86 -51 -190 -51q-106 0 -182.5 77t-76.5 183q0 104 70 182t176 78q117 0 183.5 -83.5t66.5 -209.5q0 -20 -20 -20h-319q10 -30 39 -50t68 -20zM178 312h180q-20 73 -91 73q-34 0 -57 -20.5t-32 -52.5z" />
    <glyph glyph-name="igrave" unicode="&#xec;" horiz-adv-x="282" 
d="M204 0h-126q-19 0 -19 19v462q0 19 19 19h126q19 0 19 -19v-462q0 -19 -19 -19zM183 577l-68 -30q-6 -2 -9 -2q-8 0 -14 8l-94 149q-13 15 8 22l101 35q2 1 7 1q12 0 16 -13l61 -147q6 -17 -8 -23z" />
    <glyph glyph-name="iacute" unicode="&#xed;" horiz-adv-x="283" 
d="M204 0h-126q-19 0 -19 19v462q0 19 19 19h126q19 0 19 -19v-462q0 -19 -19 -19zM168 547l-68 30q-14 6 -8 23l61 147q3 13 15 13q5 0 7 -1l102 -35q18 -6 8 -22l-94 -149q-6 -8 -14 -8q-3 0 -9 2z" />
    <glyph glyph-name="icircumflex" unicode="&#xee;" horiz-adv-x="282" 
d="M102 749h77q19 0 35 -19l101 -115q11 -13 -2 -26l-37 -46q-4 -6 -11 -6q-9 0 -16 7l-108 91l-109 -91q-7 -7 -15 -7q-6 0 -12 6l-37 46q-14 14 -2 26l101 115q16 19 35 19zM204 0h-126q-19 0 -19 19v462q0 19 19 19h126q19 0 19 -19v-462q0 -19 -19 -19z" />
    <glyph glyph-name="idieresis" unicode="&#xef;" horiz-adv-x="282" 
d="M-62 644q0 37 25 62.5t61 25.5q37 0 62.5 -25.5t25.5 -62.5q0 -36 -25.5 -61t-62.5 -25q-36 0 -61 25t-25 61zM169 644q0 37 24.5 62.5t61.5 25.5q38 0 63.5 -25.5t25.5 -62.5q0 -36 -25.5 -61t-63.5 -25q-37 0 -61.5 25t-24.5 61zM204 0h-126q-19 0 -19 19v462
q0 19 19 19h126q19 0 19 -19v-462q0 -19 -19 -19z" />
    <glyph glyph-name="eth" unicode="&#xf0;" horiz-adv-x="617" 
d="M296 502l-25 52l-137 -25q-2 -1 -6 -1q-12 0 -15 16l-12 60q-3 20 15 23l110 20l-41 85q-7 18 13 18h136q19 0 27 -13l29 -59l139 26q2 1 7 1q13 0 14 -16l12 -60q4 -19 -15 -23l-113 -21l111 -231q22 -48 22 -104q0 -108 -75.5 -184t-183.5 -76t-183 76t-75 184
q0 102 66 177t166 75h14zM308 354q-42 0 -70 -29.5t-28 -74.5t28 -74.5t70 -29.5t70.5 30t28.5 74q0 43 -28 73.5t-71 30.5z" />
    <glyph glyph-name="ntilde" unicode="&#xf1;" 
d="M535 0h-127q-18 0 -18 19v235q0 44 -21.5 72t-62.5 28q-35 0 -61.5 -27t-26.5 -60v-248q0 -19 -19 -19h-126q-19 0 -19 19v462q0 19 19 19h126q19 0 19 -19v-46q60 75 148 75q90 0 139 -57.5t49 -165.5v-268q0 -19 -19 -19zM367 693q14 0 29 7.5t24 15l28 24.5q5 4 9 4
q5 0 8 -10l20 -78q4 -17 -7 -27q-54 -50 -103 -50q-37 0 -80 26t-64 26q-13 0 -29.5 -8.5t-23 -14l-28.5 -24.5q-5 -5 -9 -5t-8 11l-19 77q-6 18 6 27q55 51 103 51q38 0 80.5 -26t63.5 -26z" />
    <glyph glyph-name="ograve" unicode="&#xf2;" horiz-adv-x="559" 
d="M21 250q0 108 75 184t183 76t183.5 -76t75.5 -184t-75.5 -184t-183.5 -76t-183 76t-75 184zM181 250q0 -45 28 -74.5t70 -29.5t70.5 30t28.5 74t-28.5 74t-70.5 30t-70 -29.5t-28 -74.5zM320 577l-68 -30q-6 -2 -9 -2q-8 0 -14 8l-94 149q-13 15 8 22l101 35q2 1 7 1
q12 0 16 -13l61 -147q6 -17 -8 -23z" />
    <glyph glyph-name="oacute" unicode="&#xf3;" horiz-adv-x="559" 
d="M21 250q0 108 75 184t183 76t183.5 -76t75.5 -184t-75.5 -184t-183.5 -76t-183 76t-75 184zM181 250q0 -45 28 -74.5t70 -29.5t70.5 30t28.5 74t-28.5 74t-70.5 30t-70 -29.5t-28 -74.5zM306 547l-68 30q-14 6 -8 23l61 147q3 13 15 13q5 0 7 -1l102 -35q18 -6 8 -22
l-94 -149q-6 -8 -14 -8q-3 0 -9 2z" />
    <glyph glyph-name="ocircumflex" unicode="&#xf4;" horiz-adv-x="559" 
d="M21 250q0 108 75 184t183 76t183.5 -76t75.5 -184t-75.5 -184t-183.5 -76t-183 76t-75 184zM181 250q0 -45 28 -74.5t70 -29.5t70.5 30t28.5 74t-28.5 74t-70.5 30t-70 -29.5t-28 -74.5zM241 749h77q19 0 35 -19l101 -115q11 -13 -2 -26l-37 -46q-4 -6 -11 -6q-9 0 -16 7
l-108 91l-109 -91q-7 -7 -15 -7q-6 0 -12 6l-37 46q-14 14 -2 26l101 115q16 19 35 19z" />
    <glyph glyph-name="otilde" unicode="&#xf5;" horiz-adv-x="559" 
d="M21 250q0 108 75 184t183 76t183.5 -76t75.5 -184t-75.5 -184t-183.5 -76t-183 76t-75 184zM181 250q0 -45 28 -74.5t70 -29.5t70.5 30t28.5 74t-28.5 74t-70.5 30t-70 -29.5t-28 -74.5zM348 693q14 0 29 7.5t24 15l28 24.5q5 4 9 4q5 0 8 -10l20 -78q4 -17 -7 -27
q-54 -50 -103 -50q-37 0 -80 26t-64 26q-13 0 -29.5 -8.5t-23 -14l-28.5 -24.5q-5 -5 -9 -5t-8 11l-19 77q-6 18 6 27q55 51 103 51q38 0 80.5 -26t63.5 -26z" />
    <glyph glyph-name="odieresis" unicode="&#xf6;" horiz-adv-x="559" 
d="M21 250q0 108 75 184t183 76t183.5 -76t75.5 -184t-75.5 -184t-183.5 -76t-183 76t-75 184zM181 250q0 -45 28 -74.5t70 -29.5t70.5 30t28.5 74t-28.5 74t-70.5 30t-70 -29.5t-28 -74.5zM77 644q0 37 25 62.5t61 25.5q37 0 62.5 -25.5t25.5 -62.5q0 -36 -25.5 -61
t-62.5 -25q-36 0 -61 25t-25 61zM308 644q0 37 24.5 62.5t61.5 25.5q38 0 63.5 -25.5t25.5 -62.5q0 -36 -25.5 -61t-63.5 -25q-37 0 -61.5 25t-24.5 61z" />
    <glyph glyph-name="divide" unicode="&#xf7;" horiz-adv-x="522" 
d="M52 363h418q18 0 18 -19v-91q0 -19 -18 -19h-418q-18 0 -18 19v91q0 19 18 19zM178 493q0 36 24 61t59 25q36 0 61 -25t25 -61q0 -35 -25 -59t-61 -24q-35 0 -59 24t-24 59zM178 105q0 36 24 60.5t59 24.5q36 0 61 -24.5t25 -60.5q0 -35 -25 -59.5t-61 -24.5
q-35 0 -59 24.5t-24 59.5z" />
    <glyph glyph-name="oslash" unicode="&#xf8;" horiz-adv-x="559" 
d="M492 522l-47 -72q93 -79 93 -200q0 -108 -75.5 -184t-183.5 -76q-63 0 -114 27l-27 -42q-9 -13 -17 -13h-41q-18 0 -11 13l47 72q-95 82 -95 203q0 108 75 184t183 76q61 0 118 -29l27 41q7 13 19 13h35q9 0 13 -4t1 -9zM356 311l-104 -159q12 -6 27 -6q42 0 70.5 30
t28.5 74q0 36 -22 61zM204 183l106 164q-9 7 -31 7q-42 0 -70 -29.5t-28 -74.5q0 -35 23 -67z" />
    <glyph glyph-name="ugrave" unicode="&#xf9;" 
d="M66 500h126q19 0 19 -19v-235q0 -45 21 -72.5t63 -27.5q35 0 61.5 27t26.5 60v248q0 19 18 19h127q19 0 19 -19v-462q0 -19 -19 -19h-127q-18 0 -18 19v46q-60 -75 -148 -75q-90 0 -139 57.5t-49 165.5v268q0 19 19 19zM346 577l-68 -30q-6 -2 -9 -2q-8 0 -14 8l-94 149
q-13 15 8 22l101 35q2 1 7 1q12 0 16 -13l61 -147q6 -17 -8 -23z" />
    <glyph glyph-name="uacute" unicode="&#xfa;" 
d="M66 500h126q19 0 19 -19v-235q0 -45 21 -72.5t63 -27.5q35 0 61.5 27t26.5 60v248q0 19 18 19h127q19 0 19 -19v-462q0 -19 -19 -19h-127q-18 0 -18 19v46q-60 -75 -148 -75q-90 0 -139 57.5t-49 165.5v268q0 19 19 19zM317 547l-68 30q-14 6 -8 23l61 147q3 13 15 13
q5 0 7 -1l102 -35q18 -6 8 -22l-94 -149q-6 -8 -14 -8q-3 0 -9 2z" />
    <glyph glyph-name="ucircumflex" unicode="&#xfb;" 
d="M66 500h126q19 0 19 -19v-235q0 -45 21 -72.5t63 -27.5q35 0 61.5 27t26.5 60v248q0 19 18 19h127q19 0 19 -19v-462q0 -19 -19 -19h-127q-18 0 -18 19v46q-60 -75 -148 -75q-90 0 -139 57.5t-49 165.5v268q0 19 19 19zM261 749h77q19 0 35 -19l101 -115q11 -13 -2 -26
l-37 -46q-5 -6 -11 -6q-9 0 -16 7l-108 91l-109 -91q-7 -7 -15 -7q-6 0 -12 6l-37 46q-14 14 -2 26l101 115q16 19 35 19z" />
    <glyph glyph-name="udieresis" unicode="&#xfc;" 
d="M66 495h126q19 0 19 -19v-235q0 -45 21 -72.5t63 -27.5q35 0 61.5 27t26.5 60v248q0 19 18 19h127q19 0 19 -19v-462q0 -19 -19 -19h-127q-18 0 -18 19v46q-60 -75 -148 -75q-90 0 -139 57.5t-49 165.5v268q0 19 19 19zM96 644q0 37 25 62.5t61 25.5q37 0 62.5 -25.5
t25.5 -62.5q0 -36 -25.5 -61t-62.5 -25q-36 0 -61 25t-25 61zM327 644q0 37 24.5 62.5t61.5 25.5q38 0 63.5 -25.5t25.5 -62.5q0 -36 -25.5 -61t-63.5 -25q-37 0 -61.5 25t-24.5 61z" />
    <glyph glyph-name="yacute" unicode="&#xfd;" 
d="M547 481v-447q0 -127 -78 -208t-203 -81q-59 0 -112.5 23t-85.5 59q-11 11 -1 24l65 87q6 9 13 9q5 0 10 -5q39 -41 107 -41q63 0 92 34t29 82v49q-16 -27 -59.5 -46.5t-88.5 -19.5q-90 0 -138.5 57.5t-48.5 165.5v258q0 19 18 19h127q19 0 19 -19v-225q0 -44 21 -72
t62 -28t64.5 25t23.5 62v238q0 19 19 19h127q18 0 18 -19zM318 547l-68 30q-14 6 -8 23l61 147q3 13 15 13q5 0 7 -1l102 -35q18 -6 8 -22l-94 -149q-6 -8 -14 -8q-3 0 -9 2z" />
    <glyph glyph-name="thorn" unicode="&#xfe;" horiz-adv-x="597" 
d="M412 250q0 44 -28.5 74t-70.5 30t-70 -29.5t-28 -74.5t28 -74.5t70 -29.5t70.5 29.5t28.5 74.5zM200 -250h-128q-18 0 -18 19v962q0 19 18 19h128q18 0 18 -19v-290q52 69 142 69q95 0 155.5 -75.5t60.5 -184.5q0 -110 -60 -185t-156 -75q-86 0 -142 69v-290
q0 -19 -18 -19z" />
    <glyph glyph-name="ydieresis" unicode="&#xff;" 
d="M547 481v-447q0 -127 -78 -208t-203 -81q-59 0 -112.5 23t-85.5 59q-11 11 -1 24l65 87q6 9 13 9q5 0 10 -5q39 -41 107 -41q63 0 92 34t29 82v49q-16 -27 -59.5 -46.5t-88.5 -19.5q-90 0 -138.5 57.5t-48.5 165.5v258q0 19 18 19h127q19 0 19 -19v-225q0 -44 21 -72
t62 -28t64.5 25t23.5 62v238q0 19 19 19h127q18 0 18 -19zM97 644q0 37 25 62.5t61 25.5q37 0 62.5 -25.5t25.5 -62.5q0 -36 -25.5 -61t-62.5 -25q-36 0 -61 25t-25 61zM328 644q0 37 24.5 62.5t61.5 25.5q38 0 63.5 -25.5t25.5 -62.5q0 -36 -25.5 -61t-63.5 -25
q-37 0 -61.5 25t-24.5 61z" />
    <glyph glyph-name="Amacron" unicode="&#x100;" horiz-adv-x="638" 
d="M156 0h-136q-19 0 -12 19l203 662q4 19 22 19h172q18 0 22 -19l203 -662q4 -8 0.5 -13.5t-12.5 -5.5h-136q-22 0 -26 19l-32 112h-211l-31 -112q-4 -19 -26 -19zM250 285h138l-69 224zM168 801v96q0 18 19 18h266q18 0 18 -18v-96q0 -18 -18 -18h-266q-19 0 -19 18z" />
    <glyph glyph-name="amacron" unicode="&#x101;" horiz-adv-x="597" 
d="M189 250q0 -45 28 -74.5t70 -29.5t70.5 30t28.5 74t-28.5 74t-70.5 30t-70 -29.5t-28 -74.5zM528 0h-127q-19 0 -19 19v40q-63 -69 -141 -69q-96 0 -156.5 75.5t-60.5 184.5t60.5 184.5t156.5 75.5q76 0 141 -69v40q0 19 19 19h127q18 0 18 -19v-462q0 -19 -18 -19z
M148 605v96q0 18 19 18h266q18 0 18 -18v-96q0 -18 -18 -18h-266q-19 0 -19 18z" />
    <glyph glyph-name="Abreve" unicode="&#x102;" horiz-adv-x="638" 
d="M156 0h-136q-19 0 -12 19l203 662q4 19 22 19h172q18 0 22 -19l203 -662q4 -8 0.5 -13.5t-12.5 -5.5h-136q-22 0 -26 19l-32 112h-211l-31 -112q-4 -19 -26 -19zM250 285h138l-69 224zM493 905q-3 -77 -50 -118.5t-124 -41.5q-79 0 -125 41t-50 119q0 9 13 12l79 13
q10 0 13 -11q7 -60 70 -60q62 0 70 60q1 8 3 9.5t9 1.5l79 -13q13 -4 13 -12z" />
    <glyph glyph-name="abreve" unicode="&#x103;" horiz-adv-x="597" 
d="M189 250q0 -45 28 -74.5t70 -29.5t70.5 30t28.5 74t-28.5 74t-70.5 30t-70 -29.5t-28 -74.5zM528 0h-127q-19 0 -19 19v40q-63 -69 -141 -69q-96 0 -156.5 75.5t-60.5 184.5t60.5 184.5t156.5 75.5q76 0 141 -69v40q0 19 19 19h127q18 0 18 -19v-462q0 -19 -18 -19z
M476 714q-3 -77 -50 -118.5t-124 -41.5q-79 0 -125 41t-50 119q0 9 13 12l79 13q10 0 13 -11q7 -60 70 -60q62 0 70 60q1 8 3.5 9.5t8.5 1.5l79 -13q13 -4 13 -12z" />
    <glyph glyph-name="Aogonek" unicode="&#x104;" horiz-adv-x="637" 
d="M617 0q-22 -18 -28.5 -42t5.5 -41.5t38 -17.5q3 0 15 2q12 0 12 -9v-82q0 -12 -9 -13q-18 -3 -35 -3q-63 0 -101.5 34.5t-37 83.5t44.5 88h-39q-20 0 -26 19l-32 112h-211l-31 -112q-4 -19 -26 -19h-136q-19 0 -12 19l203 662q4 19 22 19h172q18 0 22 -19l203 -662
q4 -19 -13 -19zM250 285h138l-69 224z" />
    <glyph glyph-name="aogonek" unicode="&#x105;" horiz-adv-x="597" 
d="M186 250q0 -45 28 -74.5t70 -29.5t70.5 30t28.5 74t-28.5 74t-70.5 30t-70 -29.5t-28 -74.5zM379 19v40q-63 -69 -141 -69q-96 0 -156.5 75.5t-60.5 184.5t60.5 184.5t156.5 75.5q76 0 141 -69v40q0 19 19 19h127q18 0 18 -19v-462q0 -19 -13 -19q-22 -18 -28.5 -42
t5.5 -41.5t38 -17.5q4 0 16 2q11 0 11 -9l1 -82q0 -12 -9 -13q-18 -3 -35 -3q-63 0 -101.5 34.5t-37 83.5t44.5 88h-37q-19 0 -19 19z" />
    <glyph glyph-name="Cacute" unicode="&#x106;" horiz-adv-x="627" 
d="M584 630l-68 -104q-8 -10 -18 -10q-6 0 -13 4q-41 28 -100 28q-82 0 -137.5 -58.5t-55.5 -139.5q0 -83 55.5 -140.5t137.5 -57.5q60 0 104 30q5 4 12 4q9 0 15 -10l68 -103q11 -18 -5 -28q-90 -55 -194 -55q-155 0 -257 103t-102 257q0 153 102 256.5t257 103.5
q105 0 191 -53q16 -9 8 -27zM391 744l-68 30q-14 6 -8 23l61 147q3 13 15 13q5 0 7 -1l102 -35q18 -6 8 -22l-94 -149q-6 -8 -14 -8q-3 0 -9 2z" />
    <glyph glyph-name="cacute" unicode="&#x107;" horiz-adv-x="470" 
d="M368 159l70 -99q10 -15 -6 -25q-70 -45 -153 -45q-108 0 -183 76t-75 184t75 184t183 76q81 0 153 -47q16 -13 5 -27l-70 -96q-5 -8 -14 -8q-5 0 -11 3q-30 19 -63 19q-42 0 -70 -29.5t-28 -74.5t28 -74.5t70 -29.5q34 0 66 17q6 3 11 3q8 0 12 -7zM293 547l-68 30
q-14 6 -8 23l61 147q3 13 15 13q5 0 7 -1l102 -35q18 -6 8 -22l-94 -149q-6 -8 -14 -8q-3 0 -9 2z" />
    <glyph glyph-name="Ccircumflex" unicode="&#x108;" horiz-adv-x="627" 
d="M584 630l-68 -104q-8 -10 -18 -10q-6 0 -13 4q-41 28 -100 28q-82 0 -137.5 -58.5t-55.5 -139.5q0 -83 55.5 -140.5t137.5 -57.5q60 0 104 30q5 4 12 4q9 0 15 -10l68 -103q11 -18 -5 -28q-90 -55 -194 -55q-155 0 -257 103t-102 257q0 153 102 256.5t257 103.5
q105 0 191 -53q16 -9 8 -27zM333 945h77q19 0 35 -19l101 -115q11 -13 -2 -26l-37 -46q-5 -6 -11 -6q-9 0 -16 7l-108 91l-109 -91q-7 -7 -15 -7q-6 0 -12 6l-37 46q-14 14 -2 26l101 115q16 19 35 19z" />
    <glyph glyph-name="ccircumflex" unicode="&#x109;" horiz-adv-x="470" 
d="M368 159l70 -99q10 -15 -6 -25q-70 -45 -153 -45q-108 0 -183 76t-75 184t75 184t183 76q81 0 153 -47q16 -13 5 -27l-70 -96q-5 -8 -14 -8q-5 0 -11 3q-30 19 -63 19q-42 0 -70 -29.5t-28 -74.5t28 -74.5t70 -29.5q34 0 66 17q6 3 11 3q8 0 12 -7zM228 749h77
q19 0 35 -19l101 -115q11 -13 -2 -26l-37 -46q-4 -6 -11 -6q-9 0 -16 7l-108 91l-109 -91q-7 -7 -15 -7q-6 0 -12 6l-37 46q-14 14 -2 26l101 115q16 19 35 19z" />
    <glyph glyph-name="Cdotaccent" unicode="&#x10a;" horiz-adv-x="627" 
d="M584 630l-68 -104q-8 -10 -18 -10q-6 0 -13 4q-41 28 -100 28q-82 0 -137.5 -58.5t-55.5 -139.5q0 -83 55.5 -140.5t137.5 -57.5q60 0 104 30q5 4 12 4q9 0 15 -10l68 -103q11 -18 -5 -28q-90 -55 -194 -55q-155 0 -257 103t-102 257q0 153 102 256.5t257 103.5
q105 0 191 -53q16 -9 8 -27zM279 849q0 38 25 63.5t62 25.5q38 0 63.5 -25.5t25.5 -63.5q0 -37 -25.5 -62t-63.5 -25q-37 0 -62 25t-25 62z" />
    <glyph glyph-name="cdotaccent" unicode="&#x10b;" horiz-adv-x="470" 
d="M368 159l70 -99q10 -15 -6 -25q-70 -45 -153 -45q-108 0 -183 76t-75 184t75 184t183 76q81 0 153 -47q16 -13 5 -27l-70 -96q-5 -8 -14 -8q-5 0 -11 3q-30 19 -63 19q-42 0 -70 -29.5t-28 -74.5t28 -74.5t70 -29.5q34 0 66 17q6 3 11 3q8 0 12 -7zM177 662q0 38 25 63.5
t62 25.5q38 0 63.5 -25.5t25.5 -63.5q0 -37 -25.5 -62t-63.5 -25q-37 0 -62 25t-25 62z" />
    <glyph glyph-name="Ccaron" unicode="&#x10c;" horiz-adv-x="627" 
d="M584 630l-68 -104q-8 -10 -18 -10q-6 0 -13 4q-41 28 -100 28q-82 0 -137.5 -58.5t-55.5 -139.5q0 -83 55.5 -140.5t137.5 -57.5q60 0 104 30q5 4 12 4q9 0 15 -10l68 -103q11 -18 -5 -28q-90 -55 -194 -55q-155 0 -257 103t-102 257q0 153 102 256.5t257 103.5
q105 0 191 -53q16 -9 8 -27zM405 754h-77q-16 0 -35 19l-101 115q-11 12 2 27l37 45q6 6 12 6q8 0 15 -7l109 -90l108 90q7 7 16 7q7 0 11 -6l37 -45q13 -15 2 -27l-101 -115q-16 -19 -35 -19z" />
    <glyph glyph-name="ccaron" unicode="&#x10d;" horiz-adv-x="470" 
d="M368 159l70 -99q10 -15 -6 -25q-70 -45 -153 -45q-108 0 -183 76t-75 184t75 184t183 76q81 0 153 -47q16 -13 5 -27l-70 -96q-5 -8 -14 -8q-5 0 -11 3q-30 19 -63 19q-42 0 -70 -29.5t-28 -74.5t28 -74.5t70 -29.5q34 0 66 17q6 3 11 3q8 0 12 -7zM307 541h-77
q-16 0 -35 19l-101 115q-11 12 2 27l37 45q6 6 12 6q8 0 15 -7l109 -90l108 90q7 7 16 7q7 0 11 -6l37 -45q13 -15 2 -27l-101 -115q-16 -19 -35 -19z" />
    <glyph glyph-name="Dcaron" unicode="&#x10e;" horiz-adv-x="710" 
d="M332 0h-254q-19 0 -19 19v662q0 19 19 19h254q150 0 251 -101t101 -249q0 -145 -101.5 -247.5t-250.5 -102.5zM225 538v-376h101q80 0 136 53t56 134q0 84 -56 136.5t-136 52.5h-101zM361 754h-77q-16 0 -35 19l-101 115q-11 12 2 27l37 45q6 6 12 6q8 0 15 -7l109 -90
l108 90q7 7 16 7q7 0 11 -6l37 -45q13 -15 2 -27l-101 -115q-16 -19 -35 -19z" />
    <glyph glyph-name="dcaron" unicode="&#x10f;" horiz-adv-x="771" 
d="M596 530l30 206q2 14 16 14h124q15 0 11 -13l-46 -207q-3 -14 -20 -14h-102q-15 0 -13 14zM186 250q0 -45 28 -74.5t70 -29.5t70.5 30t28.5 74t-28.5 74t-70.5 30t-70 -30t-28 -74zM525 0h-127q-19 0 -19 19v40q-56 -69 -141 -69q-96 0 -156.5 75t-60.5 185
q0 109 60.5 184.5t156.5 75.5q89 0 141 -69v290q0 19 19 19h127q18 0 18 -19v-712q0 -19 -18 -19z" />
    <glyph glyph-name="Dcroat" unicode="&#x110;" horiz-adv-x="710" 
d="M59 19v272h-38q-18 0 -18 18v85q0 18 18 18h38v269q0 19 18 19h255q150 0 251 -101t101 -249q0 -145 -101.5 -247.5t-250.5 -102.5h-255q-18 0 -18 19zM225 538v-126h77q19 0 19 -18v-85q0 -18 -19 -18h-77v-129h101q80 0 136 53t56 134q0 84 -56 136.5t-136 52.5h-101z
" />
    <glyph glyph-name="dcroat" unicode="&#x111;" horiz-adv-x="597" 
d="M585 536h-42v-517q0 -19 -18 -19h-127q-19 0 -19 19v40q-56 -69 -141 -69q-96 0 -156.5 75t-60.5 185q0 109 60.5 184.5t156.5 75.5q89 0 141 -69v95h-75q-19 0 -19 19v77q0 19 19 19h75v80q0 19 19 19h127q18 0 18 -19v-80h42q7 0 12.5 -5.5t5.5 -13.5v-77
q0 -19 -18 -19zM186 250q0 -45 28 -74.5t70 -29.5t70.5 30t28.5 74t-28.5 74t-70.5 30t-70 -30t-28 -74z" />
    <glyph glyph-name="Emacron" unicode="&#x112;" horiz-adv-x="526" 
d="M78 700h403q18 0 18 -19v-125q0 -18 -18 -18h-256v-109h221q18 0 18 -19v-120q0 -19 -18 -19h-221v-109h257q19 0 19 -18v-125q0 -19 -19 -19h-404q-19 0 -19 19v662q0 19 19 19zM127 801v96q0 18 19 18h266q18 0 18 -18v-96q0 -18 -18 -18h-266q-19 0 -19 18z" />
    <glyph glyph-name="emacron" unicode="&#x113;" horiz-adv-x="538" 
d="M285 127q55 0 107 24q6 3 11 3q6 0 15 -9l57 -80q12 -14 -5 -24q-86 -51 -190 -51q-106 0 -182.5 77t-76.5 183q0 104 70 182t176 78q117 0 183.5 -83.5t66.5 -209.5q0 -20 -20 -20h-319q10 -30 39 -50t68 -20zM178 312h180q-20 73 -91 73q-34 0 -57 -20.5t-32 -52.5z
M123 605v96q0 18 19 18h266q18 0 18 -18v-96q0 -18 -18 -18h-266q-19 0 -19 18z" />
    <glyph glyph-name="Ebreve" unicode="&#x114;" horiz-adv-x="526" 
d="M78 700h403q18 0 18 -19v-125q0 -18 -18 -18h-256v-109h221q18 0 18 -19v-120q0 -19 -18 -19h-221v-109h257q19 0 19 -18v-125q0 -19 -19 -19h-404q-19 0 -19 19v662q0 19 19 19zM455 905q-3 -77 -50 -118.5t-124 -41.5q-79 0 -125 41t-50 119q0 9 13 12l79 13
q10 0 13 -11q7 -60 70 -60q62 0 70 60q1 8 3 9.5t9 1.5l79 -13q13 -4 13 -12z" />
    <glyph glyph-name="ebreve" unicode="&#x115;" horiz-adv-x="538" 
d="M285 127q55 0 107 24q6 3 11 3q6 0 15 -9l57 -80q12 -14 -5 -24q-86 -51 -190 -51q-106 0 -182.5 77t-76.5 183q0 104 70 182t176 78q117 0 183.5 -83.5t66.5 -209.5q0 -20 -20 -20h-319q10 -30 39 -50t68 -20zM178 312h180q-20 73 -91 73q-34 0 -57 -20.5t-32 -52.5z
M446 714q-3 -77 -50 -118.5t-124 -41.5q-79 0 -125 41t-50 119q0 9 13 12l79 13q10 0 13 -11q7 -60 70 -60q62 0 70 60q1 8 3.5 9.5t8.5 1.5l79 -13q13 -4 13 -12z" />
    <glyph glyph-name="Edotaccent" unicode="&#x116;" horiz-adv-x="526" 
d="M78 700h403q18 0 18 -19v-125q0 -18 -18 -18h-256v-109h221q18 0 18 -19v-120q0 -19 -18 -19h-221v-109h257q19 0 19 -18v-125q0 -19 -19 -19h-404q-19 0 -19 19v662q0 19 19 19zM189 852q0 38 25 63.5t62 25.5q38 0 63.5 -25.5t25.5 -63.5q0 -37 -25.5 -62t-63.5 -25
q-37 0 -62 25t-25 62z" />
    <glyph glyph-name="edotaccent" unicode="&#x117;" horiz-adv-x="538" 
d="M285 127q55 0 107 24q6 3 11 3q6 0 15 -9l57 -80q12 -14 -5 -24q-86 -51 -190 -51q-106 0 -182.5 77t-76.5 183q0 104 70 182t176 78q117 0 183.5 -83.5t66.5 -209.5q0 -20 -20 -20h-319q10 -30 39 -50t68 -20zM178 312h180q-20 73 -91 73q-34 0 -57 -20.5t-32 -52.5z
M177 667q0 38 25 63.5t62 25.5q38 0 63.5 -25.5t25.5 -63.5q0 -37 -25.5 -62t-63.5 -25q-37 0 -62 25t-25 62z" />
    <glyph glyph-name="Eogonek" unicode="&#x118;" horiz-adv-x="526" 
d="M485 0q-22 -17 -28.5 -40.5t5.5 -41.5t38 -18q10 0 15 1q12 0 12 -9v-82q0 -12 -9 -13q-18 -3 -35 -3q-63 0 -101.5 33.5t-37.5 82.5t43 90h-309q-19 0 -19 19v662q0 19 19 19h403q18 0 18 -19v-125q0 -18 -18 -18h-256v-109h221q18 0 18 -19v-120q0 -19 -18 -19h-221
v-109h257q19 0 19 -18v-125q0 -3 -1.5 -6t-3.5 -4.5l-5.5 -4t-5.5 -4.5z" />
    <glyph glyph-name="eogonek" unicode="&#x119;" horiz-adv-x="538" 
d="M178 312h180q-9 34 -32.5 53.5t-58.5 19.5q-66 0 -89 -73zM222 -3q-83 18 -142 90t-59 163q0 104 70 182t176 78q114 0 182 -85.5t68 -207.5q0 -20 -20 -20h-319q12 -32 40.5 -51t66.5 -19q55 0 107 24q6 3 11 3q6 0 15 -9l57 -80q12 -14 -5 -24q-71 -42 -157 -49
q-27 -27 -20.5 -60t44.5 -33q5 0 17 2q11 0 11 -9l1 -82q0 -12 -10 -13q-18 -3 -36 -3q-46 0 -80 20t-48 49.5t-7 66t37 67.5z" />
    <glyph glyph-name="Ecaron" unicode="&#x11a;" horiz-adv-x="526" 
d="M78 700h403q18 0 18 -19v-125q0 -18 -18 -18h-256v-109h221q18 0 18 -19v-120q0 -19 -18 -19h-221v-109h257q19 0 19 -18v-125q0 -19 -19 -19h-404q-19 0 -19 19v662q0 19 19 19zM319 753h-77q-16 0 -35 19l-101 115q-11 12 2 27l37 45q6 6 12 6q8 0 15 -7l109 -90
l108 90q7 7 16 7q7 0 11 -6l37 -45q13 -15 2 -27l-101 -115q-16 -19 -35 -19z" />
    <glyph glyph-name="ecaron" unicode="&#x11b;" horiz-adv-x="538" 
d="M311 548h-77q-16 0 -35 19l-101 115q-11 12 2 27l37 45q6 6 12 6q8 0 15 -7l109 -90l108 90q7 7 16 7q7 0 11 -6l37 -45q13 -15 2 -27l-101 -115q-16 -19 -35 -19zM285 127q55 0 107 24q6 3 11 3q6 0 15 -9l57 -80q12 -14 -5 -24q-86 -51 -190 -51q-106 0 -182.5 77
t-76.5 183q0 104 70 182t176 78q117 0 183.5 -83.5t66.5 -209.5q0 -20 -20 -20h-319q10 -30 39 -50t68 -20zM178 312h180q-20 73 -91 73q-34 0 -57 -20.5t-32 -52.5z" />
    <glyph glyph-name="Gcircumflex" unicode="&#x11c;" horiz-adv-x="684" 
d="M467 168v86h-84q-19 0 -19 18v101q0 18 19 18h227q19 0 19 -18v-307q0 -15 -14 -23q-101 -53 -230 -53q-155 0 -257 103.5t-102 256.5q0 156 102 258t258 102q106 0 202 -60q19 -9 8 -27l-68 -103q-7 -12 -17 -12q-5 0 -14 6q-49 34 -112 34q-84 0 -138.5 -58.5
t-54.5 -139.5q0 -82 56 -140t137 -58q49 0 82 16zM342 945h77q19 0 35 -19l101 -115q11 -13 -2 -26l-37 -46q-4 -6 -11 -6q-9 0 -16 7l-108 91l-109 -91q-7 -7 -15 -7q-6 0 -12 6l-37 46q-14 14 -2 26l101 115q16 19 35 19z" />
    <glyph glyph-name="gcircumflex" unicode="&#x11d;" horiz-adv-x="597" 
d="M186 252q0 -44 27.5 -71t70.5 -27t71 27t28 71q0 45 -28.5 73.5t-70.5 28.5t-70 -28.5t-28 -73.5zM543 481v-448q0 -126 -80 -207t-206 -81q-58 0 -112 22t-88 57q-12 10 -1 24l64 87q8 8 15 8q5 0 9 -4q41 -38 108 -38q64 0 95.5 34t31.5 81v51q-63 -69 -142 -69
q-96 0 -156 72.5t-60 181.5q0 110 60 184t156 74q77 0 142 -69v40q0 19 19 19h127q18 0 18 -19zM264 749h77q19 0 35 -19l101 -115q11 -13 -2 -26l-37 -46q-4 -6 -11 -6q-9 0 -16 7l-108 91l-109 -91q-7 -7 -15 -7q-6 0 -12 6l-37 46q-14 14 -2 26l101 115q16 19 35 19z" />
    <glyph glyph-name="Gbreve" unicode="&#x11e;" horiz-adv-x="684" 
d="M467 168v86h-84q-19 0 -19 18v101q0 18 19 18h227q19 0 19 -18v-307q0 -15 -14 -23q-101 -53 -230 -53q-155 0 -257 103.5t-102 256.5q0 156 102 258t258 102q106 0 202 -60q19 -9 8 -27l-68 -103q-7 -12 -17 -12q-5 0 -14 6q-49 34 -112 34q-84 0 -138.5 -58.5
t-54.5 -139.5q0 -82 56 -140t137 -58q49 0 82 16zM551 905q-3 -77 -50 -118.5t-124 -41.5q-79 0 -125 41t-50 119q0 9 13 12l79 13q10 0 13 -11q7 -60 70 -60q62 0 70 60q1 8 3 9.5t9 1.5l79 -13q13 -4 13 -12z" />
    <glyph glyph-name="gbreve" unicode="&#x11f;" horiz-adv-x="597" 
d="M186 252q0 -44 27.5 -71t70.5 -27t71 27t28 71q0 45 -28.5 73.5t-70.5 28.5t-70 -28.5t-28 -73.5zM543 481v-448q0 -126 -80 -207t-206 -81q-58 0 -112 22t-88 57q-12 10 -1 24l64 87q8 8 15 8q5 0 9 -4q41 -38 108 -38q64 0 95.5 34t31.5 81v51q-63 -69 -142 -69
q-96 0 -156 72.5t-60 181.5q0 110 60 184t156 74q77 0 142 -69v40q0 19 19 19h127q18 0 18 -19zM475 714q-3 -77 -50 -118.5t-124 -41.5q-79 0 -125 41t-50 119q0 9 13 12l79 13q10 0 13 -11q7 -60 70 -60q62 0 70 60q1 8 3 9.5t9 1.5l79 -13q13 -4 13 -12z" />
    <glyph glyph-name="Gdotaccent" unicode="&#x120;" horiz-adv-x="684" 
d="M467 168v86h-84q-19 0 -19 18v101q0 18 19 18h227q19 0 19 -18v-307q0 -15 -14 -23q-101 -53 -230 -53q-155 0 -257 103.5t-102 256.5q0 156 102 258t258 102q106 0 202 -60q19 -9 8 -27l-68 -103q-7 -12 -17 -12q-5 0 -14 6q-49 34 -112 34q-84 0 -138.5 -58.5
t-54.5 -139.5q0 -82 56 -140t137 -58q49 0 82 16zM285 849q0 38 25 63.5t62 25.5q38 0 63.5 -25.5t25.5 -63.5q0 -37 -25.5 -62t-63.5 -25q-37 0 -62 25t-25 62z" />
    <glyph glyph-name="gdotaccent" unicode="&#x121;" horiz-adv-x="597" 
d="M186 252q0 -44 27.5 -71t70.5 -27t71 27t28 71q0 45 -28.5 73.5t-70.5 28.5t-70 -28.5t-28 -73.5zM543 481v-448q0 -126 -80 -207t-206 -81q-58 0 -112 22t-88 57q-12 10 -1 24l64 87q8 8 15 8q5 0 9 -4q41 -38 108 -38q64 0 95.5 34t31.5 81v51q-63 -69 -142 -69
q-96 0 -156 72.5t-60 181.5q0 110 60 184t156 74q77 0 142 -69v40q0 19 19 19h127q18 0 18 -19zM206 667q0 38 25 63.5t62 25.5q38 0 63.5 -25.5t25.5 -63.5q0 -37 -25.5 -62t-63.5 -25q-37 0 -62 25t-25 62z" />
    <glyph glyph-name="uni0122" unicode="&#x122;" horiz-adv-x="684" 
d="M467 168v86h-84q-19 0 -19 18v101q0 18 19 18h227q19 0 19 -18v-307q0 -15 -14 -23q-98 -53 -230 -53q-155 0 -257 103.5t-102 256.5q0 156 102 258t258 102q106 0 202 -60q19 -9 8 -27l-68 -104q-7 -12 -17 -12q-5 0 -14 6q-51 35 -112 35q-84 0 -138.5 -58.5
t-54.5 -139.5q0 -82 56 -140t137 -58q49 0 82 16zM279 -269l30 206q2 14 16 14h124q15 0 11 -13l-46 -207q-3 -14 -20 -14h-102q-15 0 -13 14z" />
    <glyph glyph-name="uni0123" unicode="&#x123;" horiz-adv-x="597" 
d="M186 252q0 -44 27.5 -71t70.5 -27t71 27t28 71q0 45 -28.5 73.5t-70.5 28.5t-70 -28.5t-28 -73.5zM543 481v-448q0 -126 -80 -207t-206 -81q-58 0 -112 22t-88 57q-12 10 -1 24l64 87q8 8 15 8q5 0 9 -4q41 -38 108 -38q64 0 95.5 34t31.5 81v51q-63 -69 -142 -69
q-96 0 -156 72.5t-60 181.5q0 110 60 184t156 74q77 0 142 -69v40q0 19 19 19h127q18 0 18 -19zM394 781l-30 -205q-2 -15 -16 -15h-124q-16 0 -11 14l46 206q3 14 20 14h102q15 0 13 -14z" />
    <glyph glyph-name="Hcircumflex" unicode="&#x124;" horiz-adv-x="684" 
d="M207 0h-129q-19 0 -19 19v662q0 19 19 19h129q18 0 18 -19v-244h233v244q0 19 19 19h129q19 0 19 -19v-662q0 -19 -19 -19h-129q-19 0 -19 19v251h-233v-251q0 -19 -18 -19zM303 945h77q19 0 35 -19l101 -115q11 -13 -2 -26l-37 -46q-5 -6 -11 -6q-9 0 -16 7l-108 91
l-109 -91q-7 -7 -15 -7q-6 0 -12 6l-37 46q-14 14 -2 26l101 115q16 19 35 19z" />
    <glyph glyph-name="hcircumflex" unicode="&#x125;" 
d="M199 0h-126q-19 0 -19 19v712q0 19 19 19h126q19 0 19 -19v-290q58 69 148 69t139 -57.5t49 -165.5v-268q0 -19 -19 -19h-127q-18 0 -18 19v235q0 44 -21.5 72t-62.5 28q-35 0 -61.5 -28.5t-26.5 -61.5v-245q0 -19 -19 -19zM96 974h77q19 0 35 -19l101 -115
q11 -13 -2 -26l-37 -46q-4 -6 -11 -6q-9 0 -16 7l-108 91l-109 -91q-7 -7 -15 -7q-6 0 -12 6l-37 46q-14 14 -2 26l101 115q16 19 35 19z" />
    <glyph glyph-name="Hbar" unicode="&#x126;" horiz-adv-x="684" 
d="M461 436v64h-233v-64h233zM684 500h-59v-481q0 -19 -19 -19h-129q-19 0 -19 19v251h-233v-251q0 -19 -18 -19h-129q-19 0 -19 19v481h-58q-16 0 -16 19v50q0 11 3.5 14.5t12.5 3.5h58v94q0 19 20 19h128q18 0 18 -19v-94h233v94q0 19 19 19h129q19 0 19 -19v-94h59
q17 0 17 -19v-49q0 -19 -17 -19z" />
    <glyph glyph-name="hbar" unicode="&#x127;" 
d="M218 731v-69h77q19 0 19 -19v-77q0 -19 -19 -19h-77v-106q58 69 148 69t139 -57.5t49 -165.5v-268q0 -19 -19 -19h-127q-18 0 -18 19v235q0 44 -21.5 72t-62.5 28q-35 0 -61.5 -28.5t-26.5 -61.5v-245q0 -19 -19 -19h-126q-19 0 -19 19v528h-41q-19 0 -19 19v77
q0 19 19 19h41v69q0 19 19 19h126q19 0 19 -19z" />
    <glyph glyph-name="Itilde" unicode="&#x128;" horiz-adv-x="274" 
d="M202 -1h-129q-19 0 -19 19v662q0 19 19 19h129q18 0 18 -19v-662q0 -19 -18 -19zM206 885q14 0 29 7.5t24 15l28 24.5q5 4 9 4q5 0 8 -10l20 -78q4 -17 -7 -27q-54 -50 -103 -50q-37 0 -80 26t-64 26q-13 0 -29.5 -8.5t-23 -14l-28.5 -24.5q-5 -5 -9 -5t-8 11l-19 77
q-6 18 6 27q55 51 103 51q38 0 80.5 -26t63.5 -26z" />
    <glyph glyph-name="itilde" unicode="&#x129;" horiz-adv-x="272" 
d="M204 693q14 0 29 7.5t24 15l28 24.5q5 4 9 4q5 0 8 -10l20 -78q4 -17 -7 -27q-54 -50 -103 -50q-37 0 -80 26t-64 26q-13 0 -29.5 -8.5t-23 -14l-28.5 -24.5q-5 -5 -9 -5t-8 11l-19 77q-6 18 6 27q55 51 103 51q38 0 80.5 -26t63.5 -26zM199 0h-126q-19 0 -19 19v462
q0 19 19 19h126q19 0 19 -19v-462q0 -19 -19 -19z" />
    <glyph glyph-name="Imacron" unicode="&#x12a;" horiz-adv-x="274" 
d="M202 0h-129q-19 0 -19 19v662q0 19 19 19h129q18 0 18 -19v-662q0 -19 -18 -19zM-14 822v96q0 18 19 18h266q18 0 18 -18v-96q0 -18 -18 -18h-266q-19 0 -19 18z" />
    <glyph glyph-name="imacron" unicode="&#x12b;" horiz-adv-x="272" 
d="M199 0h-126q-19 0 -19 19v462q0 19 19 19h126q19 0 19 -19v-462q0 -19 -19 -19zM-15 605v96q0 18 19 18h266q18 0 18 -18v-96q0 -18 -18 -18h-266q-19 0 -19 18z" />
    <glyph glyph-name="Iogonek" unicode="&#x12e;" horiz-adv-x="274" 
d="M86 0h-15q-17 0 -17 17v664q0 19 19 19h128q19 0 19 -19v-663q0 -18 -17 -18h-20q-33 -30 -29 -65.5t44 -35.5q5 0 17 2q12 0 12 -9v-82q0 -12 -9 -13q-18 -3 -35 -3q-64 0 -102.5 34t-37.5 83t43 89z" />
    <glyph glyph-name="iogonek" unicode="&#x12f;" horiz-adv-x="272" 
d="M44 671q0 40 26 67t64 27q40 0 67 -27t27 -67q0 -38 -27 -64t-67 -26q-38 0 -64 26t-26 64zM86 0h-15q-17 0 -17 17v464q0 19 19 19h126q19 0 19 -19v-463q0 -18 -17 -18h-18q-33 -30 -29 -65.5t44 -35.5q5 0 17 2q12 0 12 -9v-82q0 -12 -9 -13q-18 -3 -35 -3
q-64 0 -102.5 34t-37.5 83t43 89z" />
    <glyph glyph-name="Idotaccent" unicode="&#x130;" horiz-adv-x="274" 
d="M202 0h-129q-19 0 -19 19v662q0 19 19 19h129q18 0 18 -19v-662q0 -19 -18 -19zM49 852q0 38 25 63.5t62 25.5q38 0 63.5 -25.5t25.5 -63.5q0 -37 -25.5 -62t-63.5 -25q-37 0 -62 25t-25 62z" />
    <glyph glyph-name="dotlessi" unicode="&#x131;" horiz-adv-x="272" 
d="M199 0h-126q-19 0 -19 19v462q0 19 19 19h126q19 0 19 -19v-462q0 -19 -19 -19z" />
    <glyph glyph-name="IJ" unicode="&#x132;" horiz-adv-x="784" 
d="M207 0h-129q-19 0 -19 19v662q0 19 19 19h129q18 0 18 -19v-662q0 -19 -18 -19zM725 681v-452q0 -100 -62 -169.5t-167 -69.5q-102 0 -175 56q-15 13 -6 27l62 100q5 7 12 7q5 0 15 -5q37 -23 78 -23q37 0 57 26.5t20 67.5v435q0 19 19 19h129q18 0 18 -19z" />
    <glyph glyph-name="ij" unicode="&#x133;" horiz-adv-x="608" 
d="M223 0h-127q-19 0 -19 19v462q0 19 19 19h127q18 0 18 -19v-462q0 -19 -18 -19zM67 671q0 40 26.5 67t64.5 27q40 0 66.5 -27t26.5 -67q0 -38 -26.5 -64t-66.5 -26q-38 0 -64.5 26t-26.5 64zM219 -196l48 102q3 9 11 9q2 0 8 -2q19 -11 43 -11q44 0 44 56v523q0 19 18 19
h127q19 0 19 -19v-556q0 -77 -51 -128.5t-134 -51.5q-65 0 -126 36q-14 8 -7 23zM363 671q0 39 26 66.5t64 27.5q39 0 66.5 -27.5t27.5 -66.5q0 -38 -27.5 -64t-66.5 -26q-38 0 -64 26t-26 64z" />
    <glyph glyph-name="Jcircumflex" unicode="&#x134;" horiz-adv-x="494" 
d="M435 681v-452q0 -100 -62.5 -169.5t-167.5 -69.5q-102 0 -175 56q-14 12 -6 27l62 100q6 7 13 7q6 0 14 -5q37 -23 78 -23q37 0 57 26.5t20 67.5v435q0 19 19 19h129q19 0 19 -19zM311 945h77q19 0 35 -19l101 -115q11 -13 -2 -26l-37 -46q-5 -6 -11 -6q-9 0 -16 7
l-108 91l-109 -91q-7 -7 -15 -7q-6 0 -12 6l-37 46q-14 14 -2 26l101 115q16 19 35 19z" />
    <glyph glyph-name="jcircumflex" unicode="&#x135;" horiz-adv-x="302" 
d="M-79 -196l48 102q5 9 12 9q2 0 8 -2q19 -11 42 -11q44 0 44 56v523q0 19 19 19h127q18 0 18 -19v-556q0 -77 -51 -128.5t-133 -51.5q-65 0 -126 36q-14 8 -8 23zM120 749h77q19 0 35 -19l101 -115q11 -13 -2 -26l-37 -46q-4 -6 -11 -6q-9 0 -16 7l-108 91l-109 -91
q-7 -7 -15 -7q-6 0 -12 6l-37 46q-14 14 -2 26l101 115q16 19 35 19z" />
    <glyph glyph-name="uni0136" unicode="&#x136;" horiz-adv-x="678" 
d="M656 0h-156q-21 0 -34 19l-175 265l-66 -73v-192q0 -19 -18 -19h-129q-19 0 -19 19v662q0 19 19 19h129q18 0 18 -19v-245l214 246q15 18 37 18h168q19 0 5 -19l-237 -278l254 -384q5 -8 2.5 -13.5t-12.5 -5.5zM238 -269l29 206q2 14 16 14h125q14 0 10 -13l-45 -207
q-5 -14 -20 -14h-102q-15 0 -13 14z" />
    <glyph glyph-name="uni0137" unicode="&#x137;" horiz-adv-x="555" 
d="M189 -269l29 206q2 14 16 14h125q12 0 11 -13l-46 -207q-5 -14 -20 -14h-102q-15 0 -13 14zM358 18l-102 162l-38 -44v-117q0 -19 -19 -19h-126q-19 0 -19 19v712q0 19 19 19h126q19 0 19 -19v-391l124 145q12 15 33 15h152q8 0 9.5 -6.5t-4.5 -12.5l-152 -193l162 -269
q12 -19 -4 -19h-144q-23 0 -36 18z" />
    <glyph glyph-name="kgreenlandic" unicode="&#x138;" horiz-adv-x="555" 
d="M358 18l-102 162l-38 -44v-117q0 -19 -19 -19h-126q-19 0 -19 19v462q0 19 19 19h126q19 0 19 -19v-141l124 145q12 15 33 15h152q8 0 9.5 -6.5t-4.5 -12.5l-152 -193l162 -269q12 -19 -4 -19h-144q-23 0 -36 18z" />
    <glyph glyph-name="Lacute" unicode="&#x139;" horiz-adv-x="481" 
d="M441 0h-363q-19 0 -19 19v662q0 19 19 19h129q18 0 18 -19v-519h216q18 0 18 -18v-125q0 -19 -18 -19zM167 743l-68 30q-14 6 -8 23l61 147q3 13 15 13q5 0 7 -1l102 -35q18 -6 8 -22l-94 -149q-6 -8 -14 -8q-3 0 -9 2z" />
    <glyph glyph-name="lacute" unicode="&#x13a;" horiz-adv-x="280" 
d="M207 0h-126q-19 0 -19 19v712q0 19 19 19h126q19 0 19 -19v-712q0 -19 -19 -19zM171 775l-68 30q-14 6 -8 23l61 147q3 13 15 13q5 0 7 -1l102 -35q18 -6 8 -22l-94 -149q-6 -8 -14 -8q-3 0 -9 2z" />
    <glyph glyph-name="uni013B" unicode="&#x13b;" horiz-adv-x="481" 
d="M441 0h-363q-19 0 -19 19v662q0 19 19 19h129q18 0 18 -19v-519h216q18 0 18 -18v-125q0 -19 -18 -19zM153 -269l29 206q2 14 16 14h125q12 0 11 -13l-46 -207q-5 -14 -20 -14h-102q-15 0 -13 14z" />
    <glyph glyph-name="uni013C" unicode="&#x13c;" horiz-adv-x="272" 
d="M200 0h-127q-19 0 -19 19v712q0 19 19 19h127q18 0 18 -19v-712q0 -19 -18 -19zM30 -269l30 206q2 14 16 14h124q15 0 11 -13l-46 -207q-3 -14 -20 -14h-102q-15 0 -13 14z" />
    <glyph glyph-name="Lcaron" unicode="&#x13d;" horiz-adv-x="511" 
d="M441 0h-363q-19 0 -19 19v662q0 19 19 19h129q18 0 18 -19v-519h216q18 0 18 -18v-125q0 -19 -18 -19zM327 480l30 206q2 14 16 14h124q15 0 11 -13l-46 -207q-3 -14 -20 -14h-102q-15 0 -13 14z" />
    <glyph glyph-name="lcaron" unicode="&#x13e;" horiz-adv-x="435" 
d="M199 0h-126q-19 0 -19 19v712q0 19 19 19h126q19 0 19 -19v-712q0 -19 -19 -19zM270 530l29 206q2 14 16 14h125q15 0 11 -13l-46 -207q-3 -14 -20 -14h-102q-15 0 -13 14z" />
    <glyph glyph-name="Ldot" unicode="&#x13f;" horiz-adv-x="510" 
d="M441 0h-363q-19 0 -19 19v662q0 19 19 19h129q18 0 18 -19v-519h216q18 0 18 -18v-125q0 -19 -18 -19zM320 434q0 38 25 63.5t62 25.5q38 0 63.5 -25.5t25.5 -63.5q0 -37 -25.5 -62t-63.5 -25q-37 0 -62 25t-25 62z" />
    <glyph glyph-name="ldot" unicode="&#x140;" horiz-adv-x="464" 
d="M203 0h-126q-19 0 -19 19v712q0 19 19 19h126q19 0 19 -19v-712q0 -19 -19 -19zM298 376q0 38 25 63.5t62 25.5q38 0 63.5 -25.5t25.5 -63.5q0 -37 -25.5 -62t-63.5 -25q-37 0 -62 25t-25 62z" />
    <glyph glyph-name="Lslash" unicode="&#x141;" horiz-adv-x="481" 
d="M59 19v250l-38 -14q-6 -2 -8 -2q-10 0 -16 14l-26 74q-6 15 11 23l77 27v290q0 19 19 19h129q18 0 18 -19v-232l127 45q6 2 9 2q9 0 15 -12l26 -75q5 -17 -13 -23l-164 -59v-165h216q18 0 18 -18v-125q0 -19 -18 -19h-363q-19 0 -19 19z" />
    <glyph glyph-name="lslash" unicode="&#x142;" horiz-adv-x="435" 
d="M131 19v276l-90 -34q-2 -1 -6 -1q-5 0 -9.5 3t-6.5 6t-2 4l-26 74q-1 1 -1.5 5t2 10t10.5 9l129 48v312q0 19 18 19h127q19 0 19 -19v-257l101 37q3 1 7 1q12 0 16 -12l26 -74q3 -9 -4 -18q-2 -3 -7 -5l-139 -50v-334q0 -19 -19 -19h-127q-18 0 -18 19z" />
    <glyph glyph-name="Nacute" unicode="&#x143;" horiz-adv-x="748" 
d="M670 0h-130q-19 0 -32 19l-283 393v-393q0 -19 -18 -19h-129q-19 0 -19 19v662q0 19 19 19h130q19 0 32 -19l283 -393v393q0 19 18 19h129q19 0 19 -19v-662q0 -19 -19 -19zM386 744l-68 30q-14 6 -8 23l61 147q3 13 15 13q5 0 7 -1l102 -35q18 -6 8 -22l-94 -149
q-6 -8 -14 -8q-3 0 -9 2z" />
    <glyph glyph-name="nacute" unicode="&#x144;" 
d="M535 0h-127q-18 0 -18 19v235q0 44 -21.5 72t-62.5 28q-35 0 -61.5 -27t-26.5 -60v-248q0 -19 -19 -19h-126q-19 0 -19 19v462q0 19 19 19h126q19 0 19 -19v-46q60 75 148 75q90 0 139 -57.5t49 -165.5v-268q0 -19 -19 -19zM318 547l-68 30q-14 6 -8 23l61 147
q3 13 15 13q5 0 7 -1l102 -35q18 -6 8 -22l-94 -149q-6 -8 -14 -8q-3 0 -9 2z" />
    <glyph glyph-name="uni0145" unicode="&#x145;" horiz-adv-x="748" 
d="M670 0h-130q-19 0 -32 19l-283 393v-393q0 -19 -18 -19h-129q-19 0 -19 19v662q0 19 19 19h130q19 0 32 -19l283 -393v393q0 19 18 19h129q19 0 19 -19v-662q0 -19 -19 -19zM268 -269l29 206q2 14 16 14h125q15 0 11 -13l-46 -207q-3 -14 -20 -14h-102q-15 0 -13 14z" />
    <glyph glyph-name="uni0146" unicode="&#x146;" 
d="M535 0h-127q-18 0 -18 19v235q0 44 -21.5 72t-62.5 28q-35 0 -61.5 -27t-26.5 -60v-248q0 -19 -19 -19h-126q-19 0 -19 19v462q0 19 19 19h126q19 0 19 -19v-46q60 75 148 75q90 0 139 -57.5t49 -165.5v-268q0 -19 -19 -19zM198 -269l29 206q2 14 16 14h125q12 0 11 -13
l-46 -207q-5 -14 -20 -14h-102q-15 0 -13 14z" />
    <glyph glyph-name="Ncaron" unicode="&#x147;" horiz-adv-x="748" 
d="M670 0h-130q-19 0 -32 19l-283 393v-393q0 -19 -18 -19h-129q-19 0 -19 19v662q0 19 19 19h130q19 0 32 -19l283 -393v393q0 19 18 19h129q19 0 19 -19v-662q0 -19 -19 -19zM411 753h-77q-16 0 -35 19l-101 115q-11 12 2 27l37 45q6 6 12 6q8 0 15 -7l109 -90l108 90
q7 7 16 7q7 0 11 -6l37 -45q13 -15 2 -27l-101 -115q-16 -19 -35 -19z" />
    <glyph glyph-name="ncaron" unicode="&#x148;" 
d="M535 0h-127q-18 0 -18 19v235q0 44 -21.5 72t-62.5 28q-35 0 -61.5 -27t-26.5 -60v-248q0 -19 -19 -19h-126q-19 0 -19 19v462q0 19 19 19h126q19 0 19 -19v-46q60 75 148 75q90 0 139 -57.5t49 -165.5v-268q0 -19 -19 -19zM340 541h-77q-16 0 -35 19l-101 115
q-11 12 2 27l37 45q6 6 12 6q8 0 15 -7l109 -90l108 90q7 7 16 7q6 0 11 -6l37 -45q13 -15 2 -27l-101 -115q-16 -19 -35 -19z" />
    <glyph glyph-name="napostrophe" unicode="&#x149;" 
d="M535 0h-127q-18 0 -18 19v235q0 44 -21.5 72t-62.5 28q-35 0 -61.5 -27t-26.5 -60v-248q0 -19 -19 -19h-126q-19 0 -19 19v462q0 19 19 19h126q19 0 19 -19v-46q60 75 148 75q90 0 139 -57.5t49 -165.5v-268q0 -19 -19 -19zM25 562l24 174q2 14 16 14h125q14 0 10 -13
l-40 -175q-3 -14 -20 -14h-102q-15 0 -13 14z" />
    <glyph glyph-name="Omacron" unicode="&#x14c;" horiz-adv-x="772" 
d="M385 710q152 0 256.5 -104.5t104.5 -255.5t-104.5 -255.5t-256.5 -104.5t-255.5 103.5t-103.5 256.5q0 152 103.5 256t255.5 104zM385 152q83 0 139 58t56 140q0 81 -56.5 139.5t-138.5 58.5t-137.5 -58.5t-55.5 -139.5q0 -83 55.5 -140.5t137.5 -57.5zM235 801v96
q0 18 19 18h266q18 0 18 -18v-96q0 -18 -18 -18h-266q-19 0 -19 18z" />
    <glyph glyph-name="omacron" unicode="&#x14d;" horiz-adv-x="559" 
d="M21 250q0 108 75 184t183 76t183.5 -76t75.5 -184t-75.5 -184t-183.5 -76t-183 76t-75 184zM181 250q0 -45 28 -74.5t70 -29.5t70.5 30t28.5 74t-28.5 74t-70.5 30t-70 -29.5t-28 -74.5zM128 605v96q0 18 19 18h266q18 0 18 -18v-96q0 -18 -18 -18h-266q-19 0 -19 18z
" />
    <glyph glyph-name="Obreve" unicode="&#x14e;" horiz-adv-x="772" 
d="M385 710q152 0 256.5 -104.5t104.5 -255.5t-104.5 -255.5t-256.5 -104.5t-255.5 103.5t-103.5 256.5q0 152 103.5 256t255.5 104zM385 152q83 0 139 58t56 140q0 81 -56.5 139.5t-138.5 58.5t-137.5 -58.5t-55.5 -139.5q0 -83 55.5 -140.5t137.5 -57.5zM560 905
q-3 -77 -50 -118.5t-124 -41.5q-79 0 -125 41t-50 119q0 9 13 12l79 13q10 0 13 -11q7 -60 70 -60q62 0 70 60q1 8 3.5 9.5t8.5 1.5l79 -13q13 -4 13 -12z" />
    <glyph glyph-name="obreve" unicode="&#x14f;" horiz-adv-x="559" 
d="M21 250q0 108 75 184t183 76t183.5 -76t75.5 -184t-75.5 -184t-183.5 -76t-183 76t-75 184zM181 250q0 -45 28 -74.5t70 -29.5t70.5 30t28.5 74t-28.5 74t-70.5 30t-70 -29.5t-28 -74.5zM454 714q-3 -77 -50 -118.5t-124 -41.5q-79 0 -125 41t-50 119q0 9 13 12l79 13
q10 0 13 -11q7 -60 70 -60q62 0 70 60q1 8 3.5 9.5t8.5 1.5l79 -13q13 -4 13 -12z" />
    <glyph glyph-name="Ohungarumlaut" unicode="&#x150;" horiz-adv-x="772" 
d="M385 710q152 0 256.5 -104.5t104.5 -255.5t-104.5 -255.5t-256.5 -104.5t-255.5 103.5t-103.5 256.5q0 152 103.5 256t255.5 104zM385 152q83 0 139 58t56 140q0 81 -56.5 139.5t-138.5 58.5t-137.5 -58.5t-55.5 -139.5q0 -83 55.5 -140.5t137.5 -57.5zM314 744l-65 27
q-17 8 -11 24l59 150q3 13 16 13q3 0 9 -2l99 -35q17 -6 8 -22l-89 -147q-7 -10 -17 -10q-3 0 -9 2zM510 744l-65 27q-17 8 -11 24l59 150q3 13 16 13q3 0 9 -2l105 -37q16 -4 8 -21l-95 -146q-7 -10 -17 -10q-3 0 -9 2z" />
    <glyph glyph-name="ohungarumlaut" unicode="&#x151;" horiz-adv-x="559" 
d="M21 250q0 108 75 184t183 76t183.5 -76t75.5 -184t-75.5 -184t-183.5 -76t-183 76t-75 184zM181 250q0 -45 28 -74.5t70 -29.5t70.5 30t28.5 74t-28.5 74t-70.5 30t-70 -29.5t-28 -74.5zM212 536l-65 27q-17 8 -11 24l59 150q3 13 16 13q3 0 9 -2l99 -35q17 -6 8 -22
l-89 -147q-7 -10 -17 -10q-3 0 -9 2zM408 536l-65 27q-17 8 -11 24l59 150q3 13 16 13q3 0 9 -2l105 -37q16 -4 8 -21l-95 -146q-7 -10 -17 -10q-3 0 -9 2z" />
    <glyph glyph-name="OE" unicode="&#x152;" horiz-adv-x="1118" 
d="M385 152q81 0 138 58.5t57 139.5t-57 139.5t-138 58.5q-82 0 -137.5 -58.5t-55.5 -139.5t55.5 -139.5t137.5 -58.5zM1074 -10h-676q-159 0 -265.5 104.5t-106.5 255.5q0 152 104 256t256 104h688q19 0 19 -19v-124q0 -19 -19 -19h-402q51 -41 64 -116h303q19 0 19 -19
v-124q0 -19 -19 -19h-303q-12 -73 -64 -118h402q19 0 19 -19v-124q0 -19 -19 -19z" />
    <glyph glyph-name="oe" unicode="&#x153;" horiz-adv-x="895" 
d="M378 250q0 44 -28.5 74t-70.5 30t-70 -29.5t-28 -74.5t28 -74.5t70 -29.5t70.5 30t28.5 74zM461 73q-72 -83 -182 -83q-108 0 -183 76t-75 184t75 184t183 76q110 0 178 -80q69 80 166 80q118 0 184 -85t66 -208q0 -20 -20 -20h-319q12 -32 41 -51t67 -19q54 0 107 24
q6 3 11 3q6 0 15 -9l57 -80q10 -16 -5 -24q-86 -51 -190 -51q-107 0 -176 83zM534 312h180q-21 73 -91 73q-66 0 -89 -73z" />
    <glyph glyph-name="Racute" unicode="&#x154;" horiz-adv-x="598" 
d="M299 550h-74v-172h74q50 0 76 23t26 63t-26 63t-76 23zM437 254l145 -235q12 -19 -10 -19h-143q-22 0 -32 19l-130 209h-42v-209q0 -19 -18 -19h-129q-19 0 -19 19v662q0 19 19 19h261q103 0 166.5 -68t63.5 -168q0 -78 -42 -133.5t-90 -76.5zM302 744l-68 30
q-14 6 -8 23l61 147q3 13 15 13q5 0 7 -1l102 -35q18 -6 8 -22l-94 -149q-6 -8 -14 -8q-3 0 -9 2z" />
    <glyph glyph-name="racute" unicode="&#x155;" horiz-adv-x="427" 
d="M73 500h126q19 0 19 -19v-54h1q15 33 48.5 58t73.5 25q50 0 78 -17q11 -7 6 -28l-34 -117q-5 -9 -14 -9q-6 0 -10 2q-21 8 -44 8q-46 0 -75.5 -32.5t-29.5 -90.5v-207q0 -19 -19 -19h-126q-19 0 -19 19v462q0 19 19 19zM268 547l-68 30q-14 6 -8 23l61 147q3 13 15 13
q5 0 7 -1l102 -35q18 -6 8 -22l-94 -149q-6 -8 -14 -8q-3 0 -9 2z" />
    <glyph glyph-name="uni0156" unicode="&#x156;" horiz-adv-x="598" 
d="M217 -269l30 206q2 14 16 14h124q15 0 11 -13l-46 -207q-3 -14 -20 -14h-102q-15 0 -13 14zM300 550h-75v-172h75q51 0 77 23t26 63t-26.5 63t-76.5 23zM437 254l145 -235q12 -19 -10 -19h-143q-22 0 -32 19l-130 209h-42v-209q0 -19 -18 -19h-129q-19 0 -19 19v662
q0 19 19 19h261q103 0 166.5 -68t63.5 -168q0 -78 -42 -133.5t-90 -76.5z" />
    <glyph glyph-name="uni0157" unicode="&#x157;" horiz-adv-x="428" 
d="M30 -269l29 206q2 14 16 14h125q15 0 11 -13l-46 -207q-3 -14 -20 -14h-102q-15 0 -13 14zM73 500h126q19 0 19 -19v-54h1q15 33 48.5 58t73.5 25q50 0 78 -17q11 -7 6 -28l-34 -117q-5 -9 -14 -9q-6 0 -10 2q-21 8 -44 8q-46 0 -75.5 -32.5t-29.5 -90.5v-207
q0 -19 -19 -19h-126q-19 0 -19 19v462q0 19 19 19z" />
    <glyph glyph-name="Rcaron" unicode="&#x158;" horiz-adv-x="598" 
d="M299 550h-74v-172h74q50 0 76 23t26 63t-26 63t-76 23zM437 254l145 -235q12 -19 -10 -19h-143q-22 0 -32 19l-130 209h-42v-209q0 -19 -18 -19h-129q-19 0 -19 19v662q0 19 19 19h261q103 0 166.5 -68t63.5 -168q0 -78 -42 -133.5t-90 -76.5zM324 753h-77q-16 0 -35 19
l-101 115q-11 12 2 27l37 45q6 6 12 6q8 0 15 -7l109 -90l108 90q7 7 16 7q7 0 11 -6l37 -45q13 -15 2 -27l-101 -115q-16 -19 -35 -19z" />
    <glyph glyph-name="rcaron" unicode="&#x159;" horiz-adv-x="428" 
d="M73 500h126q19 0 19 -19v-54h1q15 33 48.5 58t73.5 25q50 0 78 -17q11 -7 6 -28l-34 -117q-5 -9 -14 -9q-6 0 -10 2q-21 8 -44 8q-46 0 -75.5 -32.5t-29.5 -90.5v-207q0 -19 -19 -19h-126q-19 0 -19 19v462q0 19 19 19zM285 544h-77q-16 0 -35 19l-101 115q-11 12 2 27
l37 45q6 6 12 6q8 0 15 -7l109 -90l108 90q7 7 16 7q7 0 11 -6l37 -45q13 -15 2 -27l-101 -115q-16 -19 -35 -19z" />
    <glyph glyph-name="Sacute" unicode="&#x15a;" horiz-adv-x="536" 
d="M474 627l-66 -99q-4 -9 -16 -9q-6 0 -13 4q-49 28 -108 28q-28 0 -46 -12t-18 -33q0 -17 16.5 -31t42.5 -24.5l58 -22.5t64 -30t58 -42t42.5 -62.5t16.5 -87.5q0 -37 -14 -73.5t-42 -69t-77 -53t-111 -20.5q-116 0 -225 82q-14 13 -6 26l65 99q7 9 16 9q6 0 13 -5
q70 -52 139 -52q38 0 56.5 15t18.5 39q0 27 -30.5 46t-74 35.5t-87.5 39.5t-74.5 69t-30.5 112q0 91 68 148t170 57q96 0 188 -56q16 -10 7 -27zM295 743l-68 30q-14 6 -8 23l61 147q3 13 15 13q5 0 7 -1l102 -35q18 -6 8 -22l-94 -149q-6 -8 -14 -8q-3 0 -9 2z" />
    <glyph glyph-name="sacute" unicode="&#x15b;" horiz-adv-x="438" 
d="M121 167q53 -41 99 -41q43 0 43 24q0 14 -23.5 25t-56.5 23t-66.5 28.5t-57 50.5t-23.5 81q0 66 53.5 109t132.5 43q103 0 166 -61q11 -13 -2 -26l-64 -69q-7 -7 -14 -7q-6 0 -14 5q-40 23 -71 23q-37 0 -37 -17q0 -11 23.5 -21t57 -22t66.5 -29.5t56.5 -52.5t23.5 -83
q0 -67 -53.5 -113.5t-142.5 -46.5q-115 0 -190 81q-13 15 3 31l60 65q7 7 15 7q9 0 16 -7zM247 547l-68 30q-14 6 -8 23l61 147q3 13 15 13q5 0 7 -1l102 -35q18 -6 8 -22l-94 -149q-6 -8 -14 -8q-3 0 -9 2z" />
    <glyph glyph-name="Scircumflex" unicode="&#x15c;" horiz-adv-x="536" 
d="M474 627l-66 -99q-4 -9 -16 -9q-6 0 -13 4q-49 28 -108 28q-28 0 -46 -12t-18 -33q0 -17 16.5 -31t42.5 -24.5l58 -22.5t64 -30t58 -42t42.5 -62.5t16.5 -87.5q0 -37 -14 -73.5t-42 -69t-77 -53t-111 -20.5q-116 0 -225 82q-14 13 -6 26l65 99q7 9 16 9q6 0 13 -5
q70 -52 139 -52q38 0 56.5 15t18.5 39q0 27 -30.5 46t-74 35.5t-87.5 39.5t-74.5 69t-30.5 112q0 91 68 148t170 57q96 0 188 -56q16 -10 7 -27zM232 945h77q19 0 35 -19l101 -115q11 -13 -2 -26l-37 -46q-4 -6 -11 -6q-9 0 -16 7l-108 91l-109 -91q-7 -7 -15 -7q-6 0 -12 6
l-37 46q-14 14 -2 26l101 115q16 19 35 19z" />
    <glyph glyph-name="scircumflex" unicode="&#x15d;" horiz-adv-x="438" 
d="M121 167q53 -41 99 -41q43 0 43 24q0 14 -23.5 25t-56.5 23t-66.5 28.5t-57 50.5t-23.5 81q0 66 53.5 109t132.5 43q103 0 166 -61q11 -13 -2 -26l-64 -69q-7 -7 -14 -7q-6 0 -14 5q-40 23 -71 23q-37 0 -37 -17q0 -11 23.5 -21t57 -22t66.5 -29.5t56.5 -52.5t23.5 -83
q0 -67 -53.5 -113.5t-142.5 -46.5q-115 0 -190 81q-13 15 3 31l60 65q7 7 15 7q9 0 16 -7zM183 749h77q19 0 35 -19l101 -115q11 -13 -2 -26l-37 -46q-5 -6 -11 -6q-9 0 -16 7l-108 91l-109 -91q-7 -7 -15 -7q-6 0 -12 6l-37 46q-14 14 -2 26l101 115q16 19 35 19z" />
    <glyph glyph-name="Scedilla" unicode="&#x15e;" horiz-adv-x="537" 
d="M166 -160l54 152q-92 13 -184 80q-14 13 -6 26l65 99q7 9 16 9q6 0 13 -5q70 -52 139 -52q38 0 56.5 15t18.5 39q0 27 -30.5 46t-74 35.5t-87.5 39t-74.5 69t-30.5 112.5q0 91 68 148t170 57q96 0 188 -56q16 -10 7 -27l-66 -99q-4 -9 -15 -9q-7 0 -14 4q-46 28 -108 28
q-27 0 -45.5 -12t-18.5 -33q0 -20 22 -36t55.5 -27t72.5 -30t72 -42t55 -66t21 -99q0 -72 -45.5 -129.5t-120.5 -75.5l-28 -161q-3 -14 -20 -14h-112q-7 0 -11 4t-2 10z" />
    <glyph glyph-name="scedilla" unicode="&#x15f;" horiz-adv-x="438" 
d="M288 0l-27 -160q-3 -14 -20 -14h-113q-7 0 -11 4t-2 10l55 155q-89 15 -143 76q-13 15 3 31l60 65q7 7 15 7q9 0 16 -7q50 -41 99 -41q43 0 43 24q0 14 -23.5 25t-56.5 23t-66.5 28.5t-57 50.5t-23.5 81q0 66 53.5 109t132.5 43q103 0 166 -61q11 -13 -2 -26l-64 -69
q-7 -7 -14 -7q-8 0 -14 5q-38 23 -71 23q-37 0 -37 -17q0 -11 23.5 -21t57 -22t66.5 -29.5t56.5 -52.5t23.5 -83q0 -53 -33.5 -93.5t-91.5 -56.5z" />
    <glyph glyph-name="Scaron" unicode="&#x160;" horiz-adv-x="536" 
d="M474 627l-66 -99q-4 -9 -16 -9q-6 0 -13 4q-49 28 -108 28q-28 0 -46 -12t-18 -33q0 -17 16.5 -31t42.5 -24.5l58 -22.5t64 -30t58 -42t42.5 -62.5t16.5 -87.5q0 -37 -14 -73.5t-42 -69t-77 -53t-111 -20.5q-116 0 -225 82q-14 13 -6 26l65 99q7 9 16 9q6 0 13 -5
q70 -52 139 -52q38 0 56.5 15t18.5 39q0 27 -30.5 46t-74 35.5t-87.5 39.5t-74.5 69t-30.5 112q0 91 68 148t170 57q96 0 188 -56q16 -10 7 -27zM308 753h-77q-16 0 -35 19l-101 115q-11 12 2 27l37 45q6 6 12 6q8 0 15 -7l109 -90l108 90q7 7 16 7q6 0 11 -6l37 -45
q13 -15 2 -27l-101 -115q-16 -19 -35 -19z" />
    <glyph glyph-name="scaron" unicode="&#x161;" horiz-adv-x="438" 
d="M121 167q53 -41 99 -41q43 0 43 24q0 14 -23.5 25t-56.5 23t-66.5 28.5t-57 50.5t-23.5 81q0 66 53.5 109t132.5 43q103 0 166 -61q11 -13 -2 -26l-64 -69q-7 -7 -14 -7q-6 0 -14 5q-40 23 -71 23q-37 0 -37 -17q0 -11 23.5 -21t57 -22t66.5 -29.5t56.5 -52.5t23.5 -83
q0 -67 -53.5 -113.5t-142.5 -46.5q-115 0 -190 81q-13 15 3 31l60 65q7 7 15 7q9 0 16 -7zM259 547h-77q-16 0 -35 19l-101 115q-11 12 2 27l37 45q6 6 12 6q8 0 15 -7l109 -90l108 90q7 7 16 7q7 0 11 -6l37 -45q13 -15 2 -27l-101 -115q-16 -19 -35 -19z" />
    <glyph glyph-name="uni0162" unicode="&#x162;" horiz-adv-x="574" 
d="M351 0h-129q-18 0 -18 19v519h-169q-19 0 -19 18v125q0 19 19 19h504q19 0 19 -19v-125q0 -18 -19 -18h-169v-519q0 -19 -19 -19zM180 -269l30 206q2 14 16 14h125q14 0 10 -13l-45 -207q-5 -14 -20 -14h-103q-15 0 -13 14z" />
    <glyph glyph-name="uni0163" unicode="&#x163;" horiz-adv-x="434" 
d="M361 153l49 -103q5 -15 -8 -23q-65 -37 -138 -37q-85 0 -130.5 46t-45.5 131v183h-42q-19 0 -19 19v112q0 19 19 19h42v129q0 19 18 19h127q19 0 19 -19v-129h111q19 0 19 -19v-112q0 -19 -19 -19h-111v-161q0 -43 42 -43q22 0 48 13q3 1 7 1q8 0 12 -7zM115 -269l29 206
q2 14 16 14h125q14 0 10 -13l-45 -207q-5 -14 -20 -14h-103q-14 0 -12 14z" />
    <glyph glyph-name="Tcaron" unicode="&#x164;" horiz-adv-x="574" 
d="M351 0h-129q-18 0 -18 19v519h-169q-19 0 -19 18v125q0 19 19 19h504q19 0 19 -19v-125q0 -18 -19 -18h-169v-519q0 -19 -19 -19zM325 753h-77q-16 0 -35 19l-101 115q-11 12 2 27l37 45q6 6 12 6q8 0 15 -7l109 -90l108 90q7 7 16 7q7 0 11 -6l37 -45q13 -15 2 -27
l-101 -115q-16 -19 -35 -19z" />
    <glyph glyph-name="tcaron" unicode="&#x165;" horiz-adv-x="496" 
d="M308 566l29 206q2 14 16 14h125q12 0 11 -13l-46 -207q-5 -14 -20 -14h-102q-15 0 -13 14zM361 153l49 -103q5 -15 -8 -23q-65 -37 -138 -37q-85 0 -130.5 46t-45.5 131v183h-42q-19 0 -19 19v112q0 19 19 19h42v129q0 19 18 19h127q19 0 19 -19v-129h111q19 0 19 -19
v-112q0 -19 -19 -19h-111v-161q0 -43 42 -43q22 0 48 13q3 1 7 1q8 0 12 -7z" />
    <glyph glyph-name="Tbar" unicode="&#x166;" horiz-adv-x="574" 
d="M204 19v218h-140q-18 0 -18 18v126q0 18 18 18h140v139h-169q-19 0 -19 18v125q0 19 19 19h504q19 0 19 -19v-125q0 -18 -19 -18h-169v-139h139q19 0 19 -18v-126q0 -18 -19 -18h-139v-218q0 -19 -19 -19h-129q-18 0 -18 19z" />
    <glyph glyph-name="tbar" unicode="&#x167;" horiz-adv-x="434" 
d="M313 226h-61v-37q0 -43 42 -43q22 0 48 13q3 1 7 1q8 0 12 -7l49 -103q5 -15 -8 -23q-65 -37 -138 -37q-85 0 -130.5 46t-45.5 131v59h-26q-19 0 -19 19v32q0 18 19 18h26v55h-42q-19 0 -19 19v112q0 19 19 19h42v129q0 19 18 19h127q19 0 19 -19v-129h111q19 0 19 -19
v-112q0 -19 -19 -19h-111v-55h61q19 0 19 -18v-32q0 -19 -19 -19z" />
    <glyph glyph-name="Utilde" unicode="&#x168;" horiz-adv-x="694" 
d="M75 700h129q18 0 18 -19v-374q0 -155 125 -155t125 155v374q0 19 19 19h129q18 0 18 -19v-405q0 -127 -80 -206.5t-211 -79.5q-132 0 -211.5 79.5t-79.5 206.5v405q0 19 19 19zM416 885q14 0 29 7.5t24 15l28 24.5q5 4 9 4q5 0 8 -10l20 -78q4 -17 -7 -27
q-54 -50 -103 -50q-37 0 -80 26t-64 26q-13 0 -29.5 -8.5t-23 -14l-28.5 -24.5q-5 -5 -9 -5t-8 11l-19 77q-6 18 6 27q55 51 103 51q38 0 80.5 -26t63.5 -26z" />
    <glyph glyph-name="utilde" unicode="&#x169;" 
d="M66 500h126q19 0 19 -19v-235q0 -45 21 -72.5t63 -27.5q35 0 61.5 27t26.5 60v248q0 19 18 19h127q19 0 19 -19v-462q0 -19 -19 -19h-127q-18 0 -18 19v46q-60 -75 -148 -75q-90 0 -139 57.5t-49 165.5v268q0 19 19 19zM363 693q14 0 29 7.5t24 15l28 24.5q5 4 9 4
q5 0 8 -10l20 -78q4 -17 -7 -27q-54 -50 -103 -50q-37 0 -80 26t-64 26q-13 0 -29.5 -8.5t-23 -14l-28.5 -24.5q-5 -5 -9 -5t-8 11l-19 77q-6 18 6 27q55 51 103 51q38 0 80.5 -26t63.5 -26z" />
    <glyph glyph-name="Umacron" unicode="&#x16a;" horiz-adv-x="694" 
d="M75 700h129q18 0 18 -19v-374q0 -155 125 -155t125 155v374q0 19 19 19h129q18 0 18 -19v-405q0 -127 -80 -206.5t-211 -79.5q-132 0 -211.5 79.5t-79.5 206.5v405q0 19 19 19zM196 801v96q0 18 19 18h266q18 0 18 -18v-96q0 -18 -18 -18h-266q-19 0 -19 18z" />
    <glyph glyph-name="umacron" unicode="&#x16b;" 
d="M66 500h126q19 0 19 -19v-235q0 -45 21 -72.5t63 -27.5q35 0 61.5 27t26.5 60v248q0 19 18 19h127q19 0 19 -19v-462q0 -19 -19 -19h-127q-18 0 -18 19v46q-60 -75 -148 -75q-90 0 -139 57.5t-49 165.5v268q0 19 19 19zM142 605v96q0 18 19 18h266q18 0 18 -18v-96
q0 -18 -18 -18h-266q-19 0 -19 18z" />
    <glyph glyph-name="Ubreve" unicode="&#x16c;" horiz-adv-x="694" 
d="M75 700h129q18 0 18 -19v-374q0 -155 125 -155t125 155v374q0 19 19 19h129q18 0 18 -19v-405q0 -127 -80 -206.5t-211 -79.5q-132 0 -211.5 79.5t-79.5 206.5v405q0 19 19 19zM522 905q-3 -77 -50 -118.5t-124 -41.5q-79 0 -125 41t-50 119q0 9 13 12l79 13q10 0 13 -11
q7 -60 70 -60q62 0 70 60q1 8 3.5 9.5t8.5 1.5l79 -13q13 -4 13 -12z" />
    <glyph glyph-name="ubreve" unicode="&#x16d;" 
d="M66 500h126q19 0 19 -19v-235q0 -45 21 -72.5t63 -27.5q35 0 61.5 27t26.5 60v248q0 19 18 19h127q19 0 19 -19v-462q0 -19 -19 -19h-127q-18 0 -18 19v46q-60 -75 -148 -75q-90 0 -139 57.5t-49 165.5v268q0 19 19 19zM475 701q-3 -77 -50 -118.5t-124 -41.5
q-79 0 -125 41t-50 119q0 9 13 12l79 13q10 0 13 -11q7 -60 70 -60q62 0 70 60q1 8 3 9.5t9 1.5l79 -13q13 -4 13 -12z" />
    <glyph glyph-name="Uring" unicode="&#x16e;" horiz-adv-x="694" 
d="M75 700h129q18 0 18 -19v-374q0 -155 125 -155t125 155v374q0 19 19 19h129q18 0 18 -19v-405q0 -127 -80 -206.5t-211 -79.5q-132 0 -211.5 79.5t-79.5 206.5v405q0 19 19 19zM215 861q0 54 39 93t94 39q54 0 93 -39t39 -93q0 -55 -39 -94t-93 -39q-55 0 -94 39t-39 94z
M312 861q0 -15 10.5 -25.5t25.5 -10.5t25.5 10.5t10.5 25.5t-10.5 25.5t-25.5 10.5t-25.5 -10.5t-10.5 -25.5z" />
    <glyph glyph-name="uring" unicode="&#x16f;" 
d="M66 500h126q19 0 19 -19v-235q0 -45 21 -72.5t63 -27.5q35 0 61.5 27t26.5 60v248q0 19 18 19h127q19 0 19 -19v-462q0 -19 -19 -19h-127q-18 0 -18 19v46q-60 -75 -148 -75q-90 0 -139 57.5t-49 165.5v268q0 19 19 19zM162 673q0 54 39 93t94 39q54 0 93 -39t39 -93
q0 -55 -39 -94t-93 -39q-55 0 -94 39t-39 94zM259 673q0 -15 10.5 -25.5t25.5 -10.5t25.5 10.5t10.5 25.5t-10.5 25.5t-25.5 10.5t-25.5 -10.5t-10.5 -25.5z" />
    <glyph glyph-name="Uhungarumlaut" unicode="&#x170;" horiz-adv-x="694" 
d="M75 700h129q18 0 18 -19v-374q0 -155 125 -155t125 155v374q0 19 19 19h129q18 0 18 -19v-405q0 -127 -80 -206.5t-211 -79.5q-132 0 -211.5 79.5t-79.5 206.5v405q0 19 19 19zM264 744l-65 27q-17 8 -11 24l59 150q3 13 16 13q3 0 9 -2l99 -35q17 -6 8 -22l-89 -147
q-7 -10 -17 -10q-3 0 -9 2zM460 744l-65 27q-17 8 -11 24l59 150q3 13 16 13q3 0 9 -2l105 -37q16 -4 8 -21l-95 -146q-7 -10 -17 -10q-3 0 -9 2z" />
    <glyph glyph-name="uhungarumlaut" unicode="&#x171;" 
d="M66 500h126q19 0 19 -19v-235q0 -45 21 -72.5t63 -27.5q35 0 61.5 27t26.5 60v248q0 19 18 19h127q19 0 19 -19v-462q0 -19 -19 -19h-127q-18 0 -18 19v46q-60 -75 -148 -75q-90 0 -139 57.5t-49 165.5v268q0 19 19 19zM212 529l-65 27q-17 8 -11 24l59 150q3 13 16 13
q3 0 9 -2l99 -35q17 -6 8 -22l-89 -147q-7 -10 -17 -10q-3 0 -9 2zM408 529l-65 27q-17 8 -11 24l59 150q3 13 16 13q3 0 9 -2l105 -37q16 -4 8 -21l-95 -146q-7 -10 -17 -10q-3 0 -9 2z" />
    <glyph glyph-name="Uogonek" unicode="&#x172;" horiz-adv-x="694" 
d="M300 -7q-117 15 -180.5 93.5t-63.5 189.5v405q0 19 19 19h129q18 0 18 -19v-374q0 -155 125 -155t125 155v374q0 19 19 19h129q18 0 18 -19v-405q0 -102 -59.5 -183.5t-180.5 -98.5q-43 -26 -35 -60.5t54 -34.5q6 0 18 2q12 0 12 -9v-82q0 -12 -9 -13q-20 -3 -36 -3
q-47 0 -82 19.5t-49.5 49t-8 65t37.5 65.5z" />
    <glyph glyph-name="uogonek" unicode="&#x173;" 
d="M383 19v46q-60 -75 -148 -75q-90 0 -139 57.5t-49 165.5v268q0 19 19 19h126q19 0 19 -19v-235q0 -45 21 -72.5t63 -27.5q35 0 61.5 27t26.5 60v248q0 19 18 19h127q19 0 19 -20v-461q0 -19 -13 -19q-22 -18 -29 -42t4.5 -41.5t37.5 -17.5q5 0 17 2q11 0 11 -9l1 -82
q0 -12 -9 -13q-18 -3 -35 -3q-63 0 -101.5 34.5t-37 83.5t44.5 88h-37q-18 0 -18 19z" />
    <glyph glyph-name="Wcircumflex" unicode="&#x174;" horiz-adv-x="960" 
d="M772 0h-159q-22 0 -26 19l-107 424l-107 -424q-3 -19 -25 -19h-159q-19 0 -23 19l-158 662q-5 19 12 19h144q19 0 24 -19l90 -416l108 422q4 13 19 13h151q15 0 18 -13l109 -422l89 416q5 19 24 19h144q17 0 12 -19l-157 -662q-4 -19 -23 -19zM442 945h77q19 0 35 -19
l101 -115q11 -13 -2 -26l-37 -46q-4 -6 -11 -6q-9 0 -16 7l-108 91l-109 -91q-7 -7 -15 -7q-6 0 -12 6l-37 46q-14 14 -2 26l101 115q16 19 35 19z" />
    <glyph glyph-name="wcircumflex" unicode="&#x175;" horiz-adv-x="747" 
d="M164 481l56 -274l31 136l32 138q3 19 21 19h138q18 0 22 -19l62 -274l57 274q3 19 20 19h127q18 0 12 -19l-101 -461q-7 -20 -22 -20h-163q-19 0 -24 20l-59 286l-59 -286q-5 -20 -23 -20h-164q-16 0 -21 20q-27 116 -51 231l-51 230q-3 19 12 19h127q17 0 21 -19z
M335 734h77q19 0 35 -19l101 -115q11 -13 -2 -26l-37 -46q-5 -6 -11 -6q-9 0 -16 7l-108 91l-109 -91q-7 -7 -15 -7q-6 0 -12 6l-37 46q-14 14 -2 26l101 115q16 19 35 19z" />
    <glyph glyph-name="Ycircumflex" unicode="&#x176;" horiz-adv-x="619" 
d="M183 689l127 -208l126 208q6 11 20 11h149q7 0 9 -6.5t-3 -12.5l-218 -343v-319q0 -19 -18 -19h-130q-18 0 -18 19v319l-219 343q-5 6 -3 12.5t9 6.5h149q14 0 20 -11zM271 945h77q19 0 35 -19l101 -115q11 -13 -2 -26l-37 -46q-4 -6 -11 -6q-9 0 -16 7l-108 91l-109 -91
q-7 -7 -15 -7q-6 0 -12 6l-37 46q-14 14 -2 26l101 115q16 19 35 19z" />
    <glyph glyph-name="ycircumflex" unicode="&#x177;" 
d="M547 481v-447q0 -127 -78 -208t-203 -81q-59 0 -112.5 23t-85.5 59q-11 11 -1 24l65 87q6 9 13 9q5 0 10 -5q39 -41 107 -41q63 0 92 34t29 82v49q-16 -27 -59.5 -46.5t-88.5 -19.5q-90 0 -138.5 57.5t-48.5 165.5v258q0 19 18 19h127q19 0 19 -19v-225q0 -44 21 -72
t62 -28t64.5 25t23.5 62v238q0 19 19 19h127q18 0 18 -19zM259 749h77q19 0 35 -19l101 -115q11 -13 -2 -26l-37 -46q-4 -6 -11 -6q-9 0 -16 7l-108 91l-109 -91q-7 -7 -15 -7q-6 0 -12 6l-37 46q-14 14 -2 26l101 115q16 19 35 19z" />
    <glyph glyph-name="Ydieresis" unicode="&#x178;" horiz-adv-x="619" 
d="M183 689l127 -208l126 208q6 11 20 11h149q7 0 9 -6.5t-3 -12.5l-218 -343v-319q0 -19 -18 -19h-130q-18 0 -18 19v319l-219 343q-5 6 -3 12.5t9 6.5h149q14 0 20 -11zM107 843q0 37 25 62.5t61 25.5q37 0 62.5 -25.5t25.5 -62.5q0 -36 -25.5 -61t-62.5 -25q-36 0 -61 25
t-25 61zM338 843q0 37 24.5 62.5t61.5 25.5q38 0 63.5 -25.5t25.5 -62.5q0 -36 -25.5 -61t-63.5 -25q-37 0 -61.5 25t-24.5 61z" />
    <glyph glyph-name="Zacute" unicode="&#x179;" horiz-adv-x="594" 
d="M38 19v97q0 20 18 45l272 377h-256q-19 0 -19 18v125q0 19 19 19h456q19 0 19 -19v-109q0 -15 -6 -23l-280 -387h276q19 0 19 -18v-125q0 -19 -19 -19h-480q-19 0 -19 19zM315 745l-68 30q-14 6 -8 23l61 147q3 13 15 13q5 0 7 -1l102 -35q18 -6 8 -22l-94 -149
q-6 -8 -14 -8q-3 0 -9 2z" />
    <glyph glyph-name="zacute" unicode="&#x17a;" horiz-adv-x="460" 
d="M26 19v62q0 25 18 47l167 226h-154q-18 0 -18 18v109q0 19 18 19h347q19 0 19 -19v-60q0 -31 -18 -54l-163 -221h173q19 0 19 -18v-109q0 -19 -19 -19h-370q-19 0 -19 19zM252 547l-68 30q-14 6 -8 23l61 147q3 13 15 13q5 0 7 -1l102 -35q18 -6 8 -22l-94 -149
q-6 -8 -14 -8q-3 0 -9 2z" />
    <glyph glyph-name="Zdotaccent" unicode="&#x17b;" horiz-adv-x="594" 
d="M38 19v97q0 20 18 45l272 377h-256q-19 0 -19 18v125q0 19 19 19h456q19 0 19 -19v-109q0 -15 -6 -23l-280 -387h276q19 0 19 -18v-125q0 -19 -19 -19h-480q-19 0 -19 19zM212 860q0 38 25 63.5t62 25.5q38 0 63.5 -25.5t25.5 -63.5q0 -37 -25.5 -62t-63.5 -25
q-37 0 -62 25t-25 62z" />
    <glyph glyph-name="zdotaccent" unicode="&#x17c;" horiz-adv-x="460" 
d="M26 19v62q0 25 18 47l167 226h-154q-18 0 -18 18v109q0 19 18 19h347q19 0 19 -19v-60q0 -31 -18 -54l-163 -221h173q19 0 19 -18v-109q0 -19 -19 -19h-370q-19 0 -19 19zM140 667q0 38 25 63.5t62 25.5q38 0 63.5 -25.5t25.5 -63.5q0 -37 -25.5 -62t-63.5 -25
q-37 0 -62 25t-25 62z" />
    <glyph glyph-name="Zcaron" unicode="&#x17d;" horiz-adv-x="594" 
d="M38 19v97q0 20 18 45l272 377h-256q-19 0 -19 18v125q0 19 19 19h456q19 0 19 -19v-109q0 -15 -6 -23l-280 -387h276q19 0 19 -18v-125q0 -19 -19 -19h-480q-19 0 -19 19zM342 753h-77q-16 0 -35 19l-101 115q-11 12 2 27l37 45q6 6 12 6q8 0 15 -7l109 -90l108 90
q7 7 16 7q7 0 11 -6l37 -45q13 -15 2 -27l-101 -115q-16 -19 -35 -19z" />
    <glyph glyph-name="zcaron" unicode="&#x17e;" horiz-adv-x="460" 
d="M26 19v62q0 25 18 47l167 226h-154q-18 0 -18 18v109q0 19 18 19h347q19 0 19 -19v-60q0 -31 -18 -54l-163 -221h173q19 0 19 -18v-109q0 -19 -19 -19h-370q-19 0 -19 19zM271 541h-77q-16 0 -35 19l-101 115q-11 12 2 27l37 45q6 6 12 6q8 0 15 -7l109 -90l108 90
q7 7 16 7q7 0 11 -6l37 -45q13 -15 2 -27l-101 -115q-16 -19 -35 -19z" />
    <glyph glyph-name="longs" unicode="&#x17f;" horiz-adv-x="414" 
d="M258 549v-530q0 -19 -19 -19h-127q-18 0 -18 19v331h-51q-18 0 -18 19v112q0 19 18 19h51v89q0 78 46.5 124.5t127.5 46.5t152 -52q11 -8 4 -23l-53 -92q-3 -5 -9 -5q-1 0 -7 2q-30 14 -51 14q-46 0 -46 -55z" />
    <glyph glyph-name="florin" unicode="&#x192;" horiz-adv-x="647" 
d="M197 126l79 299h-56q-18 0 -18 18v62q0 20 17 20h83l29 109q34 142 171 142q58 0 110 -21q16 -7 12 -23l-16 -65q-3 -14 -15 -14q-5 0 -8 1q-34 8 -48 8q-38 0 -57 -19.5t-29 -59.5l-16 -58h107q18 0 19 -16v-65q0 -19 -16 -19h-136l-91 -348q-38 -143 -170 -143
q-57 0 -112 21q-17 6 -13 22l17 66q3 14 15 14q5 0 7 -1q27 -9 47 -9q68 0 88 79z" />
    <glyph glyph-name="uni0218" unicode="&#x218;" horiz-adv-x="536" 
d="M159 -269l29 206q2 14 16 14h125q15 0 11 -13l-46 -207q-3 -14 -20 -14h-102q-15 0 -13 14zM474 627l-66 -99q-4 -9 -16 -9q-6 0 -13 4q-49 28 -108 28q-28 0 -46 -12t-18 -33q0 -17 16.5 -31t42.5 -24.5l58 -22.5t64 -30t58 -42t42.5 -62.5t16.5 -87.5q0 -37 -14 -73.5
t-42 -69t-77 -53t-111 -20.5q-116 0 -225 82q-14 13 -6 26l65 99q7 9 16 9q6 0 13 -5q70 -52 139 -52q38 0 56.5 15t18.5 39q0 27 -30.5 46t-74 35.5t-87.5 39.5t-74.5 69t-30.5 112q0 91 68 148t170 57q96 0 188 -56q16 -10 7 -27z" />
    <glyph glyph-name="uni0219" unicode="&#x219;" horiz-adv-x="438" 
d="M114 -269l29 206q2 14 16 14h125q14 0 10 -13l-45 -207q-5 -14 -20 -14h-103q-14 0 -12 14zM121 167q53 -41 99 -41q43 0 43 24q0 14 -23.5 25t-56.5 23t-66.5 28.5t-57 50.5t-23.5 81q0 66 53.5 109t132.5 43q103 0 166 -61q11 -13 -2 -26l-64 -69q-7 -7 -14 -7
q-6 0 -14 5q-40 23 -71 23q-37 0 -37 -17q0 -11 23.5 -21t57 -22t66.5 -29.5t56.5 -52.5t23.5 -83q0 -67 -53.5 -113.5t-142.5 -46.5q-115 0 -190 81q-13 15 3 31l60 65q7 7 15 7q9 0 16 -7z" />
    <glyph glyph-name="uni021A" unicode="&#x21a;" horiz-adv-x="574" 
d="M351 0h-129q-18 0 -18 19v519h-169q-19 0 -19 18v125q0 19 19 19h504q19 0 19 -19v-125q0 -18 -19 -18h-169v-519q0 -19 -19 -19zM180 -269l30 206q2 14 16 14h125q14 0 10 -13l-45 -207q-5 -14 -20 -14h-103q-15 0 -13 14z" />
    <glyph glyph-name="uni021B" unicode="&#x21b;" horiz-adv-x="434" 
d="M361 153l49 -103q5 -15 -8 -23q-65 -37 -138 -37q-85 0 -130.5 46t-45.5 131v183h-42q-19 0 -19 19v112q0 19 19 19h42v129q0 19 18 19h127q19 0 19 -19v-129h111q19 0 19 -19v-112q0 -19 -19 -19h-111v-161q0 -43 42 -43q22 0 48 13q3 1 7 1q8 0 12 -7zM115 -269l29 206
q2 14 16 14h125q14 0 10 -13l-45 -207q-5 -14 -20 -14h-103q-14 0 -12 14z" />
    <glyph glyph-name="circumflex" unicode="&#x2c6;" horiz-adv-x="371" 
d="M147 737h77q19 0 35 -19l101 -115q11 -13 -2 -26l-37 -46q-5 -6 -11 -6q-9 0 -16 7l-108 91l-109 -91q-7 -7 -15 -7q-6 0 -12 6l-37 46q-14 14 -2 26l101 115q16 19 35 19z" />
    <glyph glyph-name="caron" unicode="&#x2c7;" horiz-adv-x="371" 
d="M224 541h-77q-16 0 -35 19l-101 115q-11 12 2 27l37 45q6 6 12 6q8 0 15 -7l109 -90l108 90q7 7 16 7q6 0 11 -6l37 -45q13 -15 2 -27l-101 -115q-16 -19 -35 -19z" />
    <glyph glyph-name="uni02C9" unicode="&#x2c9;" horiz-adv-x="403" 
d="M50 599v96q0 18 19 18h266q18 0 18 -18v-96q0 -18 -18 -18h-266q-19 0 -19 18z" />
    <glyph glyph-name="breve" unicode="&#x2d8;" horiz-adv-x="361" 
d="M355 714q-3 -77 -50 -118.5t-124 -41.5q-79 0 -125 41t-50 119q0 9 13 12l79 13q10 0 13 -11q7 -60 70 -60q62 0 70 60q1 8 3 9.5t9 1.5l79 -13q13 -4 13 -12z" />
    <glyph glyph-name="dotaccent" unicode="&#x2d9;" horiz-adv-x="218" 
d="M21 648q0 38 25 63.5t62 25.5q38 0 63.5 -25.5t25.5 -63.5q0 -37 -25.5 -62t-63.5 -25q-37 0 -62 25t-25 62z" />
    <glyph glyph-name="ring" unicode="&#x2da;" horiz-adv-x="289" 
d="M12 639q0 54 39 93t94 39q54 0 93 -39t39 -93q0 -55 -39 -94t-93 -39q-55 0 -94 39t-39 94zM109 639q0 -15 10.5 -25.5t25.5 -10.5t25.5 10.5t10.5 25.5t-10.5 25.5t-25.5 10.5t-25.5 -10.5t-10.5 -25.5z" />
    <glyph glyph-name="ogonek" unicode="&#x2db;" horiz-adv-x="190" 
d="M50 2l110 8q-29 -17 -40 -43.5t1 -46.5t41 -20q10 0 15 1q11 0 11 -9l1 -82q0 -12 -10 -13q-18 -3 -35 -3q-63 0 -101 34t-36.5 83.5t43.5 90.5z" />
    <glyph glyph-name="tilde" unicode="&#x2dc;" horiz-adv-x="412" 
d="M274 667q14 0 29 7.5t24 15l28 24.5q5 4 9 4q5 0 8 -10l20 -78q4 -17 -7 -27q-54 -50 -103 -50q-37 0 -80 26t-64 26q-13 0 -29.5 -8.5t-23 -14l-28.5 -24.5q-5 -5 -9 -5t-8 11l-19 77q-6 18 6 27q55 51 103 51q38 0 80.5 -26t63.5 -26z" />
    <glyph glyph-name="hungarumlaut" unicode="&#x2dd;" horiz-adv-x="461" 
d="M109 534l-65 27q-17 8 -11 24l59 150q3 13 16 13q3 0 9 -2l99 -35q17 -6 8 -22l-89 -147q-7 -10 -17 -10q-3 0 -9 2zM305 534l-65 27q-17 8 -11 24l59 150q3 13 16 13q3 0 9 -2l105 -37q16 -4 8 -21l-95 -146q-7 -10 -17 -10q-3 0 -9 2z" />
    <glyph glyph-name="uni0394" unicode="&#x394;" horiz-adv-x="616" 
d="M308 608l-132 -470h267l-132 470h-3zM6 18v23l191 689q8 20 26 20h173q20 0 26 -20l188 -689v-23q0 -18 -18 -18h-567q-19 0 -19 18z" />
    <glyph glyph-name="uni03A9" unicode="&#x3a9;" horiz-adv-x="755" 
d="M294 96v-95h-240q-17 0 -17 16v99q0 14 17 14h90q-57 45 -87.5 111t-30.5 142q0 64 24.5 125.5t68.5 111t111.5 80t146.5 30.5q107 0 189 -52.5t122 -130.5t40 -164q0 -72 -30.5 -139.5t-89.5 -113.5h93q17 0 17 -19v-94q0 -16 -17 -16h-241v95q71 58 105 117.5t34 142.5
q0 105 -62 175t-160 70t-160 -69t-62 -172q0 -87 33.5 -148t105.5 -116z" />
    <glyph glyph-name="uni03BC" unicode="&#x3bc;" 
d="M211 10v-241q0 -19 -19 -19h-126q-19 0 -19 19v712q0 19 19 19h126q19 0 19 -19v-235q0 -44 21.5 -72t62.5 -28q35 0 61.5 28.5t26.5 61.5v245q0 19 18 19h127q19 0 19 -19v-462q0 -19 -19 -19h-127q-18 0 -18 19v40q-38 -48 -84 -56q-15 -4 -34 -4q-30 0 -54 11z" />
    <glyph glyph-name="pi" unicode="&#x3c0;" horiz-adv-x="643" 
d="M608 464h-77v-446q0 -18 -19 -18h-120q-18 0 -18 18v446h-105v-446q0 -18 -19 -18h-119q-19 0 -19 18v446h-78q-18 0 -18 18v123q0 19 18 19h574q19 0 19 -19v-123q0 -18 -19 -18z" />
    <glyph glyph-name="Wgrave" unicode="&#x1e80;" horiz-adv-x="960" 
d="M772 0h-159q-22 0 -26 19l-107 424l-107 -424q-3 -19 -25 -19h-159q-19 0 -23 19l-158 662q-5 19 12 19h144q19 0 24 -19l90 -416l108 422q4 13 19 13h151q15 0 18 -13l109 -422l89 416q5 19 24 19h144q17 0 12 -19l-157 -662q-4 -19 -23 -19zM518 774l-68 -30
q-6 -2 -9 -2q-8 0 -14 8l-94 149q-13 15 8 22l101 35q2 1 7 1q12 0 16 -13l61 -147q6 -17 -8 -23z" />
    <glyph glyph-name="wgrave" unicode="&#x1e81;" horiz-adv-x="747" 
d="M164 481l56 -274l31 136l32 138q3 19 21 19h138q18 0 22 -19l62 -274l57 274q3 19 20 19h127q18 0 12 -19l-101 -461q-7 -20 -22 -20h-163q-19 0 -24 20l-59 286l-59 -286q-5 -20 -23 -20h-164q-16 0 -21 20q-27 116 -51 231l-51 230q-3 19 12 19h127q17 0 21 -19z
M406 577l-68 -30q-6 -2 -9 -2q-8 0 -14 8l-94 149q-13 15 8 22l101 35q2 1 7 1q12 0 16 -13l61 -147q6 -17 -8 -23z" />
    <glyph glyph-name="Wacute" unicode="&#x1e82;" horiz-adv-x="960" 
d="M772 0h-159q-22 0 -26 19l-107 424l-107 -424q-3 -19 -25 -19h-159q-19 0 -23 19l-158 662q-5 19 12 19h144q19 0 24 -19l90 -416l108 422q4 13 19 13h151q15 0 18 -13l109 -422l89 416q5 19 24 19h144q17 0 12 -19l-157 -662q-4 -19 -23 -19zM507 767l-68 30
q-14 6 -8 23l61 147q3 13 15 13q5 0 7 -1l102 -35q18 -6 8 -22l-94 -149q-6 -8 -14 -8q-3 0 -9 2z" />
    <glyph glyph-name="wacute" unicode="&#x1e83;" horiz-adv-x="747" 
d="M164 481l56 -274l31 136l32 138q3 19 21 19h138q18 0 22 -19l62 -274l57 274q3 19 20 19h127q18 0 12 -19l-101 -461q-7 -20 -22 -20h-163q-19 0 -24 20l-59 286l-59 -286q-5 -20 -23 -20h-164q-16 0 -21 20q-27 116 -51 231l-51 230q-3 19 12 19h127q17 0 21 -19z
M404 547l-68 30q-14 6 -8 23l61 147q3 13 15 13q5 0 7 -1l102 -35q18 -6 8 -22l-94 -149q-6 -8 -14 -8q-3 0 -9 2z" />
    <glyph glyph-name="Wdieresis" unicode="&#x1e84;" horiz-adv-x="960" 
d="M772 0h-159q-22 0 -26 19l-107 424l-107 -424q-3 -19 -25 -19h-159q-19 0 -23 19l-158 662q-5 19 12 19h144q19 0 24 -19l90 -416l108 422q4 13 19 13h151q15 0 18 -13l109 -422l89 416q5 19 24 19h144q17 0 12 -19l-157 -662q-4 -19 -23 -19zM278 843q0 37 25 62.5
t61 25.5q37 0 62.5 -25.5t25.5 -62.5q0 -36 -25.5 -61t-62.5 -25q-36 0 -61 25t-25 61zM509 843q0 37 24.5 62.5t61.5 25.5q38 0 63.5 -25.5t25.5 -62.5q0 -36 -25.5 -61t-63.5 -25q-37 0 -61.5 25t-24.5 61z" />
    <glyph glyph-name="wdieresis" unicode="&#x1e85;" horiz-adv-x="747" 
d="M164 481l56 -274l31 136l32 138q3 19 21 19h138q18 0 22 -19l62 -274l57 274q3 19 20 19h127q18 0 12 -19l-101 -461q-7 -20 -22 -20h-163q-19 0 -24 20l-59 286l-59 -286q-5 -20 -23 -20h-164q-16 0 -21 20q-27 116 -51 231l-51 230q-3 19 12 19h127q17 0 21 -19z
M170 644q0 37 25 62.5t61 25.5q37 0 62.5 -25.5t25.5 -62.5q0 -36 -25.5 -61t-62.5 -25q-36 0 -61 25t-25 61zM401 644q0 37 24.5 62.5t61.5 25.5q38 0 63.5 -25.5t25.5 -62.5q0 -36 -25.5 -61t-63.5 -25q-37 0 -61.5 25t-24.5 61z" />
    <glyph glyph-name="endash" unicode="&#x2013;" horiz-adv-x="554" 
d="M68 355h418q18 0 18 -19v-126q0 -18 -18 -18h-418q-18 0 -18 18v126q0 19 18 19z" />
    <glyph glyph-name="emdash" unicode="&#x2014;" horiz-adv-x="1079" 
d="M68 355h942q19 0 19 -19v-126q0 -18 -19 -18h-942q-18 0 -18 18v126q0 19 18 19z" />
    <glyph glyph-name="quoteleft" unicode="&#x2018;" horiz-adv-x="235" 
d="M196 696l-29 -205q-2 -15 -16 -15h-125q-15 0 -10 14l45 206q5 14 20 14h102q15 0 13 -14z" />
    <glyph glyph-name="quoteright" unicode="&#x2019;" horiz-adv-x="235" 
d="M17 490l29 206q2 14 16 14h125q14 0 10 -13l-45 -207q-5 -14 -20 -14h-102q-15 0 -13 14z" />
    <glyph glyph-name="quotesinglbase" unicode="&#x201a;" horiz-adv-x="235" 
d="M19 -104l29 206q2 14 16 14h125q14 0 11 -14l-46 -206q-3 -14 -20 -14h-102q-15 0 -13 14z" />
    <glyph glyph-name="quotedblleft" unicode="&#x201c;" horiz-adv-x="459" 
d="M200 696l-30 -205q-2 -15 -16 -15h-124q-16 0 -11 14l46 206q3 14 20 14h102q15 0 13 -14zM424 697l-29 -206q-2 -14 -16 -14h-125q-15 0 -10 14l45 206q5 14 20 14h102q15 0 13 -14z" />
    <glyph glyph-name="quotedblright" unicode="&#x201d;" horiz-adv-x="463" 
d="M248 490l29 206q2 14 16 14h125q14 0 10 -13l-45 -207q-5 -14 -20 -14h-102q-15 0 -13 14zM23 490l29 206q2 14 16 14h125q15 0 11 -13l-46 -207q-3 -14 -20 -14h-102q-15 0 -13 14z" />
    <glyph glyph-name="quotedblbase" unicode="&#x201e;" horiz-adv-x="459" 
d="M244 -104l29 206q2 14 16 14h125q13 0 10 -14l-45 -206q-5 -14 -20 -14h-102q-15 0 -13 14zM19 -105l29 206q2 14 16 14h125q15 0 11 -13l-46 -207q-3 -14 -20 -14h-102q-15 0 -13 14z" />
    <glyph glyph-name="dagger" unicode="&#x2020;" horiz-adv-x="402" 
d="M40 501h91v201q0 18 19 18h103q18 0 18 -18v-201h91q18 0 18 -19v-103q0 -18 -18 -18h-91v-527q0 -18 -18 -18h-103q-19 0 -19 18v527h-91q-18 0 -18 18v103q0 19 18 19z" />
    <glyph glyph-name="daggerdbl" unicode="&#x2021;" horiz-adv-x="484" 
d="M40 181h130v172h-130q-18 0 -18 19v102q0 19 18 19h130v209q0 18 19 18h103q18 0 18 -18v-209h133q19 0 19 -19v-102q0 -19 -19 -19h-133v-172h133q19 0 19 -18v-103q0 -19 -19 -19h-133v-207q0 -18 -18 -18h-103q-19 0 -19 18v207h-130q-18 0 -18 19v103q0 18 18 18z
" />
    <glyph glyph-name="bullet" unicode="&#x2022;" horiz-adv-x="279" 
d="M20 280q0 48 35 83t86 35t84.5 -34.5t33.5 -83.5t-33.5 -83.5t-84.5 -34.5t-86 35t-35 83z" />
    <glyph glyph-name="ellipsis" unicode="&#x2026;" horiz-adv-x="891" 
d="M21 81q0 39 26.5 66.5t64.5 27.5q39 0 66.5 -27.5t27.5 -66.5q0 -38 -27.5 -64.5t-66.5 -26.5q-38 0 -64.5 26.5t-26.5 64.5zM351 81q0 39 26.5 66.5t64.5 27.5q39 0 66.5 -27.5t27.5 -66.5q0 -38 -27.5 -64.5t-66.5 -26.5q-38 0 -64.5 26.5t-26.5 64.5zM685 81
q0 39 26.5 66.5t64.5 27.5q39 0 66.5 -27.5t27.5 -66.5q0 -38 -27.5 -64.5t-66.5 -26.5q-38 0 -64.5 26.5t-26.5 64.5z" />
    <glyph glyph-name="perthousand" unicode="&#x2030;" horiz-adv-x="1125" 
d="M21 552q0 65 46.5 111.5t111.5 46.5t112 -46.5t47 -111.5t-47 -112t-112 -47t-111.5 47t-46.5 112zM131 551q0 -20 13.5 -34t34.5 -14t35.5 14t14.5 34q0 21 -14.5 35.5t-35.5 14.5t-34.5 -14.5t-13.5 -35.5zM434 149q0 65 47 112t112 47t112 -47t47 -112t-47 -112
t-112 -47t-112 47t-47 112zM545 149q0 -21 13.5 -34.5t34.5 -13.5t35 13.5t14 34.5t-14.5 35.5t-34.5 14.5q-21 0 -34.5 -14.5t-13.5 -35.5zM785 149q0 65 47.5 112t112.5 47t112 -47t47 -112t-47 -112t-112 -47t-112.5 47t-47.5 112zM896 149q0 -21 13.5 -34.5t34.5 -13.5
t35.5 13.5t14.5 34.5t-14.5 35.5t-35.5 14.5t-34.5 -14.5t-13.5 -35.5zM139 18l383 664q11 18 24 18h93q9 0 13 -5t-1 -13l-383 -664q-11 -18 -24 -18h-93q-9 0 -13 5t1 13z" />
    <glyph glyph-name="guilsinglleft" unicode="&#x2039;" horiz-adv-x="344" 
d="M308 435l-134 -206l134 -207q4 -7 -1.5 -12.5t-16.5 -5.5h-105q-19 0 -30 18l-129 196l-3 7q-2 8 3 14l129 196q11 18 30 18h104q11 0 17 -5.5t2 -12.5z" />
    <glyph glyph-name="guilsinglright" unicode="&#x203a;" horiz-adv-x="344" 
d="M36 22l133 207l-133 206q-4 7 1.5 12.5t16.5 5.5h105q19 0 30 -18l129 -196q5 -8 3 -14l-3 -7l-129 -196q-11 -18 -30 -18h-105q-11 0 -16.5 5.5t-1.5 12.5z" />
    <glyph glyph-name="fraction" unicode="&#x2044;" horiz-adv-x="572" 
d="M30 18l383 664q11 18 24 18h93q9 0 13 -5t-1 -13l-383 -664q-11 -18 -24 -18h-93q-9 0 -13 5t1 13z" />
    <glyph glyph-name="franc" unicode="&#x20a3;" horiz-adv-x="541" 
d="M342 86h-116v-68q0 -18 -18 -18h-130q-18 0 -18 18v68h-44q-18 0 -18 19v46q0 19 18 19h44v509q0 21 21 21h430q19 0 19 -19v-125q0 -18 -19 -18h-285v-132h245q19 0 19 -19v-120q0 -19 -19 -19h-245v-78h116q19 0 19 -19v-46q0 -19 -19 -19z" />
    <glyph glyph-name="lira" unicode="&#x20a4;" horiz-adv-x="555" 
d="M25 362l77 27v41l-48 -18q-3 -1 -7 -1q-10 0 -16 12l-17 51q-6 15 11 23l77 27v158q0 18 19 18h91q19 0 19 -18v-112l115 41q3 1 7 1q11 0 15 -12l16 -50q8 -18 -11 -23l-142 -51v-41l115 41q3 1 7 1q11 0 15 -12l16 -49q7 -19 -11 -24l-142 -50v-195q79 18 129 73.5
t58 129.5q4 18 19 18h91q10 0 15 -4.5t4 -13.5q-20 -160 -141.5 -255t-280.5 -95h-4q-19 0 -19 20v276l-47 -17q-6 -2 -8 -2q-10 0 -14 13l-19 49q-6 15 11 23z" />
    <glyph glyph-name="Euro" unicode="&#x20ac;" horiz-adv-x="538" 
d="M479 140l41 -82q9 -17 -12 -29q-68 -39 -149 -39q-119 0 -190.5 68.5t-94.5 186.5h-62q-16 0 -16 18v51q0 17 16 17h54q-1 21 0 43h-54q-16 0 -16 18v51q0 17 16 17h64q25 116 96.5 183t186.5 67q83 0 155 -42q16 -10 10 -25l-40 -83q-8 -13 -17 -13q-6 0 -11 4
q-50 28 -97 28q-111 0 -148 -119h233q15 0 15 -17v-51q0 -18 -15 -18h-248q-1 -21 0 -43h248q15 0 15 -17v-51q0 -18 -15 -18l-233 1q31 -125 148 -125q46 0 93 26q8 4 13 4q8 0 14 -11z" />
    <glyph glyph-name="uni2113" unicode="&#x2113;" horiz-adv-x="408" 
d="M26 203l-20 32q-13 17 5 35l85 85v194q0 83 42.5 134t107.5 51q60 0 99.5 -35t39.5 -96q-1 -32 -11 -63.5t-21.5 -53.5t-38 -55t-41 -49l-49.5 -53v-146q0 -89 60 -89q33 0 74 41q7 7 11 7q5 0 10 -9l16 -61q6 -16 -5 -27q-62 -58 -134 -58q-71 0 -115.5 46.5
t-44.5 118.5v80l-36 -33q-6 -8 -15 -8q-10 0 -19 12zM294 590q2 37 -32 37q-18 0 -27 -16.5t-10 -32t-1 -46.5v-69q66 70 70 127z" />
    <glyph glyph-name="trademark" unicode="&#x2122;" horiz-adv-x="861" 
d="M220 285h-77q-11 0 -11 12v304h-105q-11 0 -11 11v77q0 11 11 11h313q11 0 11 -11v-76q0 -12 -11 -12h-109v-304q0 -12 -11 -12zM624 336h-55q-8 0 -12 10l-68 140v-189q0 -12 -11 -12h-76q-12 0 -12 12v391q0 12 12 12h77q10 0 15 -11l102 -226l102 226q5 11 15 11h76
q13 0 13 -12v-392q0 -11 -12 -11h-78q-11 0 -11 11v190l-66 -140q-3 -10 -11 -10z" />
    <glyph glyph-name="Omega" unicode="&#x2126;" horiz-adv-x="755" 
d="M294 96v-95h-240q-17 0 -17 16v99q0 14 17 14h90q-57 45 -87.5 111t-30.5 142q0 64 24.5 125.5t68.5 111t111.5 80t146.5 30.5q107 0 189 -52.5t122 -130.5t40 -164q0 -72 -30.5 -139.5t-89.5 -113.5h93q17 0 17 -19v-94q0 -16 -17 -16h-241v95q71 58 105 117.5t34 142.5
q0 105 -62 175t-160 70t-160 -69t-62 -172q0 -87 33.5 -148t105.5 -116z" />
    <glyph glyph-name="estimated" unicode="&#x212e;" horiz-adv-x="551" 
d="M510 232h-338v-84q18 -22 46 -36.5t57 -14.5q77 0 127 60q10 10 20 10q3 0 9 -2l49 -25q19 -7 6 -24q-34 -50 -89 -80t-122 -30q-104 0 -179 81.5t-75 188.5q0 112 70.5 191.5t183.5 79.5q116 0 189.5 -90.5t64.5 -205.5q0 -3 -1 -6.5t-6 -8t-12 -4.5zM172 413v-91h203
v91q-35 42 -100 42q-66 0 -103 -42z" />
    <glyph glyph-name="partialdiff" unicode="&#x2202;" horiz-adv-x="543" 
d="M336 710q249 0 145 -424q-12 -47 -26 -85.5t-37 -79.5t-51.5 -68.5t-69.5 -45t-90 -17.5q-77 0 -127 56t-48 140q2 124 65.5 211t164.5 87h12q30 -2 64 -16.5t52 -34.5q13 66 -6.5 108t-74.5 42q-31 0 -75 -21q-6 -3 -11 -3q-9 0 -14 9l-35 83q-6 16 10 23q74 36 152 36z
M225 124q51 0 83.5 50t46.5 119q-7 24 -27 39.5t-47 18.5q-2 0 -5.5 0.5t-5.5 0.5q-47 0 -76 -42.5t-31 -100.5q-1 -37 15 -61t47 -24z" />
    <glyph glyph-name="Delta" unicode="&#x2206;" horiz-adv-x="616" 
d="M308 608l-132 -470h267l-132 470h-3zM6 18v23l191 689q8 20 26 20h173q20 0 26 -20l188 -689v-23q0 -18 -18 -18h-567q-19 0 -19 18z" />
    <glyph glyph-name="product" unicode="&#x220f;" horiz-adv-x="638" 
d="M78 700h482q19 0 19 -18v-792q0 -18 -19 -18h-103q-18 0 -18 18v670h-240v-670q0 -18 -19 -18h-102q-19 0 -19 18v792q0 18 19 18z" />
    <glyph glyph-name="summation" unicode="&#x2211;" horiz-adv-x="654" 
d="M38 -210v51q0 24 12 36l316 358l-316 358q-12 12 -12 37v51q0 19 20 19h539q8 0 13.5 -6t5.5 -13v-105q0 -19 -19 -19h-321l267 -304q14 -19 -1 -36l-266 -303h321q19 0 19 -19v-106q0 -19 -19 -19h-539q-20 0 -20 20z" />
    <glyph glyph-name="minus" unicode="&#x2212;" horiz-adv-x="529" 
d="M68 355h393q18 0 18 -19v-126q0 -18 -18 -18h-393q-18 0 -18 18v126q0 19 18 19z" />
    <glyph glyph-name="uni2215" unicode="&#x2215;" horiz-adv-x="572" 
d="M30 18l383 664q11 18 24 18h93q9 0 13 -5t-1 -13l-383 -664q-11 -18 -24 -18h-93q-9 0 -13 5t1 13z" />
    <glyph glyph-name="uni2219" unicode="&#x2219;" horiz-adv-x="211" 
d="M21 365q0 36 24 60.5t59 24.5q36 0 61 -24.5t25 -60.5q0 -35 -25 -59.5t-61 -24.5q-35 0 -59 24.5t-24 59.5z" />
    <glyph glyph-name="radical" unicode="&#x221a;" horiz-adv-x="541" 
d="M352 -12h-134q-14 0 -21 18l-87 256l-33 -20q-6 -3 -10 -3q-10 0 -14 10l-45 91q-8 17 5 27l160 90q5 3 10 3q10 0 14 -12l76 -225l107 485q5 20 20 20h109q18 0 15 -20l-153 -701q-5 -19 -19 -19z" />
    <glyph glyph-name="infinity" unicode="&#x221e;" horiz-adv-x="734" 
d="M584 292q0 28 -17 47.5t-47 19.5q-56 0 -82 -67q9 -33 32 -51t50 -18q31 0 47.5 19t16.5 50zM296 292q-10 30 -32.5 48.5t-48.5 18.5q-31 0 -48 -20t-17 -48q0 -30 17.5 -49t47.5 -19q28 0 49.5 20t31.5 49zM363 390q73 98 167 98q77 0 130 -54.5t53 -140.5
q0 -88 -51.5 -143.5t-128.5 -55.5q-53 0 -95 27t-67 73q-75 -100 -166 -100q-78 0 -131 55t-53 142t52.5 142t129.5 55q103 0 160 -98z" />
    <glyph glyph-name="integral" unicode="&#x222b;" horiz-adv-x="345" 
d="M62 -70v654q0 80 38.5 125.5t101.5 45.5q54 0 115 -36q17 -9 10 -24l-15 -39q-4 -12 -15 -12q-3 0 -9 2q-24 9 -41 9q-46 0 -46 -64v-655q0 -79 -38.5 -124.5t-101.5 -45.5q-53 0 -115 36q-17 8 -10 24l15 39q5 12 15 12q3 0 9 -2q24 -9 41 -9q46 0 46 64z" />
    <glyph glyph-name="approxequal" unicode="&#x2248;" horiz-adv-x="559" 
d="M107 179q-5 -8 -14 -8q-6 0 -11 5l-56 42q-14 11 -3 26q65 112 149 112q2 0 6.5 -0.5t7.5 -0.5q30 -2 99.5 -34t100.5 -32q5 0 10 1t9.5 3t7.5 3.5t7 5t6.5 5.5t6.5 7t5.5 7.5t6 8t5.5 7.5q5 8 14 8q7 0 12 -5l55 -41q15 -10 5 -26q-1 -1 -12.5 -15.5t-14 -18
t-13.5 -16.5t-16.5 -17t-16 -14t-18.5 -13.5t-19 -9t-22.5 -7.5t-23.5 -2q-38 0 -100 32t-96 32q-48 0 -77 -45zM107 392q-5 -8 -14 -8q-6 0 -11 5l-56 42q-14 11 -3 26q65 112 149 112q2 0 6.5 -0.5t7.5 -0.5q30 -2 99.5 -34t100.5 -32q5 0 10 1t9.5 3t7.5 3.5t7 5t6.5 5.5
t6.5 7t5.5 7.5t6 8t5.5 7.5q5 8 14 8q7 0 12 -5l55 -41q15 -10 5 -26q-1 -1 -12.5 -15.5t-14 -18t-13.5 -16.5t-16.5 -17t-16 -14t-18.5 -13.5t-19 -9t-22.5 -7.5t-23.5 -2q-38 0 -100 32t-96 32q-48 0 -77 -45z" />
    <glyph glyph-name="notequal" unicode="&#x2260;" horiz-adv-x="531" 
d="M478 135h-217l-41 -90q-8 -18 -24 -18h-103q-10 0 -14 5t1 13l40 90h-68q-18 0 -18 19v93q0 17 18 17h126l34 76h-160q-18 0 -18 18v93q0 17 18 17h218l41 91q8 18 24 18h103q10 0 14 -5t-1 -13l-40 -91h67q19 0 19 -18v-92q0 -18 -19 -18h-125l-34 -76h159q19 0 19 -18
v-92q0 -19 -19 -19z" />
    <glyph glyph-name="lessequal" unicode="&#x2264;" horiz-adv-x="430" 
d="M52 129h322q18 0 18 -17v-93q0 -19 -18 -19h-322q-18 0 -18 19v91q0 19 18 19zM374 494l-205 -71l205 -72q18 -7 18 -22v-108q0 -16 -11 -16q-3 0 -7 2l-323 132q-14 9 -16 15q-1 4 -1 9v123q0 13 18 21l322 131q4 3 8 3q10 0 10 -16v-108q0 -12 -18 -23z" />
    <glyph glyph-name="greaterequal" unicode="&#x2265;" horiz-adv-x="430" 
d="M56 129h322q18 0 18 -19v-91q0 -19 -18 -19h-322q-18 0 -18 19v93q0 17 18 17zM56 351l205 72l-205 71q-18 11 -18 23v108q0 16 10 16q4 0 8 -3l323 -131q17 -8 17 -21v-123q0 -7 -2.5 -11.5t-4 -6t-10.5 -6.5l-323 -132q-4 -2 -7 -2q-11 0 -11 16v108q0 15 18 22z" />
    <glyph glyph-name="lozenge" unicode="&#x25ca;" horiz-adv-x="527" 
d="M262 556l-90 -206l90 -206h3l90 206l-90 206h-3zM157 18l-130 311q-9 21 0 42l130 311q8 18 22 18h169q14 0 21 -18l131 -311q10 -22 1 -43l-132 -310q-7 -18 -21 -18h-169q-15 0 -22 18z" />
    <glyph glyph-name="_0012" horiz-adv-x="0" 
 />
    </font>
</defs>
</svg>
